<svg width="450" height="234" viewBox="0 0 450 234" fill="none" xmlns="http://www.w3.org/2000/svg">
<path d="M1 1.55927V232C1 232.553 1.4477 233 1.99999 233H448.5C449.052 233 449.5 232.553 449.5 232V1.56072C449.5 0.831541 448.745 0.347538 448.082 0.652168L225.917 102.808C225.652 102.93 225.348 102.93 225.083 102.809L2.417 0.650361C1.75458 0.346445 1 0.830459 1 1.55927Z" fill="white" stroke="#BE8D6A"/>
<path d="M2.6855 233H448.312C448.692 233 449 232.692 449 232.312C449 232.076 448.879 231.856 448.679 231.73L226.567 91.6729C225.915 91.2619 225.085 91.2619 224.433 91.6729L2.31987 231.735C2.12076 231.86 2 232.079 2 232.315C2 232.693 2.3069 233 2.6855 233Z" fill="white" stroke="#BE8D6A"/>
</svg>
