<svg width="449" height="320" viewBox="0 0 449 320" fill="none" xmlns="http://www.w3.org/2000/svg">
<rect x="3.5" y="114" width="439" height="206" fill="#EBE2DB"/>
<path d="M1.5 114H447.64C448.115 114 448.5 113.615 448.5 113.14C448.5 113.047 448.484 112.958 448.443 112.875C448.164 112.308 446.574 109.433 438 97.0002C429.658 84.9038 286.651 25.1356 239.468 5.65248C239.447 5.64386 239.429 5.63551 239.408 5.62566C239.197 5.52336 237.786 4.84902 232.5 2.4997C226.692 -0.081822 225 -0.0911927 216.5 2.99998C216.049 3.16409 202.894 8.36247 202.451 8.54573C149.759 30.3035 20.2468 84.6752 11.5 97.0002C0.5 112.5 0.5 113 0.5 113C0.5 113.552 0.947711 114 1.5 114Z" fill="#FFFAF5" stroke="#BE8D6A"/>
</svg>
