<svg width="560" height="892" viewBox="0 0 560 892" fill="none" xmlns="http://www.w3.org/2000/svg">
<path d="M415.161 91.9422C462.925 126.796 498.749 180.91 513.139 241.445C527.53 302.285 520.181 369.852 482.521 405.928C444.861 442.004 376.888 446.285 322.081 450.565C266.968 454.845 225.328 459.431 189.198 446.59C153.375 434.055 123.369 404.399 94.5875 367.712C65.8063 331.024 38.2499 286.999 40.087 243.585C41.9241 200.171 73.4609 157.063 112.958 120.375C152.456 83.9932 200.527 54.3373 254.415 47.6112C307.997 40.5794 367.396 56.7831 415.161 91.9422Z" fill="#FBF7F4"/>
<path d="M176 274V349H229V283.911L219.146 274H176Z" fill="#BE8D6A" stroke="#F1EDED"/>
<path d="M166 284V359H219V293.911L209.146 284H166Z" fill="#BE8D6A" stroke="#F1EDED"/>
<path d="M167.852 384.32C167.852 383.584 168.052 383.072 168.452 382.784C168.852 382.48 169.34 382.328 169.916 382.328C170.476 382.328 170.956 382.48 171.356 382.784C171.756 383.072 171.956 383.584 171.956 384.32C171.956 385.024 171.756 385.536 171.356 385.856C170.956 386.16 170.476 386.312 169.916 386.312C169.34 386.312 168.852 386.16 168.452 385.856C168.052 385.536 167.852 385.024 167.852 384.32ZM180.528 386.24C178.576 386.24 177.064 385.704 175.992 384.632C174.936 383.544 174.408 381.84 174.408 379.52C174.408 377.92 174.68 376.616 175.224 375.608C175.768 374.6 176.52 373.856 177.48 373.376C178.456 372.896 179.576 372.656 180.84 372.656C181.736 372.656 182.512 372.744 183.168 372.92C183.84 373.096 184.424 373.304 184.92 373.544L183.864 376.304C183.304 376.08 182.776 375.896 182.28 375.752C181.8 375.608 181.32 375.536 180.84 375.536C178.984 375.536 178.056 376.856 178.056 379.496C178.056 380.808 178.296 381.776 178.776 382.4C179.272 383.024 179.96 383.336 180.84 383.336C181.592 383.336 182.256 383.24 182.832 383.048C183.408 382.84 183.968 382.56 184.512 382.208V385.256C183.968 385.608 183.392 385.856 182.784 386C182.192 386.16 181.44 386.24 180.528 386.24ZM196.672 382.112C196.672 383.44 196.2 384.464 195.256 385.184C194.328 385.888 192.936 386.24 191.08 386.24C190.168 386.24 189.384 386.176 188.728 386.048C188.072 385.936 187.416 385.744 186.76 385.472V382.52C187.464 382.84 188.224 383.104 189.04 383.312C189.856 383.52 190.576 383.624 191.2 383.624C191.904 383.624 192.4 383.52 192.688 383.312C192.992 383.104 193.144 382.832 193.144 382.496C193.144 382.272 193.08 382.072 192.952 381.896C192.84 381.72 192.584 381.52 192.184 381.296C191.784 381.072 191.16 380.784 190.312 380.432C189.496 380.08 188.824 379.736 188.296 379.4C187.768 379.048 187.376 378.632 187.12 378.152C186.864 377.656 186.736 377.04 186.736 376.304C186.736 375.088 187.208 374.176 188.152 373.568C189.096 372.96 190.352 372.656 191.92 372.656C192.736 372.656 193.512 372.736 194.248 372.896C194.984 373.056 195.744 373.32 196.528 373.688L195.448 376.256C194.808 375.984 194.2 375.76 193.624 375.584C193.048 375.392 192.464 375.296 191.872 375.296C190.816 375.296 190.288 375.584 190.288 376.16C190.288 376.368 190.352 376.56 190.48 376.736C190.624 376.896 190.888 377.072 191.272 377.264C191.672 377.456 192.256 377.712 193.024 378.032C193.776 378.336 194.424 378.656 194.968 378.992C195.512 379.312 195.928 379.72 196.216 380.216C196.52 380.696 196.672 381.328 196.672 382.112ZM208.602 382.112C208.602 383.44 208.13 384.464 207.186 385.184C206.258 385.888 204.866 386.24 203.01 386.24C202.098 386.24 201.314 386.176 200.658 386.048C200.002 385.936 199.346 385.744 198.69 385.472V382.52C199.394 382.84 200.154 383.104 200.97 383.312C201.786 383.52 202.506 383.624 203.13 383.624C203.834 383.624 204.33 383.52 204.618 383.312C204.922 383.104 205.074 382.832 205.074 382.496C205.074 382.272 205.01 382.072 204.882 381.896C204.77 381.72 204.514 381.52 204.114 381.296C203.714 381.072 203.09 380.784 202.242 380.432C201.426 380.08 200.754 379.736 200.226 379.4C199.698 379.048 199.306 378.632 199.05 378.152C198.794 377.656 198.666 377.04 198.666 376.304C198.666 375.088 199.138 374.176 200.082 373.568C201.026 372.96 202.282 372.656 203.85 372.656C204.666 372.656 205.442 372.736 206.178 372.896C206.914 373.056 207.674 373.32 208.458 373.688L207.378 376.256C206.738 375.984 206.13 375.76 205.554 375.584C204.978 375.392 204.394 375.296 203.802 375.296C202.746 375.296 202.218 375.584 202.218 376.16C202.218 376.368 202.282 376.56 202.41 376.736C202.554 376.896 202.818 377.072 203.202 377.264C203.602 377.456 204.186 377.712 204.954 378.032C205.706 378.336 206.354 378.656 206.898 378.992C207.442 379.312 207.858 379.72 208.146 380.216C208.45 380.696 208.602 381.328 208.602 382.112Z" fill="#858585"/>
<path d="M187.637 326.125C189.562 326.125 190.25 324.75 190.25 324.75L189.15 324.062C189.15 324.062 188.737 324.75 187.775 324.75C186.812 324.75 186.125 323.513 186.125 321.725C186.125 320.075 186.95 319.25 187.775 319.25C188.462 319.25 189.012 319.8 189.012 319.8L190.113 318.975C190.113 318.975 189.15 317.875 187.775 317.875C186.262 317.875 184.75 319.113 184.75 321.725C184.75 324.338 185.987 326.125 187.637 326.125ZM193.962 324.612C193.55 324.75 193 324.613 192.587 324.062L191.488 324.75C192.038 325.575 192.862 326.125 193.688 326.125C193.825 326.125 194.1 326.125 194.237 325.987C195.2 325.712 195.75 324.888 195.75 323.788C195.75 322.138 194.65 321.588 193.962 321.312C193.275 320.9 193 320.762 193 320.212C193 319.662 193.138 319.25 193.825 319.25C194.238 319.25 194.65 319.8 194.65 319.8L195.75 318.975C195.475 318.563 194.788 317.875 193.825 317.875C192.588 317.875 191.625 318.7 191.625 320.075C191.625 321.587 192.587 322.137 193.275 322.55C194.1 322.825 194.375 323.1 194.375 323.788C194.375 324.2 194.375 324.612 193.962 324.612ZM199.462 324.612C199.05 324.75 198.5 324.613 198.087 324.062L196.987 324.75C197.537 325.575 198.362 326.125 199.188 326.125C199.325 326.125 199.6 326.125 199.737 325.987C200.7 325.712 201.25 324.888 201.25 323.788C201.25 322.138 200.15 321.588 199.462 321.312C198.775 320.9 198.5 320.762 198.5 320.212C198.5 319.662 198.638 319.25 199.325 319.25C199.738 319.25 200.15 319.8 200.15 319.8L201.25 318.975C200.975 318.563 200.288 317.875 199.325 317.875C198.088 317.875 197.125 318.7 197.125 320.075C197.125 321.587 198.087 322.137 198.775 322.55C199.6 322.825 199.875 323.1 199.875 323.788C199.875 324.2 199.875 324.612 199.462 324.612V324.612ZM182 311V333H204V311H182ZM202.625 331.625H183.375V312.375H202.625V331.625Z" fill="white"/>
<path d="M212 109V184H265V118.911L255.146 109H212Z" fill="#BE8D6A" stroke="#F1EDED"/>
<path d="M202 118V193H255V127.911L245.146 118H202Z" fill="#BE8D6A" stroke="#F1EDED"/>
<path d="M192 128V203H245V137.911L235.146 128H192Z" fill="#BE8D6A" stroke="#F1EDED"/>
<path d="M193.626 228.32C193.626 227.584 193.826 227.072 194.226 226.784C194.626 226.48 195.114 226.328 195.69 226.328C196.25 226.328 196.73 226.48 197.13 226.784C197.53 227.072 197.73 227.584 197.73 228.32C197.73 229.024 197.53 229.536 197.13 229.856C196.73 230.16 196.25 230.312 195.69 230.312C195.114 230.312 194.626 230.16 194.226 229.856C193.826 229.536 193.626 229.024 193.626 228.32ZM216.358 216.656C217.846 216.656 218.966 217.04 219.718 217.808C220.486 218.56 220.87 219.776 220.87 221.456V230H217.294V222.344C217.294 220.456 216.638 219.512 215.326 219.512C214.382 219.512 213.71 219.848 213.31 220.52C212.91 221.192 212.71 222.16 212.71 223.424V230H209.134V222.344C209.134 220.456 208.478 219.512 207.166 219.512C206.174 219.512 205.486 219.888 205.102 220.64C204.734 221.376 204.55 222.44 204.55 223.832V230H200.974V216.896H203.71L204.19 218.576H204.382C204.782 217.904 205.326 217.416 206.014 217.112C206.718 216.808 207.446 216.656 208.198 216.656C209.158 216.656 209.974 216.816 210.646 217.136C211.318 217.44 211.83 217.92 212.182 218.576H212.494C212.894 217.904 213.446 217.416 214.15 217.112C214.87 216.808 215.606 216.656 216.358 216.656ZM228.704 230.24C227.248 230.24 226.056 229.672 225.128 228.536C224.216 227.384 223.76 225.696 223.76 223.472C223.76 221.232 224.224 219.536 225.152 218.384C226.08 217.232 227.296 216.656 228.8 216.656C229.744 216.656 230.52 216.84 231.128 217.208C231.736 217.576 232.216 218.032 232.568 218.576H232.688C232.64 218.32 232.584 217.952 232.52 217.472C232.456 216.976 232.424 216.472 232.424 215.96V211.76H236V230H233.264L232.568 228.296H232.424C232.072 228.84 231.6 229.304 231.008 229.688C230.416 230.056 229.648 230.24 228.704 230.24ZM229.952 227.384C230.944 227.384 231.64 227.096 232.04 226.52C232.44 225.928 232.648 225.048 232.664 223.88V223.496C232.664 222.216 232.464 221.24 232.064 220.568C231.68 219.896 230.96 219.56 229.904 219.56C229.12 219.56 228.504 219.904 228.056 220.592C227.608 221.264 227.384 222.24 227.384 223.52C227.384 224.8 227.608 225.768 228.056 226.424C228.504 227.064 229.136 227.384 229.952 227.384ZM242.427 223.304L238.203 216.896H242.259L244.803 221.072L247.371 216.896H251.427L247.155 223.304L251.619 230H247.563L244.803 225.512L242.043 230H237.987L242.427 223.304Z" fill="#858585"/>
<path d="M205.255 159C204.566 159 204 159.583 204 160.292V170.708C204 171.417 204.566 172 205.255 172H232.745C233.434 172 234 171.417 234 170.708V160.292C234 159.583 233.434 159 232.745 159H205.255V159ZM224.541 161.461L227.204 164.203L229.866 161.461L230.798 162.42L228.135 165.163L230.734 167.841L229.803 168.8L227.204 166.123L224.604 168.8L223.673 167.841L226.272 165.163L223.609 162.42L224.541 161.461V161.461ZM218.497 161.545H219.827V166.674L221.647 164.85L222.566 165.823L219.15 169.246L215.906 165.827L216.848 164.879L218.497 166.615V161.545H218.497ZM206.959 161.726L210.512 165.34L214.13 161.758V168.904H212.778V165.028L210.499 167.285L208.312 165.06V168.904H206.959V161.726V161.726Z" fill="white"/>
<path d="M363 133V208H416V142.911L406.146 133H363Z" fill="#BE8D6A" stroke="#F1EDED"/>
<path d="M353 142V217H406V151.911L396.146 142H353Z" fill="#BE8D6A" stroke="#F1EDED"/>
<path d="M343 152V227H396V161.911L386.146 152H343Z" fill="#BE8D6A" stroke="#F1EDED"/>
<path d="M344.841 251.32C344.841 250.584 345.041 250.072 345.441 249.784C345.841 249.48 346.329 249.328 346.905 249.328C347.465 249.328 347.945 249.48 348.345 249.784C348.745 250.072 348.945 250.584 348.945 251.32C348.945 252.024 348.745 252.536 348.345 252.856C347.945 253.16 347.465 253.312 346.905 253.312C346.329 253.312 345.841 253.16 345.441 252.856C345.041 252.536 344.841 252.024 344.841 251.32ZM357.708 250.384C358.108 250.384 358.492 250.344 358.86 250.264C359.228 250.184 359.596 250.088 359.964 249.976V252.64C359.58 252.8 359.1 252.936 358.524 253.048C357.964 253.176 357.348 253.24 356.676 253.24C355.892 253.24 355.188 253.112 354.564 252.856C353.956 252.6 353.468 252.16 353.1 251.536C352.748 250.896 352.572 250.016 352.572 248.896V242.584H350.868V241.072L352.836 239.872L353.868 237.112H356.148V239.896H359.82V242.584H356.148V248.896C356.148 249.392 356.292 249.768 356.58 250.024C356.868 250.264 357.244 250.384 357.708 250.384ZM371.739 249.112C371.739 250.44 371.267 251.464 370.323 252.184C369.395 252.888 368.003 253.24 366.147 253.24C365.235 253.24 364.451 253.176 363.795 253.048C363.139 252.936 362.483 252.744 361.827 252.472V249.52C362.531 249.84 363.291 250.104 364.107 250.312C364.923 250.52 365.643 250.624 366.267 250.624C366.971 250.624 367.467 250.52 367.755 250.312C368.059 250.104 368.211 249.832 368.211 249.496C368.211 249.272 368.147 249.072 368.019 248.896C367.907 248.72 367.651 248.52 367.251 248.296C366.851 248.072 366.227 247.784 365.379 247.432C364.563 247.08 363.891 246.736 363.363 246.4C362.835 246.048 362.443 245.632 362.187 245.152C361.931 244.656 361.803 244.04 361.803 243.304C361.803 242.088 362.275 241.176 363.219 240.568C364.163 239.96 365.419 239.656 366.987 239.656C367.803 239.656 368.579 239.736 369.315 239.896C370.051 240.056 370.811 240.32 371.595 240.688L370.515 243.256C369.875 242.984 369.267 242.76 368.691 242.584C368.115 242.392 367.531 242.296 366.939 242.296C365.883 242.296 365.355 242.584 365.355 243.16C365.355 243.368 365.419 243.56 365.547 243.736C365.691 243.896 365.955 244.072 366.339 244.264C366.739 244.456 367.323 244.712 368.091 245.032C368.843 245.336 369.491 245.656 370.035 245.992C370.579 246.312 370.995 246.72 371.283 247.216C371.587 247.696 371.739 248.328 371.739 249.112ZM377.212 246.304L372.988 239.896H377.044L379.588 244.072L382.156 239.896H386.212L381.94 246.304L386.404 253H382.348L379.588 248.512L376.828 253H372.772L377.212 246.304Z" fill="#858585"/>
<path d="M370.003 191.817C371.185 191.817 372.143 190.859 372.143 189.677C372.143 188.495 371.185 187.537 370.003 187.537C368.821 187.537 367.863 188.495 367.863 189.677C367.863 190.859 368.821 191.817 370.003 191.817Z" fill="white"/>
<path d="M364.009 193.932L363.535 193.811C360.018 192.923 358 191.412 358 189.673C358 187.932 360.019 186.422 363.535 185.534L364.009 185.414L364.142 185.883C364.497 187.11 364.953 188.306 365.504 189.459L365.606 189.673L365.504 189.886C364.952 191.04 364.495 192.237 364.142 193.465L364.009 193.932V193.932ZM363.317 186.625C360.645 187.378 359.003 188.526 359.003 189.673C359.003 190.816 360.643 191.966 363.317 192.718C363.644 191.677 364.04 190.659 364.498 189.673C364.037 188.684 363.642 187.666 363.317 186.625V186.625ZM375.991 193.932L375.859 193.462C375.503 192.235 375.047 191.038 374.496 189.885L374.394 189.673L374.496 189.458C375.048 188.306 375.502 187.108 375.859 185.881L375.991 185.413L376.465 185.533C379.984 186.421 382 187.931 382 189.673C382 191.413 379.982 192.923 376.465 193.811L375.991 193.932V193.932ZM375.5 189.673C375.979 190.711 376.379 191.732 376.683 192.718C379.357 191.966 380.998 190.816 380.998 189.673C380.998 188.526 379.358 187.379 376.683 186.625C376.356 187.666 375.961 188.684 375.5 189.673V189.673Z" fill="white"/>
<path d="M363.3 186.62L363.168 186.153C362.178 182.666 362.478 180.169 363.992 179.299C365.472 178.441 367.855 179.455 370.349 182.014L370.69 182.364L370.349 182.713C369.463 183.635 368.653 184.626 367.928 185.679L367.792 185.873L367.557 185.892C366.281 185.993 365.015 186.197 363.772 186.503L363.3 186.62V186.62ZM365.197 179.992C364.928 179.992 364.691 180.05 364.491 180.165C363.498 180.737 363.323 182.729 364.006 185.416C365.074 185.18 366.152 185.011 367.238 184.917C367.867 184.025 368.553 183.174 369.292 182.371C367.73 180.852 366.255 179.992 365.197 179.992V179.992ZM374.784 200.353C373.36 200.353 371.53 199.279 369.631 197.33L369.292 196.981L369.631 196.633C370.518 195.71 371.328 194.717 372.054 193.663L372.188 193.472L372.421 193.449C373.698 193.35 374.964 193.147 376.207 192.841L376.681 192.721L376.814 193.19C377.799 196.674 377.501 199.175 375.989 200.045C375.622 200.253 375.206 200.359 374.784 200.353V200.353ZM370.69 196.972C372.251 198.491 373.727 199.353 374.784 199.353C375.054 199.353 375.291 199.293 375.49 199.179C376.484 198.606 376.66 196.611 375.974 193.924C374.907 194.161 373.829 194.331 372.74 194.426C372.114 195.319 371.429 196.17 370.69 196.972V196.972Z" fill="white"/>
<path d="M376.681 186.62L376.207 186.501C374.964 186.195 373.698 185.99 372.421 185.891L372.189 185.871L372.054 185.677C371.329 184.624 370.519 183.632 369.632 182.711L369.292 182.362L369.632 182.014C372.125 179.456 374.506 178.443 375.989 179.299C377.502 180.17 377.803 182.667 376.814 186.153L376.681 186.62ZM372.74 184.917C373.884 185.018 374.968 185.19 375.975 185.416C376.659 182.729 376.484 180.737 375.49 180.164C374.503 179.592 372.643 180.468 370.69 182.371C371.429 183.175 372.114 184.023 372.74 184.917ZM365.197 200.353C364.775 200.359 364.359 200.253 363.992 200.045C362.478 199.175 362.178 196.675 363.167 193.19L363.297 192.721L363.77 192.841C364.926 193.132 366.199 193.337 367.556 193.449L367.789 193.472L367.924 193.663C368.648 194.716 369.459 195.71 370.346 196.633L370.687 196.981L370.346 197.33C368.448 199.28 366.619 200.353 365.197 200.353V200.353ZM364.007 193.925C363.323 196.613 363.498 198.608 364.491 199.181C365.48 199.744 367.333 198.875 369.292 196.972C368.554 196.169 367.868 195.319 367.239 194.427C366.151 194.331 365.072 194.163 364.007 193.925V193.925Z" fill="white"/>
<path d="M369.993 194.554C369.17 194.554 368.325 194.519 367.476 194.449L367.241 194.428L367.105 194.234C366.627 193.546 366.176 192.838 365.756 192.113C365.338 191.386 364.949 190.643 364.591 189.885L364.491 189.672L364.591 189.458C364.95 188.7 365.337 187.957 365.756 187.23C366.172 186.516 366.626 185.801 367.105 185.108L367.241 184.917L367.476 184.895C369.151 184.755 370.834 184.755 372.509 184.895L372.741 184.918L372.877 185.11C373.836 186.487 374.678 187.942 375.394 189.459L375.494 189.674L375.394 189.886C374.68 191.404 373.837 192.859 372.877 194.235L372.741 194.43L372.509 194.45C371.662 194.518 370.816 194.554 369.993 194.554V194.554ZM367.795 193.47C369.275 193.582 370.712 193.582 372.191 193.47C373.017 192.261 373.751 190.992 374.387 189.672C373.753 188.352 373.019 187.083 372.191 185.874C370.728 185.762 369.258 185.762 367.795 185.874C366.966 187.082 366.232 188.352 365.598 189.672C366.236 190.991 366.97 192.26 367.795 193.47V193.47Z" fill="white"/>
<path d="M310 285V360H363V294.911L353.146 285H310Z" fill="#BE8D6A" stroke="#F1EDED"/>
<path d="M300 295V370H353V304.911L343.146 295H300Z" fill="#BE8D6A" stroke="#F1EDED"/>
<path d="M301.579 394.32C301.579 393.584 301.779 393.072 302.179 392.784C302.579 392.48 303.067 392.328 303.643 392.328C304.203 392.328 304.683 392.48 305.083 392.784C305.483 393.072 305.683 393.584 305.683 394.32C305.683 395.024 305.483 395.536 305.083 395.856C304.683 396.16 304.203 396.312 303.643 396.312C303.067 396.312 302.579 396.16 302.179 395.856C301.779 395.536 301.579 395.024 301.579 394.32ZM314.447 393.384C314.847 393.384 315.231 393.344 315.599 393.264C315.967 393.184 316.335 393.088 316.703 392.976V395.64C316.319 395.8 315.839 395.936 315.263 396.048C314.703 396.176 314.087 396.24 313.415 396.24C312.631 396.24 311.927 396.112 311.303 395.856C310.695 395.6 310.207 395.16 309.839 394.536C309.487 393.896 309.311 393.016 309.311 391.896V385.584H307.607V384.072L309.575 382.872L310.607 380.112H312.887V382.896H316.559V385.584H312.887V391.896C312.887 392.392 313.031 392.768 313.319 393.024C313.607 393.264 313.983 393.384 314.447 393.384ZM324.733 382.656C326.541 382.656 327.973 383.176 329.029 384.216C330.085 385.24 330.613 386.704 330.613 388.608V390.336H322.165C322.197 391.344 322.493 392.136 323.053 392.712C323.629 393.288 324.421 393.576 325.429 393.576C326.277 393.576 327.045 393.496 327.733 393.336C328.421 393.16 329.133 392.896 329.869 392.544V395.304C329.229 395.624 328.549 395.856 327.829 396C327.125 396.16 326.269 396.24 325.261 396.24C323.949 396.24 322.789 396 321.781 395.52C320.773 395.024 319.981 394.28 319.405 393.288C318.829 392.296 318.541 391.048 318.541 389.544C318.541 388.008 318.797 386.736 319.309 385.728C319.837 384.704 320.565 383.936 321.493 383.424C322.421 382.912 323.501 382.656 324.733 382.656ZM324.757 385.2C324.069 385.2 323.493 385.424 323.029 385.872C322.581 386.32 322.317 387.016 322.237 387.96H327.253C327.237 387.16 327.029 386.504 326.629 385.992C326.229 385.464 325.605 385.2 324.757 385.2ZM348.897 382.656C350.385 382.656 351.505 383.04 352.257 383.808C353.025 384.56 353.409 385.776 353.409 387.456V396H349.833V388.344C349.833 386.456 349.177 385.512 347.865 385.512C346.921 385.512 346.249 385.848 345.849 386.52C345.449 387.192 345.249 388.16 345.249 389.424V396H341.673V388.344C341.673 386.456 341.017 385.512 339.705 385.512C338.713 385.512 338.025 385.888 337.641 386.64C337.273 387.376 337.089 388.44 337.089 389.832V396H333.513V382.896H336.249L336.729 384.576H336.921C337.321 383.904 337.865 383.416 338.553 383.112C339.257 382.808 339.985 382.656 340.737 382.656C341.697 382.656 342.513 382.816 343.185 383.136C343.857 383.44 344.369 383.92 344.721 384.576H345.033C345.433 383.904 345.985 383.416 346.689 383.112C347.409 382.808 348.145 382.656 348.897 382.656ZM364.387 382.656C365.859 382.656 367.051 383.232 367.963 384.384C368.875 385.52 369.331 387.2 369.331 389.424C369.331 391.648 368.859 393.344 367.915 394.512C366.971 395.664 365.763 396.24 364.291 396.24C363.347 396.24 362.595 396.072 362.035 395.736C361.475 395.384 361.019 394.992 360.667 394.56H360.475C360.603 395.232 360.667 395.872 360.667 396.48V401.76H357.091V382.896H359.995L360.499 384.6H360.667C361.019 384.072 361.491 383.616 362.083 383.232C362.675 382.848 363.443 382.656 364.387 382.656ZM363.235 385.512C362.307 385.512 361.651 385.8 361.267 386.376C360.899 386.952 360.699 387.832 360.667 389.016V389.4C360.667 390.664 360.851 391.64 361.219 392.328C361.603 393 362.291 393.336 363.283 393.336C364.099 393.336 364.699 393 365.083 392.328C365.483 391.64 365.683 390.656 365.683 389.376C365.683 386.8 364.867 385.512 363.235 385.512ZM375.854 396H372.278V377.76H375.854V396ZM384.967 382.632C386.727 382.632 388.071 383.016 388.999 383.784C389.943 384.536 390.415 385.696 390.415 387.264V396H387.919L387.223 394.224H387.127C386.567 394.928 385.975 395.44 385.351 395.76C384.727 396.08 383.871 396.24 382.783 396.24C381.615 396.24 380.647 395.904 379.879 395.232C379.111 394.544 378.727 393.496 378.727 392.088C378.727 390.696 379.215 389.672 380.191 389.016C381.167 388.344 382.631 387.976 384.583 387.912L386.863 387.84V387.264C386.863 386.576 386.679 386.072 386.311 385.752C385.959 385.432 385.463 385.272 384.823 385.272C384.183 385.272 383.559 385.368 382.951 385.56C382.343 385.736 381.735 385.96 381.127 386.232L379.951 383.808C380.655 383.44 381.431 383.152 382.279 382.944C383.143 382.736 384.039 382.632 384.967 382.632ZM385.471 389.976C384.319 390.008 383.519 390.216 383.071 390.6C382.623 390.984 382.399 391.488 382.399 392.112C382.399 392.656 382.559 393.048 382.879 393.288C383.199 393.512 383.615 393.624 384.127 393.624C384.895 393.624 385.543 393.4 386.071 392.952C386.599 392.488 386.863 391.84 386.863 391.008V389.928L385.471 389.976ZM399.595 393.384C399.995 393.384 400.379 393.344 400.747 393.264C401.115 393.184 401.483 393.088 401.851 392.976V395.64C401.467 395.8 400.987 395.936 400.411 396.048C399.851 396.176 399.235 396.24 398.563 396.24C397.779 396.24 397.075 396.112 396.451 395.856C395.843 395.6 395.355 395.16 394.987 394.536C394.635 393.896 394.459 393.016 394.459 391.896V385.584H392.755V384.072L394.723 382.872L395.755 380.112H398.035V382.896H401.707V385.584H398.035V391.896C398.035 392.392 398.179 392.768 398.467 393.024C398.755 393.264 399.131 393.384 399.595 393.384ZM409.881 382.656C411.689 382.656 413.121 383.176 414.177 384.216C415.233 385.24 415.761 386.704 415.761 388.608V390.336H407.313C407.345 391.344 407.641 392.136 408.201 392.712C408.777 393.288 409.569 393.576 410.577 393.576C411.425 393.576 412.193 393.496 412.881 393.336C413.569 393.16 414.281 392.896 415.017 392.544V395.304C414.377 395.624 413.697 395.856 412.977 396C412.273 396.16 411.417 396.24 410.409 396.24C409.097 396.24 407.937 396 406.929 395.52C405.921 395.024 405.129 394.28 404.553 393.288C403.977 392.296 403.689 391.048 403.689 389.544C403.689 388.008 403.945 386.736 404.457 385.728C404.985 384.704 405.713 383.936 406.641 383.424C407.569 382.912 408.649 382.656 409.881 382.656ZM409.905 385.2C409.217 385.2 408.641 385.424 408.177 385.872C407.729 386.32 407.465 387.016 407.385 387.96H412.401C412.385 387.16 412.177 386.504 411.777 385.992C411.377 385.464 410.753 385.2 409.905 385.2Z" fill="#858585"/>
<path fill-rule="evenodd" clip-rule="evenodd" d="M316 322V329H336.999V322H316ZM334.666 324.333H318.333V326.667H334.666V324.333Z" fill="white"/>
<path fill-rule="evenodd" clip-rule="evenodd" d="M316 331.333V342.999H325.333V331.333H316ZM323 333.666H318.333V340.666H323V333.666Z" fill="white"/>
<path d="M336.995 331.333H327.662V333.666H336.995V331.333Z" fill="white"/>
<path d="M327.662 336H336.995V338.333H327.662V336Z" fill="white"/>
<path d="M336.995 340.667H327.662V343H336.995V340.667Z" fill="white"/>
<rect x="121" y="497" width="335" height="140" fill="#BE8D6A"/>
<path d="M179.164 557.679C182.024 557.679 184.184 558.079 185.644 558.879C187.104 559.679 187.834 561.089 187.834 563.109C187.834 564.329 187.544 565.359 186.964 566.199C186.404 567.039 185.594 567.549 184.534 567.729V567.879C185.254 568.019 185.904 568.269 186.484 568.629C187.064 568.989 187.524 569.509 187.864 570.189C188.204 570.869 188.374 571.769 188.374 572.889C188.374 574.829 187.674 576.349 186.274 577.449C184.874 578.549 182.954 579.099 180.514 579.099H172.504V557.679H179.164ZM179.674 566.169C180.994 566.169 181.904 565.959 182.404 565.539C182.924 565.119 183.184 564.509 183.184 563.709C183.184 562.889 182.884 562.299 182.284 561.939C181.684 561.579 180.734 561.399 179.434 561.399H177.034V566.169H179.674ZM177.034 569.769V575.349H180.004C181.364 575.349 182.314 575.089 182.854 574.569C183.394 574.029 183.664 573.319 183.664 572.439C183.664 571.639 183.384 570.999 182.824 570.519C182.284 570.019 181.294 569.769 179.854 569.769H177.034ZM210.09 571.539C210.09 573.019 209.76 574.359 209.1 575.559C208.46 576.739 207.48 577.679 206.16 578.379C204.86 579.059 203.21 579.399 201.21 579.399C198.37 579.399 196.21 578.679 194.73 577.239C193.25 575.779 192.51 573.859 192.51 571.479V557.679H197.04V570.789C197.04 572.549 197.4 573.789 198.12 574.509C198.84 575.229 199.91 575.589 201.33 575.589C202.81 575.589 203.88 575.199 204.54 574.419C205.22 573.639 205.56 572.419 205.56 570.759V557.679H210.09V571.539ZM223.346 579.099H213.596V576.519L216.206 575.319V561.459L213.596 560.259V557.679H223.346V560.259L220.736 561.459V575.319L223.346 576.519V579.099ZM226.996 579.099V557.679H231.526V575.349H240.226V579.099H226.996ZM261.719 568.179C261.719 571.799 260.689 574.529 258.629 576.369C256.589 578.189 253.719 579.099 250.019 579.099H243.959V557.679H250.679C252.919 557.679 254.859 558.079 256.499 558.879C258.159 559.679 259.439 560.859 260.339 562.419C261.259 563.959 261.719 565.879 261.719 568.179ZM257.009 568.299C257.009 565.919 256.489 564.179 255.449 563.079C254.409 561.959 252.899 561.399 250.919 561.399H248.489V575.349H250.439C254.819 575.349 257.009 572.999 257.009 568.299ZM280.799 557.679C283.559 557.679 285.569 558.279 286.829 559.479C288.109 560.659 288.749 562.289 288.749 564.369C288.749 565.609 288.489 566.779 287.969 567.879C287.449 568.959 286.579 569.829 285.359 570.489C284.159 571.149 282.519 571.479 280.439 571.479H278.489V579.099H273.959V557.679H280.799ZM280.559 561.399H278.489V567.759H279.989C281.269 567.759 282.279 567.509 283.019 567.009C283.779 566.489 284.159 565.659 284.159 564.519C284.159 562.439 282.959 561.399 280.559 561.399ZM300.807 579.099H291.057V576.519L293.667 575.319V561.459L291.057 560.259V557.679H300.807V560.259L298.197 561.459V575.319L300.807 576.519V579.099ZM311.297 557.679C314.057 557.679 316.067 558.279 317.327 559.479C318.607 560.659 319.247 562.289 319.247 564.369C319.247 565.609 318.987 566.779 318.467 567.879C317.947 568.959 317.077 569.829 315.857 570.489C314.657 571.149 313.017 571.479 310.937 571.479H308.987V579.099H304.457V557.679H311.297ZM311.057 561.399H308.987V567.759H310.487C311.767 567.759 312.777 567.509 313.517 567.009C314.277 566.489 314.657 565.659 314.657 564.519C314.657 562.439 313.457 561.399 311.057 561.399ZM335.625 579.099H323.295V557.679H335.625V561.399H327.825V566.109H335.085V569.829H327.825V575.349H335.625V579.099ZM340.082 579.099V557.679H344.612V575.349H353.312V579.099H340.082ZM365.055 579.099H355.305V576.519L357.915 575.319V561.459L355.305 560.259V557.679H365.055V560.259L362.445 561.459V575.319L365.055 576.519V579.099ZM387.695 579.099H381.935L372.605 562.899H372.485C372.525 563.919 372.565 564.939 372.605 565.959C372.665 566.979 372.715 567.999 372.755 569.019V579.099H368.705V557.679H374.435L383.735 573.729H383.825C383.805 572.729 383.775 571.739 383.735 570.759C383.695 569.779 383.655 568.799 383.615 567.819V557.679H387.695V579.099ZM405.439 579.099H393.109V557.679H405.439V561.399H397.639V566.109H404.899V569.829H397.639V575.349H405.439V579.099Z" fill="#F8F8F8"/>
<path d="M280.586 474.414C281.367 475.195 282.633 475.195 283.414 474.414L296.142 461.686C296.923 460.905 296.923 459.639 296.142 458.858C295.361 458.077 294.095 458.077 293.314 458.858L282 470.172L270.686 458.858C269.905 458.077 268.639 458.077 267.858 458.858C267.077 459.639 267.077 460.905 267.858 461.686L280.586 474.414ZM280 437L280 473L284 473L284 437L280 437Z" fill="#BE8D6A"/>
<path d="M280.586 694.414C281.367 695.195 282.633 695.195 283.414 694.414L296.142 681.686C296.923 680.905 296.923 679.639 296.142 678.858C295.361 678.077 294.095 678.077 293.314 678.858L282 690.172L270.686 678.858C269.905 678.077 268.639 678.077 267.858 678.858C267.077 679.639 267.077 680.905 267.858 681.686L280.586 694.414ZM280 657L280 693L284 693L284 657L280 657Z" fill="#BE8D6A"/>
<path d="M316.667 733H277.436L270.762 723.813C270.224 723.077 269.52 722.479 268.707 722.067C267.893 721.656 266.994 721.442 266.082 721.444H247.333C245.801 721.444 244.331 722.053 243.248 723.137C242.164 724.22 241.556 725.69 241.556 727.222V790.778C241.556 792.31 242.164 793.78 243.248 794.863C244.331 795.947 245.801 796.556 247.333 796.556H316.667C318.199 796.556 319.669 795.947 320.752 794.863C321.836 793.78 322.445 792.31 322.445 790.778V738.778C322.445 737.245 321.836 735.776 320.752 734.692C319.669 733.609 318.199 733 316.667 733ZM316.667 790.778H247.333V744.556H268.451C269.984 744.556 271.453 743.947 272.537 742.863C273.62 741.78 274.229 740.31 274.229 738.778H247.333V727.222H266.082L273.622 737.593C273.891 737.961 274.243 738.261 274.65 738.466C275.057 738.672 275.507 738.779 275.962 738.778H316.667V790.778Z" fill="#BE8D6A"/>
<path d="M214.041 829.58C214.891 829.58 215.506 829.653 215.887 829.8C216.268 829.937 216.458 830.171 216.458 830.503V834.224C216.458 834.556 216.268 834.795 215.887 834.941C215.506 835.078 214.891 835.146 214.041 835.146C213.191 835.146 212.576 835.078 212.195 834.941C211.814 834.795 211.624 834.556 211.624 834.224V830.503C211.624 830.171 211.814 829.937 212.195 829.8C212.576 829.653 213.191 829.58 214.041 829.58ZM236.38 814.507C237.034 814.507 237.581 814.614 238.021 814.829C238.47 815.044 238.694 815.317 238.694 815.649C238.694 815.757 238.675 815.854 238.636 815.942L228.88 839.644C228.704 840.063 228.304 840.273 227.679 840.273C227.024 840.273 226.473 840.166 226.023 839.951C225.584 839.736 225.364 839.463 225.364 839.131C225.364 839.023 225.384 838.926 225.423 838.838L235.179 815.137C235.354 814.717 235.755 814.507 236.38 814.507ZM250.018 817.29C251.619 817.29 253.03 817.656 254.251 818.389C255.472 819.111 256.414 820.156 257.078 821.523C257.752 822.881 258.089 824.473 258.089 826.299C258.089 828.125 257.752 829.722 257.078 831.089C256.414 832.446 255.472 833.491 254.251 834.224C253.03 834.956 251.619 835.322 250.018 835.322C248.416 835.322 247.005 834.956 245.784 834.224C244.563 833.491 243.616 832.446 242.942 831.089C242.278 829.722 241.946 828.125 241.946 826.299C241.946 824.473 242.278 822.881 242.942 821.523C243.616 820.156 244.563 819.111 245.784 818.389C247.005 817.656 248.416 817.29 250.018 817.29ZM250.018 820.615C248.66 820.615 247.63 821.104 246.927 822.08C246.224 823.057 245.872 824.463 245.872 826.299C245.872 828.135 246.224 829.546 246.927 830.532C247.63 831.509 248.66 831.997 250.018 831.997C251.375 831.997 252.405 831.509 253.108 830.532C253.812 829.546 254.163 828.135 254.163 826.299C254.163 824.463 253.812 823.057 253.108 822.08C252.405 821.104 251.375 820.615 250.018 820.615ZM275.345 817.612C275.579 817.612 275.76 817.656 275.887 817.744C276.014 817.822 276.106 817.969 276.165 818.184C276.233 818.398 276.268 818.711 276.268 819.121C276.268 819.531 276.233 819.844 276.165 820.059C276.106 820.273 276.014 820.42 275.887 820.498C275.76 820.576 275.579 820.615 275.345 820.615H274.656V828.95C274.656 830.298 274.388 831.45 273.851 832.407C273.313 833.364 272.547 834.092 271.551 834.59C270.555 835.078 269.373 835.322 268.006 835.322C266.639 835.322 265.457 835.078 264.461 834.59C263.465 834.092 262.698 833.364 262.161 832.407C261.624 831.45 261.355 830.298 261.355 828.95V820.615H260.667C260.433 820.615 260.252 820.576 260.125 820.498C259.998 820.42 259.9 820.273 259.832 820.059C259.773 819.844 259.744 819.531 259.744 819.121C259.744 818.711 259.773 818.398 259.832 818.184C259.9 817.969 259.998 817.822 260.125 817.744C260.252 817.656 260.433 817.612 260.667 817.612H266.146C266.38 817.612 266.561 817.656 266.688 817.744C266.814 817.822 266.907 817.969 266.966 818.184C267.034 818.398 267.068 818.711 267.068 819.121C267.068 819.531 267.034 819.844 266.966 820.059C266.907 820.273 266.814 820.42 266.688 820.498C266.561 820.576 266.38 820.615 266.146 820.615H265.018V828.657C265.018 829.78 265.286 830.62 265.823 831.177C266.36 831.724 267.088 831.997 268.006 831.997C268.924 831.997 269.651 831.724 270.188 831.177C270.726 830.62 270.994 829.78 270.994 828.657V820.615H269.866C269.632 820.615 269.451 820.576 269.324 820.498C269.197 820.42 269.1 820.273 269.031 820.059C268.973 819.844 268.943 819.531 268.943 819.121C268.943 818.711 268.973 818.398 269.031 818.184C269.1 817.969 269.197 817.822 269.324 817.744C269.451 817.656 269.632 817.612 269.866 817.612H275.345ZM292.601 817.612C292.942 817.612 293.187 817.686 293.333 817.832C293.479 817.979 293.553 818.223 293.553 818.564V824.746C293.553 825.068 293.416 825.303 293.143 825.449C292.879 825.596 292.469 825.669 291.912 825.669C291.375 825.669 290.999 825.601 290.784 825.464C290.579 825.317 290.477 825.078 290.477 824.746V820.762H287.825V831.997H290.989C291.224 831.997 291.404 832.041 291.531 832.129C291.658 832.207 291.751 832.354 291.81 832.568C291.878 832.783 291.912 833.096 291.912 833.506C291.912 833.916 291.878 834.229 291.81 834.443C291.751 834.658 291.658 834.805 291.531 834.883C291.404 834.961 291.224 835 290.989 835H280.999C280.765 835 280.584 834.961 280.457 834.883C280.33 834.805 280.232 834.658 280.164 834.443C280.105 834.229 280.076 833.916 280.076 833.506C280.076 833.096 280.105 832.783 280.164 832.568C280.232 832.354 280.33 832.207 280.457 832.129C280.584 832.041 280.765 831.997 280.999 831.997H284.163V820.762H281.512V824.746C281.512 825.068 281.375 825.303 281.102 825.449C280.838 825.596 280.428 825.669 279.871 825.669C279.334 825.669 278.958 825.601 278.743 825.464C278.538 825.317 278.436 825.078 278.436 824.746V818.564C278.436 818.223 278.509 817.979 278.655 817.832C278.812 817.686 279.056 817.612 279.388 817.612H292.601ZM304.803 817.612C307.049 817.612 308.748 818.12 309.9 819.136C311.062 820.142 311.644 821.597 311.644 823.501C311.644 825.405 311.062 826.865 309.9 827.881C308.748 828.896 307.049 829.404 304.803 829.404H302.605V831.997H305.784C306.019 831.997 306.199 832.041 306.326 832.129C306.453 832.207 306.546 832.354 306.604 832.568C306.673 832.783 306.707 833.096 306.707 833.506C306.707 833.916 306.673 834.229 306.604 834.443C306.546 834.658 306.453 834.805 306.326 834.883C306.199 834.961 306.019 835 305.784 835H296.79C296.556 835 296.375 834.961 296.248 834.883C296.121 834.805 296.023 834.658 295.955 834.443C295.896 834.229 295.867 833.916 295.867 833.506C295.867 833.096 295.896 832.783 295.955 832.568C296.023 832.354 296.121 832.207 296.248 832.129C296.375 832.041 296.556 831.997 296.79 831.997H298.943V820.615H296.79C296.556 820.615 296.375 820.576 296.248 820.498C296.121 820.42 296.023 820.273 295.955 820.059C295.896 819.844 295.867 819.531 295.867 819.121C295.867 818.711 295.896 818.398 295.955 818.184C296.023 817.969 296.121 817.822 296.248 817.744C296.375 817.656 296.556 817.612 296.79 817.612H304.803ZM302.605 826.255H304.349C305.511 826.255 306.385 826.03 306.971 825.581C307.566 825.132 307.864 824.438 307.864 823.501C307.864 822.563 307.566 821.875 306.971 821.436C306.385 820.986 305.511 820.762 304.349 820.762H302.605V826.255ZM329.31 817.612C329.544 817.612 329.725 817.656 329.852 817.744C329.979 817.822 330.071 817.969 330.13 818.184C330.198 818.398 330.232 818.711 330.232 819.121C330.232 819.531 330.198 819.844 330.13 820.059C330.071 820.273 329.979 820.42 329.852 820.498C329.725 820.576 329.544 820.615 329.31 820.615H328.621V828.95C328.621 830.298 328.353 831.45 327.815 832.407C327.278 833.364 326.512 834.092 325.516 834.59C324.52 835.078 323.338 835.322 321.971 835.322C320.604 835.322 319.422 835.078 318.426 834.59C317.43 834.092 316.663 833.364 316.126 832.407C315.589 831.45 315.32 830.298 315.32 828.95V820.615H314.632C314.397 820.615 314.217 820.576 314.09 820.498C313.963 820.42 313.865 820.273 313.797 820.059C313.738 819.844 313.709 819.531 313.709 819.121C313.709 818.711 313.738 818.398 313.797 818.184C313.865 817.969 313.963 817.822 314.09 817.744C314.217 817.656 314.397 817.612 314.632 817.612H320.11C320.345 817.612 320.525 817.656 320.652 817.744C320.779 817.822 320.872 817.969 320.931 818.184C320.999 818.398 321.033 818.711 321.033 819.121C321.033 819.531 320.999 819.844 320.931 820.059C320.872 820.273 320.779 820.42 320.652 820.498C320.525 820.576 320.345 820.615 320.11 820.615H318.982V828.657C318.982 829.78 319.251 830.62 319.788 831.177C320.325 831.724 321.053 831.997 321.971 831.997C322.889 831.997 323.616 831.724 324.153 831.177C324.69 830.62 324.959 829.78 324.959 828.657V820.615H323.831C323.597 820.615 323.416 820.576 323.289 820.498C323.162 820.42 323.064 820.273 322.996 820.059C322.938 819.844 322.908 819.531 322.908 819.121C322.908 818.711 322.938 818.398 322.996 818.184C323.064 817.969 323.162 817.822 323.289 817.744C323.416 817.656 323.597 817.612 323.831 817.612H329.31ZM346.565 817.612C346.907 817.612 347.151 817.686 347.298 817.832C347.444 817.979 347.518 818.223 347.518 818.564V824.746C347.518 825.068 347.381 825.303 347.107 825.449C346.844 825.596 346.434 825.669 345.877 825.669C345.34 825.669 344.964 825.601 344.749 825.464C344.544 825.317 344.441 825.078 344.441 824.746V820.762H341.79V831.997H344.954C345.188 831.997 345.369 832.041 345.496 832.129C345.623 832.207 345.716 832.354 345.774 832.568C345.843 832.783 345.877 833.096 345.877 833.506C345.877 833.916 345.843 834.229 345.774 834.443C345.716 834.658 345.623 834.805 345.496 834.883C345.369 834.961 345.188 835 344.954 835H334.964C334.729 835 334.549 834.961 334.422 834.883C334.295 834.805 334.197 834.658 334.129 834.443C334.07 834.229 334.041 833.916 334.041 833.506C334.041 833.096 334.07 832.783 334.129 832.568C334.197 832.354 334.295 832.207 334.422 832.129C334.549 832.041 334.729 831.997 334.964 831.997H338.128V820.762H335.477V824.746C335.477 825.068 335.34 825.303 335.066 825.449C334.803 825.596 334.393 825.669 333.836 825.669C333.299 825.669 332.923 825.601 332.708 825.464C332.503 825.317 332.4 825.078 332.4 824.746V818.564C332.4 818.223 332.474 817.979 332.62 817.832C332.776 817.686 333.021 817.612 333.353 817.612H346.565Z" fill="#BE8D6A"/>
</svg>
