<svg width="2086" height="3232" viewBox="0 0 2086 3232" fill="none" xmlns="http://www.w3.org/2000/svg">
<g id="build-pipeline-overview">
<g id="Group 12">
<g id="Component 1">
<g id="Component 1_2">
<path id="Vector" d="M1118.58 1908C1142.46 1925.45 1160.37 1952.54 1167.57 1982.84C1174.76 2013.3 1171.09 2047.13 1152.26 2065.19C1133.43 2083.25 1099.44 2085.39 1072.04 2087.54C1044.48 2089.68 1023.66 2091.97 1005.6 2085.55C987.687 2079.27 972.684 2064.42 958.294 2046.06C943.903 2027.69 930.125 2005.65 931.043 1983.92C931.962 1962.18 947.73 1940.6 967.479 1922.23C987.228 1904.02 1011.26 1889.17 1038.21 1885.81C1065 1882.29 1094.7 1890.4 1118.58 1908Z" fill="#F1E3D9" fill-opacity="0.3"/>
<g id="Group 10">
<path id="Vector 8" d="M999 1999.14V2036.69H1025.5V2004.1L1020.57 1999.14H999Z" fill="#BE8D6A" stroke="#F1EDED"/>
<path id="Vector 9" d="M994 2004.15V2041.7H1020.5V2009.11L1015.57 2004.15H994Z" fill="#BE8D6A" stroke="#F1EDED"/>
<g id="Frame" clip-path="url(#clip0)">
<path id="Vector_2" d="M1004.82 2025.24C1005.78 2025.24 1006.12 2024.55 1006.12 2024.55L1005.57 2024.21C1005.57 2024.21 1005.37 2024.55 1004.89 2024.55C1004.41 2024.55 1004.06 2023.93 1004.06 2023.04C1004.06 2022.21 1004.47 2021.8 1004.89 2021.8C1005.23 2021.8 1005.51 2022.07 1005.51 2022.07L1006.06 2021.66C1006.06 2021.66 1005.57 2021.11 1004.89 2021.11C1004.13 2021.11 1003.38 2021.73 1003.38 2023.04C1003.38 2024.34 1003.99 2025.24 1004.82 2025.24ZM1007.98 2024.48C1007.78 2024.55 1007.5 2024.48 1007.29 2024.21L1006.74 2024.55C1007.02 2024.96 1007.43 2025.24 1007.84 2025.24C1007.91 2025.24 1008.05 2025.24 1008.12 2025.17C1008.6 2025.03 1008.88 2024.62 1008.88 2024.07C1008.88 2023.24 1008.32 2022.97 1007.98 2022.83C1007.64 2022.62 1007.5 2022.55 1007.5 2022.28C1007.5 2022 1007.57 2021.8 1007.91 2021.8C1008.12 2021.8 1008.32 2022.07 1008.32 2022.07L1008.88 2021.66C1008.74 2021.45 1008.39 2021.11 1007.91 2021.11C1007.29 2021.11 1006.81 2021.52 1006.81 2022.21C1006.81 2022.97 1007.29 2023.24 1007.64 2023.45C1008.05 2023.59 1008.19 2023.72 1008.19 2024.07C1008.19 2024.27 1008.19 2024.48 1007.98 2024.48ZM1010.73 2024.48C1010.52 2024.55 1010.25 2024.48 1010.04 2024.21L1009.49 2024.55C1009.77 2024.96 1010.18 2025.24 1010.59 2025.24C1010.66 2025.24 1010.8 2025.24 1010.87 2025.17C1011.35 2025.03 1011.62 2024.62 1011.62 2024.07C1011.62 2023.24 1011.07 2022.97 1010.73 2022.83C1010.39 2022.62 1010.25 2022.55 1010.25 2022.28C1010.25 2022 1010.32 2021.8 1010.66 2021.8C1010.87 2021.8 1011.07 2022.07 1011.07 2022.07L1011.62 2021.66C1011.49 2021.45 1011.14 2021.11 1010.66 2021.11C1010.04 2021.11 1009.56 2021.52 1009.56 2022.21C1009.56 2022.97 1010.04 2023.24 1010.39 2023.45C1010.8 2023.59 1010.94 2023.72 1010.94 2024.07C1010.94 2024.27 1010.94 2024.48 1010.73 2024.48ZM1002 2017.67V2028.68H1013V2017.67H1002ZM1012.31 2027.99H1002.69V2018.35H1012.31V2027.99Z" fill="white"/>
</g>
</g>
<g id="Group 9">
<path id="Vector 4" d="M1017 1916.54V1954.09H1043.5V1921.5L1038.57 1916.54H1017Z" fill="#BE8D6A" stroke="#F1EDED"/>
<path id="Vector 5" d="M1012 1921.05V1958.59H1038.5V1926.01L1033.57 1921.05H1012Z" fill="#BE8D6A" stroke="#F1EDED"/>
<path id="Vector 6" d="M1007 1926.05V1963.6H1033.5V1931.01L1028.57 1926.05H1007Z" fill="#BE8D6A" stroke="#F1EDED"/>
<path id="Vector_3" d="M1013.63 1941.57C1013.28 1941.57 1013 1941.86 1013 1942.22V1947.43C1013 1947.79 1013.28 1948.08 1013.63 1948.08H1027.37C1027.72 1948.08 1028 1947.79 1028 1947.43V1942.22C1028 1941.86 1027.72 1941.57 1027.37 1941.57H1013.63ZM1023.27 1942.8L1024.6 1944.18L1025.93 1942.8L1026.4 1943.28L1025.07 1944.66L1026.37 1946L1025.9 1946.48L1024.6 1945.14L1023.3 1946.48L1022.84 1946L1024.14 1944.66L1022.8 1943.28L1023.27 1942.8ZM1020.25 1942.84H1020.91V1945.41L1021.82 1944.5L1022.28 1944.99L1020.58 1946.7L1018.95 1944.99L1019.42 1944.51L1020.25 1945.38V1942.84H1020.25ZM1014.48 1942.94L1016.26 1944.74L1018.06 1942.95V1946.53H1017.39V1944.59L1016.25 1945.72L1015.16 1944.6V1946.53H1014.48V1942.94V1942.94Z" fill="white"/>
</g>
<g id="Group 7">
<path id="Vector 1" d="M1086 1937V1974.55H1112.5V1941.96L1107.57 1937H1086Z" fill="#BE8D6A" stroke="#F1EDED"/>
<path id="Vector 2" d="M1081 1941.51V1979.05H1107.5V1946.47L1102.57 1941.51H1081Z" fill="#BE8D6A" stroke="#F1EDED"/>
<path id="Vector 3" d="M1076 1946.51V1984.06H1102.5V1951.47L1097.57 1946.51H1076Z" fill="#BE8D6A" stroke="#F1EDED"/>
<g id="Group 6">
<path id="Vector_4" d="M1089.5 1966.45C1090.09 1966.45 1090.57 1965.97 1090.57 1965.37C1090.57 1964.78 1090.09 1964.3 1089.5 1964.3C1088.91 1964.3 1088.43 1964.78 1088.43 1965.37C1088.43 1965.97 1088.91 1966.45 1089.5 1966.45Z" fill="white"/>
<path id="Vector_5" d="M1086.5 1967.5L1086.27 1967.44C1084.51 1967 1083.5 1966.24 1083.5 1965.37C1083.5 1964.5 1084.51 1963.74 1086.27 1963.3L1086.5 1963.24L1086.57 1963.47C1086.75 1964.09 1086.98 1964.69 1087.25 1965.26L1087.3 1965.37L1087.25 1965.48C1086.98 1966.06 1086.75 1966.66 1086.57 1967.27L1086.5 1967.5ZM1086.16 1963.85C1084.82 1964.22 1084 1964.8 1084 1965.37C1084 1965.94 1084.82 1966.52 1086.16 1966.9C1086.32 1966.38 1086.52 1965.87 1086.75 1965.37C1086.52 1964.88 1086.32 1964.37 1086.16 1963.85ZM1092.5 1967.5L1092.43 1967.27C1092.25 1966.65 1092.02 1966.06 1091.75 1965.48L1091.7 1965.37L1091.75 1965.26C1092.02 1964.69 1092.25 1964.09 1092.43 1963.47L1092.5 1963.24L1092.73 1963.3C1094.49 1963.74 1095.5 1964.5 1095.5 1965.37C1095.5 1966.24 1094.49 1967 1092.73 1967.44L1092.5 1967.5ZM1092.25 1965.37C1092.49 1965.89 1092.69 1966.4 1092.84 1966.9C1094.18 1966.52 1095 1965.94 1095 1965.37C1095 1964.8 1094.18 1964.22 1092.84 1963.85C1092.68 1964.37 1092.48 1964.88 1092.25 1965.37Z" fill="white"/>
<path id="Vector_6" d="M1086.15 1963.84L1086.08 1963.61C1085.59 1961.86 1085.74 1960.61 1086.5 1960.18C1087.24 1959.75 1088.43 1960.26 1089.67 1961.54L1089.84 1961.71L1089.67 1961.89C1089.23 1962.35 1088.83 1962.85 1088.46 1963.37L1088.4 1963.47L1088.28 1963.48C1087.64 1963.53 1087.01 1963.63 1086.39 1963.78L1086.15 1963.84ZM1087.1 1960.53C1086.96 1960.53 1086.85 1960.55 1086.75 1960.61C1086.25 1960.9 1086.16 1961.9 1086.5 1963.24C1087.04 1963.12 1087.58 1963.04 1088.12 1962.99C1088.43 1962.54 1088.78 1962.12 1089.15 1961.72C1088.36 1960.96 1087.63 1960.53 1087.1 1960.53ZM1091.89 1970.72C1091.18 1970.72 1090.27 1970.18 1089.32 1969.21L1089.15 1969.03L1089.32 1968.86C1089.76 1968.39 1090.16 1967.9 1090.53 1967.37L1090.59 1967.27L1090.71 1967.26C1091.35 1967.21 1091.98 1967.11 1092.6 1966.96L1092.84 1966.9L1092.91 1967.13C1093.4 1968.88 1093.25 1970.13 1092.49 1970.56C1092.31 1970.67 1092.1 1970.72 1091.89 1970.72ZM1089.84 1969.03C1090.63 1969.79 1091.36 1970.22 1091.89 1970.22C1092.03 1970.22 1092.15 1970.19 1092.25 1970.13C1092.74 1969.84 1092.83 1968.85 1092.49 1967.5C1091.95 1967.62 1091.41 1967.7 1090.87 1967.75C1090.56 1968.2 1090.21 1968.62 1089.84 1969.03Z" fill="white"/>
<path id="Vector_7" d="M1092.84 1963.84L1092.6 1963.78C1091.98 1963.63 1091.35 1963.53 1090.71 1963.48L1090.59 1963.47L1090.53 1963.37C1090.16 1962.84 1089.76 1962.35 1089.32 1961.89L1089.15 1961.71L1089.32 1961.54C1090.56 1960.26 1091.75 1959.75 1092.49 1960.18C1093.25 1960.61 1093.4 1961.86 1092.91 1963.61L1092.84 1963.84ZM1090.87 1962.99C1091.44 1963.04 1091.98 1963.13 1092.49 1963.24C1092.83 1961.9 1092.74 1960.9 1092.25 1960.61C1091.75 1960.33 1090.82 1960.76 1089.85 1961.72C1090.21 1962.12 1090.56 1962.54 1090.87 1962.99ZM1087.1 1970.72C1086.89 1970.72 1086.68 1970.67 1086.5 1970.56C1085.74 1970.13 1085.59 1968.88 1086.08 1967.13L1086.15 1966.9L1086.39 1966.96C1086.96 1967.1 1087.6 1967.21 1088.28 1967.26L1088.39 1967.27L1088.46 1967.37C1088.82 1967.9 1089.23 1968.39 1089.67 1968.86L1089.84 1969.03L1089.67 1969.21C1088.72 1970.18 1087.81 1970.72 1087.1 1970.72ZM1086.5 1967.5C1086.16 1968.85 1086.25 1969.84 1086.75 1970.13C1087.24 1970.41 1088.17 1969.98 1089.15 1969.03C1088.78 1968.62 1088.43 1968.2 1088.12 1967.75C1087.58 1967.7 1087.04 1967.62 1086.5 1967.5Z" fill="white"/>
<path id="Vector_8" d="M1089.5 1967.82C1089.08 1967.82 1088.66 1967.8 1088.24 1967.76L1088.12 1967.75L1088.05 1967.66C1087.81 1967.31 1087.59 1966.96 1087.38 1966.59C1087.17 1966.23 1086.97 1965.86 1086.8 1965.48L1086.75 1965.37L1086.8 1965.26C1086.97 1964.88 1087.17 1964.51 1087.38 1964.15C1087.59 1963.79 1087.81 1963.43 1088.05 1963.09L1088.12 1962.99L1088.24 1962.98C1089.08 1962.91 1089.92 1962.91 1090.75 1962.98L1090.87 1962.99L1090.94 1963.09C1091.42 1963.78 1091.84 1964.51 1092.2 1965.26L1092.25 1965.37L1092.2 1965.48C1091.84 1966.24 1091.42 1966.97 1090.94 1967.66L1090.87 1967.75L1090.75 1967.76C1090.33 1967.8 1089.91 1967.82 1089.5 1967.82ZM1088.4 1967.27C1089.14 1967.33 1089.86 1967.33 1090.6 1967.27C1091.01 1966.67 1091.38 1966.03 1091.69 1965.37C1091.38 1964.71 1091.01 1964.08 1090.6 1963.47C1089.86 1963.41 1089.13 1963.41 1088.4 1963.47C1087.98 1964.07 1087.62 1964.71 1087.3 1965.37C1087.62 1966.03 1087.98 1966.67 1088.4 1967.27Z" fill="white"/>
</g>
</g>
<g id="Group 8">
<path id="Vector 13" d="M1066 2004.65V2042.2H1092.5V2009.61L1087.57 2004.65H1066Z" fill="#BE8D6A" stroke="#F1EDED"/>
<path id="Vector 14" d="M1061 2009.66V2047.2H1087.5V2014.62L1082.57 2009.66H1061Z" fill="#BE8D6A" stroke="#F1EDED"/>
<g id="Group">
<path id="Vector_9" fill-rule="evenodd" clip-rule="evenodd" d="M1069 2023.17V2026.68H1079.5V2023.17H1069ZM1078.33 2024.34H1070.17V2025.51H1078.33V2024.34Z" fill="white"/>
<path id="Vector_10" fill-rule="evenodd" clip-rule="evenodd" d="M1069 2027.84V2033.69H1073.67V2027.84H1069ZM1072.5 2029.01H1070.17V2032.52H1072.5V2029.01Z" fill="white"/>
<path id="Vector_11" d="M1079.5 2027.84H1074.83V2029.01H1079.5V2027.84Z" fill="white"/>
<path id="Vector_12" d="M1074.83 2030.18H1079.5V2031.35H1074.83V2030.18Z" fill="white"/>
<path id="Vector_13" d="M1079.5 2032.52H1074.83V2033.69H1079.5V2032.52Z" fill="white"/>
</g>
</g>
<g id="InfoRectangle">
<rect id="Rectangle 21" x="968" y="2114" width="167.5" height="70.0876" fill="#BE8D6A"/>
<path id="GENERATE PAGE SOURCES" d="M1011.37 2141.42C1013.71 2141.42 1015.43 2141.85 1016.53 2142.7C1017.65 2143.54 1018.21 2144.83 1018.21 2146.56C1018.21 2147.34 1018.06 2148.03 1017.75 2148.62C1017.47 2149.2 1017.07 2149.7 1016.58 2150.11C1016.1 2150.51 1015.58 2150.84 1015.02 2151.1L1020.06 2158.56H1016.03L1011.95 2151.98H1010V2158.56H1006.38V2141.42H1011.37ZM1011.11 2144.4H1010V2149.03H1011.18C1012.38 2149.03 1013.23 2148.83 1013.75 2148.43C1014.27 2148.03 1014.54 2147.44 1014.54 2146.66C1014.54 2145.84 1014.26 2145.26 1013.7 2144.93C1013.15 2144.58 1012.29 2144.4 1011.11 2144.4ZM1037.77 2149.97C1037.77 2151.74 1037.48 2153.3 1036.89 2154.62C1036.31 2155.94 1035.42 2156.96 1034.22 2157.7C1033.02 2158.43 1031.49 2158.8 1029.61 2158.8C1027.76 2158.8 1026.22 2158.43 1025.01 2157.7C1023.81 2156.96 1022.91 2155.93 1022.32 2154.6C1021.74 2153.27 1021.45 2151.72 1021.45 2149.94C1021.45 2148.17 1021.74 2146.62 1022.32 2145.31C1022.91 2144 1023.81 2142.98 1025.01 2142.26C1026.22 2141.53 1027.77 2141.16 1029.64 2141.16C1031.49 2141.16 1033.02 2141.53 1034.22 2142.26C1035.42 2142.98 1036.31 2144.01 1036.89 2145.34C1037.48 2146.65 1037.77 2148.19 1037.77 2149.97ZM1025.27 2149.97C1025.27 2151.76 1025.61 2153.18 1026.3 2154.22C1026.99 2155.24 1028.09 2155.75 1029.61 2155.75C1031.17 2155.75 1032.28 2155.24 1032.95 2154.22C1033.62 2153.18 1033.96 2151.76 1033.96 2149.97C1033.96 2148.16 1033.62 2146.74 1032.95 2145.72C1032.28 2144.7 1031.17 2144.18 1029.64 2144.18C1028.1 2144.18 1026.99 2144.7 1026.3 2145.72C1025.61 2146.74 1025.27 2148.16 1025.27 2149.97ZM1041.32 2158.56V2141.42H1044.95V2155.56H1051.91V2158.56H1041.32ZM1054.89 2158.56V2141.42H1058.52V2155.56H1065.48V2158.56H1054.89ZM1082.17 2152.51C1082.17 2153.7 1081.91 2154.77 1081.38 2155.73C1080.87 2156.67 1080.09 2157.42 1079.03 2157.98C1077.99 2158.53 1076.67 2158.8 1075.07 2158.8C1072.8 2158.8 1071.07 2158.22 1069.89 2157.07C1068.7 2155.9 1068.11 2154.37 1068.11 2152.46V2141.42H1071.73V2151.91C1071.73 2153.32 1072.02 2154.31 1072.6 2154.89C1073.17 2155.46 1074.03 2155.75 1075.17 2155.75C1076.35 2155.75 1077.21 2155.44 1077.73 2154.82C1078.28 2154.19 1078.55 2153.22 1078.55 2151.89V2141.42H1082.17V2152.51ZM1091.84 2141.42C1094.05 2141.42 1095.66 2141.9 1096.67 2142.86C1097.69 2143.81 1098.2 2145.11 1098.2 2146.78C1098.2 2147.77 1097.99 2148.7 1097.58 2149.58C1097.16 2150.45 1096.47 2151.14 1095.49 2151.67C1094.53 2152.2 1093.22 2152.46 1091.55 2152.46H1089.99V2158.56H1086.37V2141.42H1091.84ZM1091.65 2144.4H1089.99V2149.49H1091.19C1092.22 2149.49 1093.03 2149.29 1093.62 2148.89C1094.23 2148.47 1094.53 2147.81 1094.53 2146.9C1094.53 2145.23 1093.57 2144.4 1091.65 2144.4Z" fill="#F8F8F8"/>
</g>
<path id="Arrow 3" d="M1050.59 2106.41C1051.37 2107.2 1052.63 2107.2 1053.41 2106.41L1066.14 2093.69C1066.92 2092.91 1066.92 2091.64 1066.14 2090.86C1065.36 2090.08 1064.09 2090.08 1063.31 2090.86L1052 2102.17L1040.69 2090.86C1039.91 2090.08 1038.64 2090.08 1037.86 2090.86C1037.08 2091.64 1037.08 2092.91 1037.86 2093.69L1050.59 2106.41ZM1050 2072L1050 2105L1054 2105L1054 2072L1050 2072Z" fill="#BE8D6A"/>
<path id="Arrow 4" d="M1050.59 2220.41C1051.37 2221.2 1052.63 2221.2 1053.41 2220.41L1066.14 2207.69C1066.92 2206.91 1066.92 2205.64 1066.14 2204.86C1065.36 2204.08 1064.09 2204.08 1063.31 2204.86L1052 2216.17L1040.69 2204.86C1039.91 2204.08 1038.64 2204.08 1037.86 2204.86C1037.08 2205.64 1037.08 2206.91 1037.86 2207.69L1050.59 2220.41ZM1050 2191L1050 2219L1054 2219L1054 2191L1050 2191Z" fill="#BE8D6A"/>
<g id="directory-line 1">
<path id="Vector_14" d="M1069.33 2238.93H1049.72L1046.38 2234.33C1046.11 2233.96 1045.76 2233.66 1045.35 2233.46C1044.95 2233.25 1044.5 2233.14 1044.04 2233.14H1034.67C1033.9 2233.14 1033.17 2233.45 1032.62 2233.99C1032.08 2234.53 1031.78 2235.27 1031.78 2236.04V2267.85C1031.78 2268.62 1032.08 2269.36 1032.62 2269.9C1033.17 2270.44 1033.9 2270.75 1034.67 2270.75H1069.33C1070.1 2270.75 1070.83 2270.44 1071.38 2269.9C1071.92 2269.36 1072.22 2268.62 1072.22 2267.85V2241.82C1072.22 2241.06 1071.92 2240.32 1071.38 2239.78C1070.83 2239.23 1070.1 2238.93 1069.33 2238.93ZM1069.33 2267.85H1034.67V2244.71H1045.23C1045.99 2244.71 1046.73 2244.41 1047.27 2243.87C1047.81 2243.33 1048.11 2242.59 1048.11 2241.82H1034.67V2236.04H1044.04L1047.81 2241.23C1047.95 2241.41 1048.12 2241.56 1048.32 2241.67C1048.53 2241.77 1048.75 2241.82 1048.98 2241.82H1069.33V2267.85Z" fill="#BE8D6A"/>
</g>
<path id="./OUTPUT/&#60;PAGE&#62;" d="M967.055 2296.39C967.621 2296.39 968.031 2296.44 968.285 2296.53C968.539 2296.62 968.666 2296.78 968.666 2297V2299.48C968.666 2299.7 968.539 2299.86 968.285 2299.96C968.031 2300.05 967.621 2300.1 967.055 2300.1C966.488 2300.1 966.078 2300.05 965.824 2299.96C965.57 2299.86 965.443 2299.7 965.443 2299.48V2297C965.443 2296.78 965.57 2296.62 965.824 2296.53C966.078 2296.44 966.488 2296.39 967.055 2296.39ZM981.947 2286.34C982.383 2286.34 982.748 2286.41 983.041 2286.55C983.34 2286.7 983.49 2286.88 983.49 2287.1C983.49 2287.17 983.477 2287.24 983.451 2287.29L976.947 2303.1C976.83 2303.38 976.563 2303.52 976.146 2303.52C975.71 2303.52 975.342 2303.44 975.043 2303.3C974.75 2303.16 974.604 2302.98 974.604 2302.75C974.604 2302.68 974.617 2302.62 974.643 2302.56L981.146 2286.76C981.264 2286.48 981.531 2286.34 981.947 2286.34ZM991.039 2288.19C992.107 2288.19 993.048 2288.44 993.861 2288.93C994.675 2289.41 995.303 2290.1 995.746 2291.02C996.195 2291.92 996.42 2292.98 996.42 2294.2C996.42 2295.42 996.195 2296.48 995.746 2297.39C995.303 2298.3 994.675 2298.99 993.861 2299.48C993.048 2299.97 992.107 2300.21 991.039 2300.21C989.971 2300.21 989.031 2299.97 988.217 2299.48C987.403 2298.99 986.771 2298.3 986.322 2297.39C985.88 2296.48 985.658 2295.42 985.658 2294.2C985.658 2292.98 985.88 2291.92 986.322 2291.02C986.771 2290.1 987.403 2289.41 988.217 2288.93C989.031 2288.44 989.971 2288.19 991.039 2288.19ZM991.039 2290.41C990.134 2290.41 989.447 2290.74 988.979 2291.39C988.51 2292.04 988.275 2292.98 988.275 2294.2C988.275 2295.42 988.51 2296.36 988.979 2297.02C989.447 2297.67 990.134 2298 991.039 2298C991.944 2298 992.631 2297.67 993.1 2297.02C993.568 2296.36 993.803 2295.42 993.803 2294.2C993.803 2292.98 993.568 2292.04 993.1 2291.39C992.631 2290.74 991.944 2290.41 991.039 2290.41ZM1007.92 2288.41C1008.08 2288.41 1008.2 2288.44 1008.29 2288.5C1008.37 2288.55 1008.43 2288.65 1008.47 2288.79C1008.52 2288.93 1008.54 2289.14 1008.54 2289.41C1008.54 2289.69 1008.52 2289.9 1008.47 2290.04C1008.43 2290.18 1008.37 2290.28 1008.29 2290.33C1008.2 2290.38 1008.08 2290.41 1007.92 2290.41H1007.46V2295.97C1007.46 2296.87 1007.29 2297.63 1006.93 2298.27C1006.57 2298.91 1006.06 2299.39 1005.39 2299.73C1004.73 2300.05 1003.94 2300.21 1003.03 2300.21C1002.12 2300.21 1001.33 2300.05 1000.67 2299.73C1000 2299.39 999.493 2298.91 999.135 2298.27C998.777 2297.63 998.598 2296.87 998.598 2295.97V2290.41H998.139C997.982 2290.41 997.862 2290.38 997.777 2290.33C997.693 2290.28 997.628 2290.18 997.582 2290.04C997.543 2289.9 997.523 2289.69 997.523 2289.41C997.523 2289.14 997.543 2288.93 997.582 2288.79C997.628 2288.65 997.693 2288.55 997.777 2288.5C997.862 2288.44 997.982 2288.41 998.139 2288.41H1001.79C1001.95 2288.41 1002.07 2288.44 1002.15 2288.5C1002.24 2288.55 1002.3 2288.65 1002.34 2288.79C1002.38 2288.93 1002.41 2289.14 1002.41 2289.41C1002.41 2289.69 1002.38 2289.9 1002.34 2290.04C1002.3 2290.18 1002.24 2290.28 1002.15 2290.33C1002.07 2290.38 1001.95 2290.41 1001.79 2290.41H1001.04V2295.77C1001.04 2296.52 1001.22 2297.08 1001.58 2297.45C1001.93 2297.82 1002.42 2298 1003.03 2298C1003.64 2298 1004.13 2297.82 1004.49 2297.45C1004.84 2297.08 1005.02 2296.52 1005.02 2295.77V2290.41H1004.27C1004.12 2290.41 1003.99 2290.38 1003.91 2290.33C1003.83 2290.28 1003.76 2290.18 1003.71 2290.04C1003.68 2289.9 1003.66 2289.69 1003.66 2289.41C1003.66 2289.14 1003.68 2288.93 1003.71 2288.79C1003.76 2288.65 1003.83 2288.55 1003.91 2288.5C1003.99 2288.44 1004.12 2288.41 1004.27 2288.41H1007.92ZM1019.43 2288.41C1019.66 2288.41 1019.82 2288.46 1019.92 2288.55C1020.01 2288.65 1020.06 2288.82 1020.06 2289.04V2293.16C1020.06 2293.38 1019.97 2293.54 1019.79 2293.63C1019.61 2293.73 1019.34 2293.78 1018.97 2293.78C1018.61 2293.78 1018.36 2293.73 1018.22 2293.64C1018.08 2293.54 1018.01 2293.39 1018.01 2293.16V2290.51H1016.24V2298H1018.35C1018.51 2298 1018.63 2298.03 1018.71 2298.09C1018.8 2298.14 1018.86 2298.24 1018.9 2298.38C1018.95 2298.52 1018.97 2298.73 1018.97 2299C1018.97 2299.28 1018.95 2299.49 1018.9 2299.63C1018.86 2299.77 1018.8 2299.87 1018.71 2299.92C1018.63 2299.97 1018.51 2300 1018.35 2300H1011.69C1011.54 2300 1011.42 2299.97 1011.33 2299.92C1011.25 2299.87 1011.18 2299.77 1011.14 2299.63C1011.1 2299.49 1011.08 2299.28 1011.08 2299C1011.08 2298.73 1011.1 2298.52 1011.14 2298.38C1011.18 2298.24 1011.25 2298.14 1011.33 2298.09C1011.42 2298.03 1011.54 2298 1011.69 2298H1013.8V2290.51H1012.04V2293.16C1012.04 2293.38 1011.94 2293.54 1011.76 2293.63C1011.59 2293.73 1011.31 2293.78 1010.94 2293.78C1010.58 2293.78 1010.33 2293.73 1010.19 2293.64C1010.05 2293.54 1009.98 2293.39 1009.98 2293.16V2289.04C1009.98 2288.82 1010.03 2288.65 1010.13 2288.55C1010.24 2288.46 1010.4 2288.41 1010.62 2288.41H1019.43ZM1027.56 2288.41C1029.06 2288.41 1030.19 2288.75 1030.96 2289.42C1031.74 2290.09 1032.12 2291.06 1032.12 2292.33C1032.12 2293.6 1031.74 2294.58 1030.96 2295.25C1030.19 2295.93 1029.06 2296.27 1027.56 2296.27H1026.1V2298H1028.22C1028.37 2298 1028.49 2298.03 1028.58 2298.09C1028.66 2298.14 1028.72 2298.24 1028.76 2298.38C1028.81 2298.52 1028.83 2298.73 1028.83 2299C1028.83 2299.28 1028.81 2299.49 1028.76 2299.63C1028.72 2299.77 1028.66 2299.87 1028.58 2299.92C1028.49 2299.97 1028.37 2300 1028.22 2300H1022.22C1022.06 2300 1021.94 2299.97 1021.86 2299.92C1021.77 2299.87 1021.71 2299.77 1021.66 2299.63C1021.62 2299.49 1021.61 2299.28 1021.61 2299C1021.61 2298.73 1021.62 2298.52 1021.66 2298.38C1021.71 2298.24 1021.77 2298.14 1021.86 2298.09C1021.94 2298.03 1022.06 2298 1022.22 2298H1023.66V2290.41H1022.22C1022.06 2290.41 1021.94 2290.38 1021.86 2290.33C1021.77 2290.28 1021.71 2290.18 1021.66 2290.04C1021.62 2289.9 1021.61 2289.69 1021.61 2289.41C1021.61 2289.14 1021.62 2288.93 1021.66 2288.79C1021.71 2288.65 1021.77 2288.55 1021.86 2288.5C1021.94 2288.44 1022.06 2288.41 1022.22 2288.41H1027.56ZM1026.1 2294.17H1027.26C1028.03 2294.17 1028.62 2294.02 1029.01 2293.72C1029.4 2293.42 1029.6 2292.96 1029.6 2292.33C1029.6 2291.71 1029.4 2291.25 1029.01 2290.96C1028.62 2290.66 1028.03 2290.51 1027.26 2290.51H1026.1V2294.17ZM1043.9 2288.41C1044.06 2288.41 1044.18 2288.44 1044.26 2288.5C1044.35 2288.55 1044.41 2288.65 1044.45 2288.79C1044.49 2288.93 1044.52 2289.14 1044.52 2289.41C1044.52 2289.69 1044.49 2289.9 1044.45 2290.04C1044.41 2290.18 1044.35 2290.28 1044.26 2290.33C1044.18 2290.38 1044.06 2290.41 1043.9 2290.41H1043.44V2295.97C1043.44 2296.87 1043.26 2297.63 1042.9 2298.27C1042.55 2298.91 1042.04 2299.39 1041.37 2299.73C1040.71 2300.05 1039.92 2300.21 1039.01 2300.21C1038.1 2300.21 1037.31 2300.05 1036.64 2299.73C1035.98 2299.39 1035.47 2298.91 1035.11 2298.27C1034.75 2297.63 1034.57 2296.87 1034.57 2295.97V2290.41H1034.12C1033.96 2290.41 1033.84 2290.38 1033.75 2290.33C1033.67 2290.28 1033.6 2290.18 1033.56 2290.04C1033.52 2289.9 1033.5 2289.69 1033.5 2289.41C1033.5 2289.14 1033.52 2288.93 1033.56 2288.79C1033.6 2288.65 1033.67 2288.55 1033.75 2288.5C1033.84 2288.44 1033.96 2288.41 1034.12 2288.41H1037.77C1037.92 2288.41 1038.04 2288.44 1038.13 2288.5C1038.21 2288.55 1038.28 2288.65 1038.31 2288.79C1038.36 2288.93 1038.38 2289.14 1038.38 2289.41C1038.38 2289.69 1038.36 2289.9 1038.31 2290.04C1038.28 2290.18 1038.21 2290.28 1038.13 2290.33C1038.04 2290.38 1037.92 2290.41 1037.77 2290.41H1037.02V2295.77C1037.02 2296.52 1037.19 2297.08 1037.55 2297.45C1037.91 2297.82 1038.4 2298 1039.01 2298C1039.62 2298 1040.1 2297.82 1040.46 2297.45C1040.82 2297.08 1041 2296.52 1041 2295.77V2290.41H1040.25C1040.09 2290.41 1039.97 2290.38 1039.89 2290.33C1039.8 2290.28 1039.74 2290.18 1039.69 2290.04C1039.65 2289.9 1039.63 2289.69 1039.63 2289.41C1039.63 2289.14 1039.65 2288.93 1039.69 2288.79C1039.74 2288.65 1039.8 2288.55 1039.89 2288.5C1039.97 2288.44 1040.09 2288.41 1040.25 2288.41H1043.9ZM1055.4 2288.41C1055.63 2288.41 1055.79 2288.46 1055.89 2288.55C1055.99 2288.65 1056.04 2288.82 1056.04 2289.04V2293.16C1056.04 2293.38 1055.95 2293.54 1055.77 2293.63C1055.59 2293.73 1055.32 2293.78 1054.95 2293.78C1054.59 2293.78 1054.34 2293.73 1054.19 2293.64C1054.06 2293.54 1053.99 2293.39 1053.99 2293.16V2290.51H1052.22V2298H1054.33C1054.49 2298 1054.61 2298.03 1054.69 2298.09C1054.78 2298.14 1054.84 2298.24 1054.88 2298.38C1054.92 2298.52 1054.95 2298.73 1054.95 2299C1054.95 2299.28 1054.92 2299.49 1054.88 2299.63C1054.84 2299.77 1054.78 2299.87 1054.69 2299.92C1054.61 2299.97 1054.49 2300 1054.33 2300H1047.67C1047.51 2300 1047.39 2299.97 1047.31 2299.92C1047.22 2299.87 1047.16 2299.77 1047.11 2299.63C1047.07 2299.49 1047.05 2299.28 1047.05 2299C1047.05 2298.73 1047.07 2298.52 1047.11 2298.38C1047.16 2298.24 1047.22 2298.14 1047.31 2298.09C1047.39 2298.03 1047.51 2298 1047.67 2298H1049.78V2290.51H1048.01V2293.16C1048.01 2293.38 1047.92 2293.54 1047.74 2293.63C1047.56 2293.73 1047.29 2293.78 1046.92 2293.78C1046.56 2293.78 1046.31 2293.73 1046.17 2293.64C1046.03 2293.54 1045.96 2293.39 1045.96 2293.16V2289.04C1045.96 2288.82 1046.01 2288.65 1046.11 2288.55C1046.21 2288.46 1046.37 2288.41 1046.6 2288.41H1055.4ZM1065.89 2286.34C1066.33 2286.34 1066.69 2286.41 1066.99 2286.55C1067.29 2286.7 1067.44 2286.88 1067.44 2287.1C1067.44 2287.17 1067.42 2287.24 1067.4 2287.29L1060.89 2303.1C1060.78 2303.38 1060.51 2303.52 1060.09 2303.52C1059.66 2303.52 1059.29 2303.44 1058.99 2303.3C1058.7 2303.16 1058.55 2302.98 1058.55 2302.75C1058.55 2302.68 1058.56 2302.62 1058.59 2302.56L1065.09 2286.76C1065.21 2286.48 1065.48 2286.34 1065.89 2286.34ZM1078.23 2289.46C1078.36 2289.4 1078.46 2289.37 1078.55 2289.37C1078.68 2289.37 1078.8 2289.42 1078.92 2289.54C1079.04 2289.66 1079.16 2289.85 1079.3 2290.13C1079.47 2290.47 1079.55 2290.74 1079.55 2290.94C1079.55 2291.16 1079.44 2291.33 1079.2 2291.46L1073.49 2294.31L1079.2 2297.16C1079.44 2297.28 1079.55 2297.45 1079.55 2297.68C1079.55 2297.88 1079.47 2298.15 1079.3 2298.49C1079.16 2298.76 1079.04 2298.96 1078.92 2299.07C1078.8 2299.19 1078.68 2299.25 1078.55 2299.25C1078.46 2299.25 1078.36 2299.22 1078.23 2299.15L1070.61 2295.22C1070.45 2295.14 1070.33 2295.03 1070.26 2294.9C1070.19 2294.77 1070.16 2294.57 1070.16 2294.31C1070.16 2294.04 1070.19 2293.84 1070.26 2293.71C1070.33 2293.58 1070.45 2293.47 1070.61 2293.39L1078.23 2289.46ZM1087.52 2288.41C1089.02 2288.41 1090.15 2288.75 1090.92 2289.42C1091.7 2290.09 1092.08 2291.06 1092.08 2292.33C1092.08 2293.6 1091.7 2294.58 1090.92 2295.25C1090.15 2295.93 1089.02 2296.27 1087.52 2296.27H1086.06V2298H1088.18C1088.33 2298 1088.45 2298.03 1088.54 2298.09C1088.62 2298.14 1088.69 2298.24 1088.72 2298.38C1088.77 2298.52 1088.79 2298.73 1088.79 2299C1088.79 2299.28 1088.77 2299.49 1088.72 2299.63C1088.69 2299.77 1088.62 2299.87 1088.54 2299.92C1088.45 2299.97 1088.33 2300 1088.18 2300H1082.18C1082.03 2300 1081.9 2299.97 1081.82 2299.92C1081.74 2299.87 1081.67 2299.77 1081.62 2299.63C1081.59 2299.49 1081.57 2299.28 1081.57 2299C1081.57 2298.73 1081.59 2298.52 1081.62 2298.38C1081.67 2298.24 1081.74 2298.14 1081.82 2298.09C1081.9 2298.03 1082.03 2298 1082.18 2298H1083.62V2290.41H1082.18C1082.03 2290.41 1081.9 2290.38 1081.82 2290.33C1081.74 2290.28 1081.67 2290.18 1081.62 2290.04C1081.59 2289.9 1081.57 2289.69 1081.57 2289.41C1081.57 2289.14 1081.59 2288.93 1081.62 2288.79C1081.67 2288.65 1081.74 2288.55 1081.82 2288.5C1081.9 2288.44 1082.03 2288.41 1082.18 2288.41H1087.52ZM1086.06 2294.17H1087.22C1088 2294.17 1088.58 2294.02 1088.97 2293.72C1089.37 2293.42 1089.56 2292.96 1089.56 2292.33C1089.56 2291.71 1089.37 2291.25 1088.97 2290.96C1088.58 2290.66 1088 2290.51 1087.22 2290.51H1086.06V2294.17ZM1099.78 2288.41C1100.04 2288.41 1100.25 2288.46 1100.41 2288.56C1100.58 2288.66 1100.69 2288.82 1100.77 2289.04L1103.6 2298H1104.45C1104.6 2298 1104.72 2298.02 1104.81 2298.08C1104.89 2298.13 1104.96 2298.23 1104.99 2298.37C1105.04 2298.51 1105.06 2298.72 1105.06 2298.99C1105.06 2299.27 1105.04 2299.48 1104.99 2299.62C1104.96 2299.76 1104.89 2299.86 1104.81 2299.92C1104.72 2299.97 1104.6 2300 1104.45 2300H1100.31C1100.15 2300 1100.03 2299.97 1099.95 2299.92C1099.86 2299.86 1099.8 2299.76 1099.75 2299.62C1099.71 2299.48 1099.69 2299.27 1099.69 2298.99C1099.69 2298.72 1099.71 2298.51 1099.75 2298.37C1099.8 2298.23 1099.86 2298.13 1099.95 2298.08C1100.03 2298.02 1100.15 2298 1100.31 2298H1101.15L1100.71 2296.58H1097.15L1096.71 2298H1097.44C1097.59 2298 1097.71 2298.02 1097.8 2298.08C1097.88 2298.13 1097.94 2298.23 1097.98 2298.37C1098.03 2298.51 1098.05 2298.72 1098.05 2298.99C1098.05 2299.27 1098.03 2299.48 1097.98 2299.62C1097.94 2299.76 1097.88 2299.86 1097.8 2299.92C1097.71 2299.97 1097.59 2300 1097.44 2300H1093.49C1093.33 2300 1093.21 2299.97 1093.13 2299.92C1093.04 2299.86 1092.98 2299.76 1092.94 2299.62C1092.9 2299.48 1092.88 2299.27 1092.88 2298.99C1092.88 2298.72 1092.9 2298.51 1092.94 2298.37C1092.98 2298.23 1093.04 2298.13 1093.13 2298.08C1093.21 2298.02 1093.33 2298 1093.49 2298H1094.31L1096.78 2290.41H1095.15C1094.99 2290.41 1094.87 2290.38 1094.79 2290.33C1094.7 2290.27 1094.64 2290.17 1094.59 2290.03C1094.55 2289.89 1094.54 2289.68 1094.54 2289.4C1094.54 2289.13 1094.55 2288.92 1094.59 2288.78C1094.64 2288.64 1094.7 2288.54 1094.79 2288.49C1094.87 2288.43 1094.99 2288.41 1095.15 2288.41H1099.78ZM1098.92 2290.41L1097.72 2294.58H1100.15L1098.98 2290.41H1098.92ZM1114.5 2288.19C1114.9 2288.19 1115.18 2288.24 1115.33 2288.33C1115.48 2288.42 1115.55 2288.58 1115.55 2288.81V2292.17C1115.55 2292.39 1115.45 2292.55 1115.25 2292.65C1115.05 2292.74 1114.72 2292.78 1114.26 2292.78C1113.96 2292.78 1113.72 2292.76 1113.55 2292.72C1113.39 2292.68 1113.27 2292.61 1113.21 2292.53C1113.14 2292.44 1113.11 2292.32 1113.11 2292.17C1113.11 2291.61 1112.94 2291.18 1112.6 2290.87C1112.26 2290.56 1111.75 2290.41 1111.06 2290.41C1110.15 2290.41 1109.47 2290.74 1109 2291.39C1108.53 2292.04 1108.29 2292.98 1108.29 2294.2C1108.29 2295.41 1108.54 2296.35 1109.04 2297.01C1109.54 2297.67 1110.24 2298 1111.16 2298C1111.88 2298 1112.56 2297.9 1113.21 2297.71V2296.07H1111.32C1111.17 2296.07 1111.05 2296.05 1110.96 2296C1110.88 2295.94 1110.81 2295.85 1110.77 2295.7C1110.73 2295.56 1110.71 2295.35 1110.71 2295.08C1110.71 2294.8 1110.73 2294.6 1110.77 2294.45C1110.81 2294.31 1110.88 2294.21 1110.96 2294.16C1111.05 2294.1 1111.17 2294.07 1111.32 2294.07H1115.95C1116.11 2294.07 1116.23 2294.1 1116.31 2294.16C1116.4 2294.21 1116.46 2294.31 1116.5 2294.45C1116.54 2294.6 1116.57 2294.8 1116.57 2295.08C1116.57 2295.35 1116.54 2295.56 1116.5 2295.7C1116.46 2295.85 1116.4 2295.94 1116.31 2296C1116.23 2296.05 1116.11 2296.07 1115.95 2296.07H1115.65V2298.6C1115.65 2298.76 1115.62 2298.9 1115.55 2299.01C1115.49 2299.13 1115.41 2299.22 1115.3 2299.28C1114.69 2299.59 1114.03 2299.82 1113.3 2299.98C1112.58 2300.14 1111.83 2300.21 1111.06 2300.21C1109.99 2300.21 1109.05 2299.97 1108.24 2299.48C1107.42 2298.99 1106.79 2298.3 1106.34 2297.39C1105.9 2296.48 1105.68 2295.42 1105.68 2294.2C1105.68 2292.99 1105.9 2291.93 1106.33 2291.03C1106.77 2290.11 1107.37 2289.41 1108.14 2288.93C1108.91 2288.44 1109.79 2288.19 1110.77 2288.19C1111.91 2288.19 1112.76 2288.58 1113.3 2289.35V2288.81C1113.3 2288.59 1113.4 2288.43 1113.59 2288.34C1113.78 2288.24 1114.08 2288.19 1114.5 2288.19ZM1127.06 2288.41C1127.29 2288.41 1127.46 2288.46 1127.55 2288.55C1127.65 2288.65 1127.7 2288.82 1127.7 2289.04V2291.99C1127.7 2292.21 1127.6 2292.37 1127.42 2292.47C1127.23 2292.56 1126.92 2292.61 1126.51 2292.61C1126.1 2292.61 1125.83 2292.56 1125.68 2292.47C1125.53 2292.38 1125.45 2292.22 1125.45 2291.99V2290.51H1121.55V2292.98H1123.93C1124.16 2292.98 1124.32 2293.05 1124.41 2293.2C1124.5 2293.35 1124.54 2293.63 1124.54 2294.03C1124.54 2294.44 1124.5 2294.71 1124.41 2294.86C1124.32 2295.01 1124.16 2295.08 1123.93 2295.08H1121.55V2297.9H1125.55V2295.93C1125.55 2295.71 1125.65 2295.55 1125.83 2295.46C1126.03 2295.36 1126.35 2295.31 1126.78 2295.31C1127.21 2295.31 1127.5 2295.36 1127.66 2295.45C1127.82 2295.54 1127.89 2295.7 1127.89 2295.93V2299.37C1127.89 2299.59 1127.85 2299.75 1127.75 2299.85C1127.65 2299.95 1127.49 2300 1127.26 2300H1118.16C1118 2300 1117.88 2299.97 1117.8 2299.92C1117.71 2299.87 1117.65 2299.77 1117.6 2299.63C1117.56 2299.49 1117.54 2299.28 1117.54 2299C1117.54 2298.73 1117.56 2298.52 1117.6 2298.38C1117.65 2298.24 1117.71 2298.14 1117.8 2298.09C1117.88 2298.03 1118 2298 1118.16 2298H1119.11V2290.41H1118.16C1118 2290.41 1117.88 2290.38 1117.8 2290.33C1117.71 2290.28 1117.65 2290.18 1117.6 2290.04C1117.56 2289.9 1117.54 2289.69 1117.54 2289.41C1117.54 2289.14 1117.56 2288.93 1117.6 2288.79C1117.65 2288.65 1117.71 2288.55 1117.8 2288.5C1117.88 2288.44 1118 2288.41 1118.16 2288.41H1127.06ZM1139.32 2293.39C1139.48 2293.47 1139.6 2293.58 1139.66 2293.71C1139.73 2293.84 1139.77 2294.04 1139.77 2294.31C1139.77 2294.57 1139.73 2294.77 1139.66 2294.9C1139.6 2295.03 1139.48 2295.14 1139.32 2295.22L1131.7 2299.15C1131.57 2299.22 1131.47 2299.25 1131.38 2299.25C1131.25 2299.25 1131.13 2299.19 1131.01 2299.07C1130.89 2298.96 1130.77 2298.76 1130.63 2298.49C1130.46 2298.15 1130.38 2297.88 1130.38 2297.68C1130.38 2297.45 1130.49 2297.28 1130.73 2297.16L1136.44 2294.31L1130.73 2291.46C1130.49 2291.33 1130.38 2291.16 1130.38 2290.94C1130.38 2290.74 1130.46 2290.47 1130.63 2290.13C1130.77 2289.85 1130.89 2289.66 1131.01 2289.54C1131.13 2289.42 1131.25 2289.37 1131.38 2289.37C1131.47 2289.37 1131.57 2289.4 1131.7 2289.46L1139.32 2293.39Z" fill="#BE8D6A"/>
</g>
<path id="Vector_15" d="M1573.51 229.261C1760.98 366.014 1901.59 578.34 1958.07 815.858C2014.55 1054.57 1985.71 1319.68 1837.89 1461.23C1690.08 1602.78 1423.29 1619.58 1208.17 1636.37C991.851 1653.17 828.411 1671.16 686.602 1620.78C545.995 1571.6 428.222 1455.24 315.256 1311.29C202.29 1167.34 94.1308 994.596 101.341 824.255C108.552 653.914 232.334 484.773 387.362 340.823C542.39 198.072 731.067 81.7126 942.578 55.3217C1152.89 27.7313 1386.03 91.3092 1573.51 229.261Z" fill="#F1E3D9" fill-opacity="0.3"/>
<g id="Group 10_2">
<path id="Vector 8_2" d="M634.8 943.593V1237.87H842.825V982.479L804.147 943.593H634.8Z" fill="#BE8D6A" stroke="#F1EDED"/>
<path id="Vector 9_2" d="M595.55 982.83V1277.1H803.575V1021.72L764.897 982.83H595.55Z" fill="#BE8D6A" stroke="#F1EDED"/>
<path id=".css" d="M600.11 1361.43C600.11 1358.97 600.776 1357.27 602.11 1356.31C603.443 1355.29 605.07 1354.79 606.99 1354.79C608.856 1354.79 610.456 1355.29 611.79 1356.31C613.123 1357.27 613.79 1358.97 613.79 1361.43C613.79 1363.77 613.123 1365.48 611.79 1366.55C610.456 1367.56 608.856 1368.07 606.99 1368.07C605.07 1368.07 603.443 1367.56 602.11 1366.55C600.776 1365.48 600.11 1363.77 600.11 1361.43ZM642.362 1367.83C635.856 1367.83 630.816 1366.04 627.242 1362.47C623.722 1358.84 621.962 1353.16 621.962 1345.43C621.962 1340.09 622.869 1335.75 624.682 1332.39C626.496 1329.03 629.002 1326.55 632.202 1324.95C635.456 1323.35 639.189 1322.55 643.402 1322.55C646.389 1322.55 648.976 1322.84 651.162 1323.43C653.402 1324.01 655.349 1324.71 657.002 1325.51L653.482 1334.71C651.616 1333.96 649.856 1333.35 648.202 1332.87C646.602 1332.39 645.002 1332.15 643.402 1332.15C637.216 1332.15 634.122 1336.55 634.122 1345.35C634.122 1349.72 634.922 1352.95 636.522 1355.03C638.176 1357.11 640.469 1358.15 643.402 1358.15C645.909 1358.15 648.122 1357.83 650.042 1357.19C651.962 1356.49 653.829 1355.56 655.642 1354.39V1364.55C653.829 1365.72 651.909 1366.55 649.882 1367.03C647.909 1367.56 645.402 1367.83 642.362 1367.83ZM696.176 1354.07C696.176 1358.49 694.603 1361.91 691.456 1364.31C688.363 1366.65 683.723 1367.83 677.536 1367.83C674.496 1367.83 671.883 1367.61 669.696 1367.19C667.509 1366.81 665.323 1366.17 663.136 1365.27V1355.43C665.483 1356.49 668.016 1357.37 670.736 1358.07C673.456 1358.76 675.856 1359.11 677.936 1359.11C680.283 1359.11 681.936 1358.76 682.896 1358.07C683.909 1357.37 684.416 1356.47 684.416 1355.35C684.416 1354.6 684.203 1353.93 683.776 1353.35C683.403 1352.76 682.549 1352.09 681.216 1351.35C679.883 1350.6 677.803 1349.64 674.976 1348.47C672.256 1347.29 670.016 1346.15 668.256 1345.03C666.496 1343.85 665.189 1342.47 664.336 1340.87C663.483 1339.21 663.056 1337.16 663.056 1334.71C663.056 1330.65 664.629 1327.61 667.776 1325.59C670.923 1323.56 675.109 1322.55 680.336 1322.55C683.056 1322.55 685.643 1322.81 688.096 1323.35C690.549 1323.88 693.083 1324.76 695.696 1325.99L692.096 1334.55C689.963 1333.64 687.936 1332.89 686.016 1332.31C684.096 1331.67 682.149 1331.35 680.176 1331.35C676.656 1331.35 674.896 1332.31 674.896 1334.23C674.896 1334.92 675.109 1335.56 675.536 1336.15C676.016 1336.68 676.896 1337.27 678.176 1337.91C679.509 1338.55 681.456 1339.4 684.016 1340.47C686.523 1341.48 688.683 1342.55 690.496 1343.67C692.309 1344.73 693.696 1346.09 694.656 1347.75C695.669 1349.35 696.176 1351.45 696.176 1354.07ZM735.942 1354.07C735.942 1358.49 734.368 1361.91 731.222 1364.31C728.128 1366.65 723.488 1367.83 717.302 1367.83C714.262 1367.83 711.648 1367.61 709.462 1367.19C707.275 1366.81 705.088 1366.17 702.902 1365.27V1355.43C705.248 1356.49 707.782 1357.37 710.502 1358.07C713.222 1358.76 715.622 1359.11 717.702 1359.11C720.048 1359.11 721.702 1358.76 722.662 1358.07C723.675 1357.37 724.182 1356.47 724.182 1355.35C724.182 1354.6 723.968 1353.93 723.542 1353.35C723.168 1352.76 722.315 1352.09 720.982 1351.35C719.648 1350.6 717.568 1349.64 714.742 1348.47C712.022 1347.29 709.782 1346.15 708.022 1345.03C706.262 1343.85 704.955 1342.47 704.102 1340.87C703.248 1339.21 702.822 1337.16 702.822 1334.71C702.822 1330.65 704.395 1327.61 707.542 1325.59C710.688 1323.56 714.875 1322.55 720.102 1322.55C722.822 1322.55 725.408 1322.81 727.862 1323.35C730.315 1323.88 732.848 1324.76 735.462 1325.99L731.862 1334.55C729.728 1333.64 727.702 1332.89 725.782 1332.31C723.862 1331.67 721.915 1331.35 719.942 1331.35C716.422 1331.35 714.662 1332.31 714.662 1334.23C714.662 1334.92 714.875 1335.56 715.302 1336.15C715.782 1336.68 716.662 1337.27 717.942 1337.91C719.275 1338.55 721.222 1339.4 723.782 1340.47C726.288 1341.48 728.448 1342.55 730.262 1343.67C732.075 1344.73 733.462 1346.09 734.422 1347.75C735.435 1349.35 735.942 1351.45 735.942 1354.07Z" fill="#AFAFAF"/>
<g id="Frame_2" clip-path="url(#clip1)">
<path id="Vector_16" d="M680.477 1148.11C688.032 1148.11 690.731 1142.72 690.731 1142.72L686.413 1140.02C686.413 1140.02 684.794 1142.72 681.016 1142.72C677.239 1142.72 674.54 1137.86 674.54 1130.85C674.54 1124.38 677.778 1121.14 681.016 1121.14C683.715 1121.14 685.874 1123.3 685.874 1123.3L690.191 1120.06C690.191 1120.06 686.413 1115.74 681.016 1115.74C675.08 1115.74 669.143 1120.6 669.143 1130.85C669.143 1141.1 674.001 1148.11 680.477 1148.11ZM705.302 1142.18C703.683 1142.72 701.525 1142.18 699.906 1140.02L695.588 1142.72C697.747 1145.96 700.985 1148.11 704.223 1148.11C704.763 1148.11 705.842 1148.11 706.382 1147.57C710.16 1146.5 712.318 1143.26 712.318 1138.94C712.318 1132.47 708.001 1130.31 705.302 1129.23C702.604 1127.61 701.525 1127.07 701.525 1124.92C701.525 1122.76 702.064 1121.14 704.763 1121.14C706.382 1121.14 708.001 1123.3 708.001 1123.3L712.318 1120.06C711.239 1118.44 708.541 1115.74 704.763 1115.74C699.906 1115.74 696.128 1118.98 696.128 1124.38C696.128 1130.31 699.906 1132.47 702.604 1134.09C705.842 1135.17 706.922 1136.24 706.922 1138.94C706.922 1140.56 706.922 1142.18 705.302 1142.18ZM726.89 1142.18C725.271 1142.72 723.112 1142.18 721.493 1140.02L717.176 1142.72C719.334 1145.96 722.572 1148.11 725.811 1148.11C726.35 1148.11 727.43 1148.11 727.969 1147.57C731.747 1146.5 733.906 1143.26 733.906 1138.94C733.906 1132.47 729.588 1130.31 726.89 1129.23C724.192 1127.61 723.112 1127.07 723.112 1124.92C723.112 1122.76 723.652 1121.14 726.35 1121.14C727.969 1121.14 729.588 1123.3 729.588 1123.3L733.906 1120.06C732.827 1118.44 730.128 1115.74 726.35 1115.74C721.493 1115.74 717.715 1118.98 717.715 1124.38C717.715 1130.31 721.493 1132.47 724.192 1134.09C727.43 1135.17 728.509 1136.24 728.509 1138.94C728.509 1140.56 728.509 1142.18 726.89 1142.18ZM658.35 1088.77V1175.09H744.7V1088.77H658.35ZM739.303 1169.69H663.746V1094.16H739.303V1169.69Z" fill="white"/>
</g>
</g>
<g id="Group 9_2">
<path id="Vector 4_2" d="M776.1 296.19V590.464H984.125V335.076L945.447 296.19H776.1Z" fill="#BE8D6A" stroke="#F1EDED"/>
<path id="Vector 5_2" d="M736.85 331.503V625.777H944.875V370.389L906.197 331.503H736.85Z" fill="#BE8D6A" stroke="#F1EDED"/>
<path id="Vector 6_2" d="M697.6 370.74V665.014H905.625V409.626L866.947 370.74H697.6Z" fill="#BE8D6A" stroke="#F1EDED"/>
<path id=".mdx" d="M702.16 749.337C702.16 746.884 702.826 745.177 704.16 744.217C705.493 743.204 707.12 742.697 709.04 742.697C710.906 742.697 712.506 743.204 713.84 744.217C715.173 745.177 715.84 746.884 715.84 749.337C715.84 751.684 715.173 753.391 713.84 754.457C712.506 755.471 710.906 755.977 709.04 755.977C707.12 755.977 705.493 755.471 704.16 754.457C702.826 753.391 702.16 751.684 702.16 749.337ZM777.932 710.457C782.892 710.457 786.625 711.737 789.132 714.297C791.692 716.804 792.972 720.857 792.972 726.457V754.937H781.052V729.417C781.052 723.124 778.865 719.977 774.492 719.977C771.345 719.977 769.105 721.097 767.772 723.337C766.439 725.577 765.772 728.804 765.772 733.017V754.937H753.852V729.417C753.852 723.124 751.665 719.977 747.292 719.977C743.985 719.977 741.692 721.231 740.412 723.737C739.185 726.191 738.572 729.737 738.572 734.377V754.937H726.652V711.257H735.772L737.372 716.857H738.012C739.345 714.617 741.159 712.991 743.452 711.977C745.799 710.964 748.225 710.457 750.732 710.457C753.932 710.457 756.652 710.991 758.892 712.057C761.132 713.071 762.839 714.671 764.012 716.857H765.052C766.385 714.617 768.225 712.991 770.572 711.977C772.972 710.964 775.425 710.457 777.932 710.457ZM819.086 755.737C814.233 755.737 810.259 753.844 807.166 750.057C804.126 746.217 802.606 740.591 802.606 733.177C802.606 725.711 804.153 720.057 807.246 716.217C810.339 712.377 814.393 710.457 819.406 710.457C822.553 710.457 825.139 711.071 827.166 712.297C829.193 713.524 830.793 715.044 831.966 716.857H832.366C832.206 716.004 832.019 714.777 831.806 713.177C831.593 711.524 831.486 709.844 831.486 708.137V694.137H843.406V754.937H834.286L831.966 749.257H831.486C830.313 751.071 828.739 752.617 826.766 753.897C824.793 755.124 822.233 755.737 819.086 755.737ZM823.246 746.217C826.553 746.217 828.873 745.257 830.206 743.337C831.539 741.364 832.233 738.431 832.286 734.537V733.257C832.286 728.991 831.619 725.737 830.286 723.497C829.006 721.257 826.606 720.137 823.086 720.137C820.473 720.137 818.419 721.284 816.926 723.577C815.433 725.817 814.686 729.071 814.686 733.337C814.686 737.604 815.433 740.831 816.926 743.017C818.419 745.151 820.526 746.217 823.246 746.217ZM864.831 732.617L850.751 711.257H864.271L872.751 725.177L881.311 711.257H894.831L880.591 732.617L895.471 754.937H881.951L872.751 739.977L863.551 754.937H850.031L864.831 732.617Z" fill="#AFAFAF"/>
<path id="Vector_17" d="M749.624 492.373C746.92 492.373 744.699 494.66 744.699 497.444V538.31C744.699 541.094 746.92 543.381 749.624 543.381H857.525C860.229 543.381 862.449 541.094 862.449 538.31V497.444C862.449 494.66 860.229 492.373 857.525 492.373H749.624ZM825.323 502.028L835.773 512.79L846.224 502.028L849.88 505.793L839.43 516.555L849.631 527.061L845.976 530.825L835.774 520.32L825.571 530.825L821.915 527.061L832.117 516.555L821.666 505.793L825.323 502.028ZM801.598 502.358H806.822V522.483L813.965 515.327L817.571 519.143L804.164 532.574L791.431 519.161L795.129 515.439L801.598 522.253V502.358H801.598ZM756.315 503.07L770.258 517.249L784.459 503.193V531.231H779.152V516.026L770.207 524.879L761.623 516.149V531.231H756.315V503.07V503.07Z" fill="white"/>
</g>
<g id="Group 7_2">
<path id="Vector 1_2" d="M1368.78 390.358V684.632H1576.8V429.244L1538.12 390.358H1368.78Z" fill="#BE8D6A" stroke="#F1EDED"/>
<path id="Vector 2_2" d="M1329.53 425.671V719.945H1537.55V464.557L1498.87 425.671H1329.53Z" fill="#BE8D6A" stroke="#F1EDED"/>
<path id="Vector 3_2" d="M1290.28 464.907V759.181H1498.3V503.793L1459.62 464.907H1290.28Z" fill="#BE8D6A" stroke="#F1EDED"/>
<path id=".tsx" d="M1294.84 839.581C1294.84 837.128 1295.5 835.421 1296.84 834.461C1298.17 833.448 1299.8 832.941 1301.72 832.941C1303.58 832.941 1305.18 833.448 1306.52 834.461C1307.85 835.421 1308.52 837.128 1308.52 839.581C1308.52 841.928 1307.85 843.635 1306.52 844.701C1305.18 845.715 1303.58 846.221 1301.72 846.221C1299.8 846.221 1298.17 845.715 1296.84 844.701C1295.5 843.635 1294.84 841.928 1294.84 839.581ZM1337.73 836.461C1339.06 836.461 1340.34 836.328 1341.57 836.061C1342.79 835.795 1344.02 835.475 1345.25 835.101V843.981C1343.97 844.515 1342.37 844.968 1340.45 845.341C1338.58 845.768 1336.53 845.981 1334.29 845.981C1331.67 845.981 1329.33 845.555 1327.25 844.701C1325.22 843.848 1323.59 842.381 1322.37 840.301C1321.19 838.168 1320.61 835.235 1320.61 831.501V810.461H1314.93V805.421L1321.49 801.421L1324.93 792.221H1332.53V801.501H1344.77V810.461H1332.53V831.501C1332.53 833.155 1333.01 834.408 1333.97 835.261C1334.93 836.061 1336.18 836.461 1337.73 836.461ZM1384.5 832.221C1384.5 836.648 1382.92 840.061 1379.78 842.461C1376.68 844.808 1372.04 845.981 1365.86 845.981C1362.82 845.981 1360.2 845.768 1358.02 845.341C1355.83 844.968 1353.64 844.328 1351.46 843.421V833.581C1353.8 834.648 1356.34 835.528 1359.06 836.221C1361.78 836.915 1364.18 837.261 1366.26 837.261C1368.6 837.261 1370.26 836.915 1371.22 836.221C1372.23 835.528 1372.74 834.621 1372.74 833.501C1372.74 832.755 1372.52 832.088 1372.1 831.501C1371.72 830.915 1370.87 830.248 1369.54 829.501C1368.2 828.755 1366.12 827.795 1363.3 826.621C1360.58 825.448 1358.34 824.301 1356.58 823.181C1354.82 822.008 1353.51 820.621 1352.66 819.021C1351.8 817.368 1351.38 815.315 1351.38 812.861C1351.38 808.808 1352.95 805.768 1356.1 803.741C1359.24 801.715 1363.43 800.701 1368.66 800.701C1371.38 800.701 1373.96 800.968 1376.42 801.501C1378.87 802.035 1381.4 802.915 1384.02 804.141L1380.42 812.701C1378.28 811.795 1376.26 811.048 1374.34 810.461C1372.42 809.821 1370.47 809.501 1368.5 809.501C1364.98 809.501 1363.22 810.461 1363.22 812.381C1363.22 813.075 1363.43 813.715 1363.86 814.301C1364.34 814.835 1365.22 815.421 1366.5 816.061C1367.83 816.701 1369.78 817.555 1372.34 818.621C1374.84 819.635 1377 820.701 1378.82 821.821C1380.63 822.888 1382.02 824.248 1382.98 825.901C1383.99 827.501 1384.5 829.608 1384.5 832.221ZM1402.74 822.861L1388.66 801.501H1402.18L1410.66 815.421L1419.22 801.501H1432.74L1418.5 822.861L1433.38 845.181H1419.86L1410.66 830.221L1401.46 845.181H1387.94L1402.74 822.861Z" fill="#AFAFAF"/>
<g id="Group 6_2">
<path id="Vector_18" d="M1396.26 621.136C1400.9 621.136 1404.66 617.377 1404.66 612.74C1404.66 608.102 1400.9 604.343 1396.26 604.343C1391.62 604.343 1387.86 608.102 1387.86 612.74C1387.86 617.377 1391.62 621.136 1396.26 621.136Z" fill="white"/>
<path id="Vector_19" d="M1372.73 629.434L1370.88 628.959C1357.07 625.474 1349.15 619.547 1349.15 612.721C1349.15 605.891 1357.07 599.969 1370.88 596.483L1372.73 596.013L1373.26 597.852C1374.65 602.668 1376.44 607.361 1378.6 611.884L1379 612.721L1378.6 613.559C1376.44 618.088 1374.64 622.783 1373.26 627.6L1372.73 629.434ZM1370.02 600.764C1359.53 603.718 1353.09 608.224 1353.09 612.721C1353.09 617.209 1359.53 621.72 1370.02 624.669C1371.3 620.586 1372.86 616.593 1374.65 612.721C1372.84 608.844 1371.3 604.849 1370.02 600.764ZM1419.77 629.434L1419.25 627.59C1417.85 622.774 1416.06 618.08 1413.9 613.554L1413.5 612.721L1413.9 611.879C1416.06 607.359 1417.85 602.66 1419.25 597.843L1419.77 596.008L1421.63 596.479C1435.44 599.964 1443.35 605.887 1443.35 612.721C1443.35 619.551 1435.43 625.474 1421.63 628.959L1419.77 629.434ZM1417.84 612.721C1419.72 616.795 1421.29 620.803 1422.48 624.669C1432.97 621.72 1439.42 617.209 1439.42 612.721C1439.42 608.224 1432.98 603.723 1422.48 600.764C1421.2 604.848 1419.65 608.842 1417.84 612.721Z" fill="white"/>
<path id="Vector_20" d="M1369.95 600.745L1369.44 598.91C1365.55 585.231 1366.73 575.433 1372.67 572.018C1378.48 568.655 1387.83 572.629 1397.62 582.672L1398.96 584.046L1397.62 585.415C1394.14 589.03 1390.97 592.922 1388.12 597.052L1387.59 597.814L1386.66 597.889C1381.65 598.283 1376.69 599.083 1371.81 600.284L1369.95 600.745ZM1377.4 574.737C1376.34 574.737 1375.41 574.967 1374.63 575.419C1370.73 577.663 1370.04 585.476 1372.73 596.022C1376.92 595.095 1381.15 594.432 1385.41 594.06C1387.88 590.561 1390.57 587.225 1393.47 584.074C1387.34 578.114 1381.55 574.737 1377.4 574.737ZM1415.03 654.628C1409.44 654.628 1402.26 650.413 1394.8 642.765L1393.47 641.396L1394.8 640.032C1398.28 636.41 1401.46 632.514 1404.31 628.38L1404.84 627.628L1405.75 627.538C1410.76 627.152 1415.73 626.354 1420.61 625.153L1422.47 624.683L1422.99 626.522C1426.86 640.192 1425.69 650.004 1419.76 653.419C1418.32 654.235 1416.68 654.653 1415.03 654.628ZM1398.96 641.363C1405.09 647.323 1410.88 650.705 1415.03 650.705C1416.09 650.705 1417.02 650.47 1417.8 650.023C1421.7 647.774 1422.39 639.947 1419.7 629.401C1415.51 630.332 1411.28 631 1407.01 631.372C1404.55 634.877 1401.86 638.215 1398.96 641.363Z" fill="white"/>
<path id="Vector_21" d="M1422.47 600.745L1420.61 600.279C1415.74 599.075 1410.77 598.274 1405.75 597.885L1404.84 597.805L1404.31 597.043C1401.47 592.911 1398.29 589.018 1394.81 585.405L1393.47 584.036L1394.81 582.672C1404.59 572.634 1413.94 568.659 1419.76 572.018C1425.7 575.438 1426.88 585.236 1423 598.91L1422.47 600.745ZM1407.01 594.06C1411.5 594.46 1415.75 595.133 1419.7 596.022C1422.39 585.476 1421.7 577.662 1417.8 575.414C1413.92 573.17 1406.63 576.604 1398.96 584.074C1401.86 587.226 1404.55 590.556 1407.01 594.06ZM1377.4 654.628C1375.74 654.652 1374.11 654.234 1372.67 653.419C1366.73 650.004 1365.55 640.196 1369.43 626.522L1369.94 624.683L1371.8 625.153C1376.34 626.296 1381.33 627.101 1386.66 627.538L1387.57 627.627L1388.1 628.38C1390.95 632.51 1394.13 636.41 1397.61 640.032L1398.95 641.396L1397.61 642.765C1390.16 650.418 1382.98 654.628 1377.4 654.628ZM1372.73 629.406C1370.04 639.952 1370.73 647.779 1374.63 650.028C1378.51 652.238 1385.78 648.828 1393.47 641.363C1390.57 638.211 1387.88 634.875 1385.41 631.376C1381.15 630.999 1376.91 630.341 1372.73 629.406Z" fill="white"/>
<path id="Vector_22" d="M1396.23 631.875C1392.99 631.875 1389.68 631.739 1386.34 631.461L1385.42 631.381L1384.89 630.619C1383.01 627.919 1381.24 625.143 1379.59 622.298C1377.95 619.446 1376.43 616.529 1375.02 613.554L1374.63 612.721L1375.02 611.879C1376.43 608.906 1377.95 605.99 1379.59 603.139C1381.23 600.335 1383.01 597.532 1384.89 594.813L1385.42 594.06L1386.34 593.976C1392.92 593.425 1399.53 593.425 1406.1 593.976L1407.01 594.065L1407.54 594.818C1411.31 600.221 1414.61 605.93 1417.42 611.884L1417.82 612.726L1417.42 613.558C1414.62 619.516 1411.31 625.225 1407.54 630.624L1407.01 631.386L1406.1 631.466C1402.78 631.734 1399.45 631.875 1396.23 631.875ZM1387.6 627.623C1393.41 628.06 1399.05 628.06 1404.85 627.623C1408.09 622.878 1410.97 617.896 1413.47 612.721C1410.98 607.541 1408.1 602.559 1404.85 597.819C1399.11 597.377 1393.34 597.377 1387.6 597.819C1384.34 602.557 1381.46 607.539 1378.98 612.721C1381.48 617.894 1384.36 622.874 1387.6 627.623Z" fill="white"/>
</g>
</g>
<g id="Group 8_2">
<path id="Vector 13_2" d="M1160.75 986.753V1281.03H1368.78V1025.64L1330.1 986.753H1160.75Z" fill="#BE8D6A" stroke="#F1EDED"/>
<path id="Vector 14_2" d="M1121.5 1025.99V1320.26H1329.52V1064.88L1290.85 1025.99H1121.5Z" fill="#BE8D6A" stroke="#F1EDED"/>
<path id=".template" d="M1126.06 1400.66C1126.06 1398.21 1126.73 1396.5 1128.06 1395.54C1129.39 1394.53 1131.02 1394.02 1132.94 1394.02C1134.81 1394.02 1136.41 1394.53 1137.74 1395.54C1139.07 1396.5 1139.74 1398.21 1139.74 1400.66C1139.74 1403.01 1139.07 1404.72 1137.74 1405.78C1136.41 1406.8 1134.81 1407.3 1132.94 1407.3C1131.02 1407.3 1129.39 1406.8 1128.06 1405.78C1126.73 1404.72 1126.06 1403.01 1126.06 1400.66ZM1168.95 1397.54C1170.29 1397.54 1171.57 1397.41 1172.79 1397.14C1174.02 1396.88 1175.25 1396.56 1176.47 1396.18V1405.06C1175.19 1405.6 1173.59 1406.05 1171.67 1406.42C1169.81 1406.85 1167.75 1407.06 1165.51 1407.06C1162.9 1407.06 1160.55 1406.64 1158.47 1405.78C1156.45 1404.93 1154.82 1403.46 1153.59 1401.38C1152.42 1399.25 1151.83 1396.32 1151.83 1392.58V1371.54H1146.15V1366.5L1152.71 1362.5L1156.15 1353.3H1163.75V1362.58H1175.99V1371.54H1163.75V1392.58C1163.75 1394.24 1164.23 1395.49 1165.19 1396.34C1166.15 1397.14 1167.41 1397.54 1168.95 1397.54ZM1203.24 1361.78C1209.27 1361.78 1214.04 1363.52 1217.56 1366.98C1221.08 1370.4 1222.84 1375.28 1222.84 1381.62V1387.38H1194.68C1194.79 1390.74 1195.77 1393.38 1197.64 1395.3C1199.56 1397.22 1202.2 1398.18 1205.56 1398.18C1208.39 1398.18 1210.95 1397.92 1213.24 1397.38C1215.53 1396.8 1217.91 1395.92 1220.36 1394.74V1403.94C1218.23 1405.01 1215.96 1405.78 1213.56 1406.26C1211.21 1406.8 1208.36 1407.06 1205 1407.06C1200.63 1407.06 1196.76 1406.26 1193.4 1404.66C1190.04 1403.01 1187.4 1400.53 1185.48 1397.22C1183.56 1393.92 1182.6 1389.76 1182.6 1384.74C1182.6 1379.62 1183.45 1375.38 1185.16 1372.02C1186.92 1368.61 1189.35 1366.05 1192.44 1364.34C1195.53 1362.64 1199.13 1361.78 1203.24 1361.78ZM1203.32 1370.26C1201.03 1370.26 1199.11 1371.01 1197.56 1372.5C1196.07 1374 1195.19 1376.32 1194.92 1379.46H1211.64C1211.59 1376.8 1210.89 1374.61 1209.56 1372.9C1208.23 1371.14 1206.15 1370.26 1203.32 1370.26ZM1283.79 1361.78C1288.75 1361.78 1292.48 1363.06 1294.99 1365.62C1297.55 1368.13 1298.83 1372.18 1298.83 1377.78V1406.26H1286.91V1380.74C1286.91 1374.45 1284.72 1371.3 1280.35 1371.3C1277.2 1371.3 1274.96 1372.42 1273.63 1374.66C1272.29 1376.9 1271.63 1380.13 1271.63 1384.34V1406.26H1259.71V1380.74C1259.71 1374.45 1257.52 1371.3 1253.15 1371.3C1249.84 1371.3 1247.55 1372.56 1246.27 1375.06C1245.04 1377.52 1244.43 1381.06 1244.43 1385.7V1406.26H1232.51V1362.58H1241.63L1243.23 1368.18H1243.87C1245.2 1365.94 1247.01 1364.32 1249.31 1363.3C1251.65 1362.29 1254.08 1361.78 1256.59 1361.78C1259.79 1361.78 1262.51 1362.32 1264.75 1363.38C1266.99 1364.4 1268.69 1366 1269.87 1368.18H1270.91C1272.24 1365.94 1274.08 1364.32 1276.43 1363.3C1278.83 1362.29 1281.28 1361.78 1283.79 1361.78ZM1335.42 1361.78C1340.33 1361.78 1344.3 1363.7 1347.34 1367.54C1350.38 1371.33 1351.9 1376.93 1351.9 1384.34C1351.9 1391.76 1350.33 1397.41 1347.18 1401.3C1344.03 1405.14 1340.01 1407.06 1335.1 1407.06C1331.95 1407.06 1329.45 1406.5 1327.58 1405.38C1325.71 1404.21 1324.19 1402.9 1323.02 1401.46H1322.38C1322.81 1403.7 1323.02 1405.84 1323.02 1407.86V1425.46H1311.1V1362.58H1320.78L1322.46 1368.26H1323.02C1324.19 1366.5 1325.77 1364.98 1327.74 1363.7C1329.71 1362.42 1332.27 1361.78 1335.42 1361.78ZM1331.58 1371.3C1328.49 1371.3 1326.3 1372.26 1325.02 1374.18C1323.79 1376.1 1323.13 1379.04 1323.02 1382.98V1384.26C1323.02 1388.48 1323.63 1391.73 1324.86 1394.02C1326.14 1396.26 1328.43 1397.38 1331.74 1397.38C1334.46 1397.38 1336.46 1396.26 1337.74 1394.02C1339.07 1391.73 1339.74 1388.45 1339.74 1384.18C1339.74 1375.6 1337.02 1371.3 1331.58 1371.3ZM1373.64 1406.26H1361.72V1345.46H1373.64V1406.26ZM1404.02 1361.7C1409.89 1361.7 1414.37 1362.98 1417.46 1365.54C1420.61 1368.05 1422.18 1371.92 1422.18 1377.14V1406.26H1413.86L1411.54 1400.34H1411.22C1409.35 1402.69 1407.38 1404.4 1405.3 1405.46C1403.22 1406.53 1400.37 1407.06 1396.74 1407.06C1392.85 1407.06 1389.62 1405.94 1387.06 1403.7C1384.5 1401.41 1383.22 1397.92 1383.22 1393.22C1383.22 1388.58 1384.85 1385.17 1388.1 1382.98C1391.35 1380.74 1396.23 1379.52 1402.74 1379.3L1410.34 1379.06V1377.14C1410.34 1374.85 1409.73 1373.17 1408.5 1372.1C1407.33 1371.04 1405.67 1370.5 1403.54 1370.5C1401.41 1370.5 1399.33 1370.82 1397.3 1371.46C1395.27 1372.05 1393.25 1372.8 1391.22 1373.7L1387.3 1365.62C1389.65 1364.4 1392.23 1363.44 1395.06 1362.74C1397.94 1362.05 1400.93 1361.7 1404.02 1361.7ZM1405.7 1386.18C1401.86 1386.29 1399.19 1386.98 1397.7 1388.26C1396.21 1389.54 1395.46 1391.22 1395.46 1393.3C1395.46 1395.12 1395.99 1396.42 1397.06 1397.22C1398.13 1397.97 1399.51 1398.34 1401.22 1398.34C1403.78 1398.34 1405.94 1397.6 1407.7 1396.1C1409.46 1394.56 1410.34 1392.4 1410.34 1389.62V1386.02L1405.7 1386.18ZM1452.78 1397.54C1454.11 1397.54 1455.39 1397.41 1456.62 1397.14C1457.85 1396.88 1459.07 1396.56 1460.3 1396.18V1405.06C1459.02 1405.6 1457.42 1406.05 1455.5 1406.42C1453.63 1406.85 1451.58 1407.06 1449.34 1407.06C1446.73 1407.06 1444.38 1406.64 1442.3 1405.78C1440.27 1404.93 1438.65 1403.46 1437.42 1401.38C1436.25 1399.25 1435.66 1396.32 1435.66 1392.58V1371.54H1429.98V1366.5L1436.54 1362.5L1439.98 1353.3H1447.58V1362.58H1459.82V1371.54H1447.58V1392.58C1447.58 1394.24 1448.06 1395.49 1449.02 1396.34C1449.98 1397.14 1451.23 1397.54 1452.78 1397.54ZM1487.07 1361.78C1493.09 1361.78 1497.87 1363.52 1501.39 1366.98C1504.91 1370.4 1506.67 1375.28 1506.67 1381.62V1387.38H1478.51C1478.61 1390.74 1479.6 1393.38 1481.47 1395.3C1483.39 1397.22 1486.03 1398.18 1489.39 1398.18C1492.21 1398.18 1494.77 1397.92 1497.07 1397.38C1499.36 1396.8 1501.73 1395.92 1504.19 1394.74V1403.94C1502.05 1405.01 1499.79 1405.78 1497.39 1406.26C1495.04 1406.8 1492.19 1407.06 1488.83 1407.06C1484.45 1407.06 1480.59 1406.26 1477.23 1404.66C1473.87 1403.01 1471.23 1400.53 1469.31 1397.22C1467.39 1393.92 1466.43 1389.76 1466.43 1384.74C1466.43 1379.62 1467.28 1375.38 1468.99 1372.02C1470.75 1368.61 1473.17 1366.05 1476.27 1364.34C1479.36 1362.64 1482.96 1361.78 1487.07 1361.78ZM1487.15 1370.26C1484.85 1370.26 1482.93 1371.01 1481.39 1372.5C1479.89 1374 1479.01 1376.32 1478.75 1379.46H1495.47C1495.41 1376.8 1494.72 1374.61 1493.39 1372.9C1492.05 1371.14 1489.97 1370.26 1487.15 1370.26Z" fill="#AFAFAF"/>
<g id="Group_2">
<path id="Vector_23" fill-rule="evenodd" clip-rule="evenodd" d="M1184.3 1131.93V1159.39H1266.72V1131.93H1184.3ZM1257.56 1141.08H1193.46V1150.24H1257.56V1141.08Z" fill="white"/>
<path id="Vector_24" fill-rule="evenodd" clip-rule="evenodd" d="M1184.3 1168.55V1214.32H1220.93V1168.55H1184.3ZM1211.77 1177.7H1193.46V1205.17H1211.77V1177.7Z" fill="white"/>
<path id="Vector_25" d="M1266.7 1168.55H1230.07V1177.7H1266.7V1168.55Z" fill="white"/>
<path id="Vector_26" d="M1230.07 1186.86H1266.7V1196.01H1230.07V1186.86Z" fill="white"/>
<path id="Vector_27" d="M1266.7 1205.17H1230.07V1214.33H1266.7V1205.17Z" fill="white"/>
</g>
</g>
<path id="Arrow 3_2" d="M1045.9 1729.35C1048.63 1732.08 1053.07 1732.08 1055.8 1729.35L1100.35 1684.8C1103.08 1682.07 1103.08 1677.64 1100.35 1674.9C1097.61 1672.17 1093.18 1672.17 1090.45 1674.9L1050.85 1714.5L1011.25 1674.9C1008.52 1672.17 1004.09 1672.17 1001.35 1674.9C998.618 1677.64 998.618 1682.07 1001.35 1684.8L1045.9 1729.35ZM1043.85 1583.15L1043.85 1724.4L1057.85 1724.4L1057.85 1583.15L1043.85 1583.15Z" fill="#BE8D6A"/>
<path id="Arrow 4_2" d="M1045.9 2592.55C1048.63 2595.29 1053.07 2595.29 1055.8 2592.55L1100.35 2548.01C1103.08 2545.27 1103.08 2540.84 1100.35 2538.11C1097.61 2535.37 1093.18 2535.37 1090.45 2538.11L1050.85 2577.71L1011.25 2538.11C1008.52 2535.37 1004.09 2535.37 1001.35 2538.11C998.618 2540.84 998.618 2545.27 1001.35 2548.01L1045.9 2592.55ZM1043.85 2446.35L1043.85 2587.6L1057.85 2587.6L1057.85 2446.35L1043.85 2446.35Z" fill="#BE8D6A"/>
<g id="directory-line 1_2">
<path id="Vector_28" d="M1186.92 2744.55H1032.93L1006.74 2708.51C1004.63 2705.62 1001.87 2703.27 998.673 2701.65C995.481 2700.04 991.951 2699.2 988.373 2699.21H914.783C908.769 2699.21 903.001 2701.6 898.748 2705.85C894.495 2710.1 892.105 2715.87 892.105 2721.88V2971.25C892.105 2977.26 894.495 2983.03 898.748 2987.28C903.001 2991.53 908.769 2993.92 914.783 2993.92H1186.92C1192.93 2993.92 1198.7 2991.53 1202.95 2987.28C1207.21 2983.03 1209.59 2977.26 1209.59 2971.25V2767.22C1209.59 2761.21 1207.21 2755.44 1202.95 2751.19C1198.7 2746.94 1192.93 2744.55 1186.92 2744.55ZM1186.92 2971.25H914.783V2789.89H997.671C1003.69 2789.89 1009.45 2787.5 1013.71 2783.25C1017.96 2779 1020.35 2773.23 1020.35 2767.22H914.783V2721.88H988.373L1017.97 2762.57C1019.02 2764.02 1020.41 2765.19 1022 2766C1023.6 2766.81 1025.36 2767.23 1027.15 2767.22H1186.92V2971.25Z" fill="#BE8D6A"/>
</g>
<path id="./OUTPUT" d="M863.334 3120.14C865.6 3120.14 867.241 3120.34 868.256 3120.73C869.272 3121.09 869.78 3121.72 869.78 3122.6V3132.53C869.78 3133.41 869.272 3134.05 868.256 3134.44C867.241 3134.8 865.6 3134.99 863.334 3134.99C861.069 3134.99 859.428 3134.8 858.413 3134.44C857.397 3134.05 856.889 3133.41 856.889 3132.53V3122.6C856.889 3121.72 857.397 3121.09 858.413 3120.73C859.428 3120.34 861.069 3120.14 863.334 3120.14ZM922.905 3079.95C924.65 3079.95 926.108 3080.23 927.28 3080.81C928.478 3081.38 929.077 3082.11 929.077 3082.99C929.077 3083.28 929.025 3083.54 928.92 3083.78L902.905 3146.98C902.436 3148.1 901.368 3148.66 899.702 3148.66C897.957 3148.66 896.485 3148.37 895.288 3147.8C894.116 3147.23 893.53 3146.5 893.53 3145.61C893.53 3145.32 893.582 3145.06 893.686 3144.83L919.702 3081.63C920.17 3080.51 921.238 3079.95 922.905 3079.95ZM959.272 3087.37C963.543 3087.37 967.306 3088.35 970.561 3090.3C973.816 3092.23 976.329 3095.01 978.1 3098.66C979.897 3102.28 980.795 3106.52 980.795 3111.39C980.795 3116.26 979.897 3120.52 978.1 3124.17C976.329 3127.79 973.816 3130.57 970.561 3132.53C967.306 3134.48 963.543 3135.45 959.272 3135.45C955.001 3135.45 951.238 3134.48 947.983 3132.53C944.728 3130.57 942.202 3127.79 940.405 3124.17C938.634 3120.52 937.748 3116.26 937.748 3111.39C937.748 3106.52 938.634 3102.28 940.405 3098.66C942.202 3095.01 944.728 3092.23 947.983 3090.3C951.238 3088.35 955.001 3087.37 959.272 3087.37ZM959.272 3096.24C955.652 3096.24 952.905 3097.54 951.03 3100.14C949.155 3102.75 948.217 3106.5 948.217 3111.39C948.217 3116.29 949.155 3120.05 951.03 3122.68C952.905 3125.29 955.652 3126.59 959.272 3126.59C962.892 3126.59 965.639 3125.29 967.514 3122.68C969.389 3120.05 970.327 3116.29 970.327 3111.39C970.327 3106.5 969.389 3102.75 967.514 3100.14C965.639 3097.54 962.892 3096.24 959.272 3096.24ZM1026.81 3088.23C1027.44 3088.23 1027.92 3088.35 1028.26 3088.58C1028.59 3088.79 1028.84 3089.18 1029 3089.75C1029.18 3090.32 1029.27 3091.16 1029.27 3092.25C1029.27 3093.35 1029.18 3094.18 1029 3094.75C1028.84 3095.32 1028.59 3095.72 1028.26 3095.92C1027.92 3096.13 1027.44 3096.24 1026.81 3096.24H1024.98V3118.46C1024.98 3122.06 1024.26 3125.13 1022.83 3127.68C1021.39 3130.23 1019.35 3132.17 1016.69 3133.5C1014.04 3134.8 1010.89 3135.45 1007.24 3135.45C1003.59 3135.45 1000.44 3134.8 997.788 3133.5C995.131 3132.17 993.087 3130.23 991.655 3127.68C990.222 3125.13 989.506 3122.06 989.506 3118.46V3096.24H987.67C987.045 3096.24 986.564 3096.13 986.225 3095.92C985.886 3095.72 985.626 3095.32 985.444 3094.75C985.288 3094.18 985.209 3093.35 985.209 3092.25C985.209 3091.16 985.288 3090.32 985.444 3089.75C985.626 3089.18 985.886 3088.79 986.225 3088.58C986.564 3088.35 987.045 3088.23 987.67 3088.23H1002.28C1002.9 3088.23 1003.39 3088.35 1003.73 3088.58C1004.06 3088.79 1004.31 3089.18 1004.47 3089.75C1004.65 3090.32 1004.74 3091.16 1004.74 3092.25C1004.74 3093.35 1004.65 3094.18 1004.47 3094.75C1004.31 3095.32 1004.06 3095.72 1003.73 3095.92C1003.39 3096.13 1002.9 3096.24 1002.28 3096.24H999.272V3117.68C999.272 3120.68 999.988 3122.92 1001.42 3124.4C1002.85 3125.86 1004.79 3126.59 1007.24 3126.59C1009.69 3126.59 1011.63 3125.86 1013.06 3124.4C1014.49 3122.92 1015.21 3120.68 1015.21 3117.68V3096.24H1012.2C1011.58 3096.24 1011.09 3096.13 1010.76 3095.92C1010.42 3095.72 1010.16 3095.32 1009.98 3094.75C1009.82 3094.18 1009.74 3093.35 1009.74 3092.25C1009.74 3091.16 1009.82 3090.32 1009.98 3089.75C1010.16 3089.18 1010.42 3088.79 1010.76 3088.58C1011.09 3088.35 1011.58 3088.23 1012.2 3088.23H1026.81ZM1072.83 3088.23C1073.74 3088.23 1074.39 3088.42 1074.78 3088.81C1075.17 3089.2 1075.37 3089.86 1075.37 3090.77V3107.25C1075.37 3108.11 1075 3108.74 1074.27 3109.13C1073.57 3109.52 1072.48 3109.71 1070.99 3109.71C1069.56 3109.71 1068.56 3109.53 1067.98 3109.17C1067.44 3108.78 1067.16 3108.14 1067.16 3107.25V3096.63H1060.09V3126.59H1068.53C1069.15 3126.59 1069.64 3126.7 1069.98 3126.94C1070.31 3127.15 1070.56 3127.54 1070.72 3128.11C1070.9 3128.68 1070.99 3129.52 1070.99 3130.61C1070.99 3131.7 1070.9 3132.54 1070.72 3133.11C1070.56 3133.68 1070.31 3134.07 1069.98 3134.28C1069.64 3134.49 1069.15 3134.6 1068.53 3134.6H1041.89C1041.26 3134.6 1040.78 3134.49 1040.44 3134.28C1040.11 3134.07 1039.84 3133.68 1039.66 3133.11C1039.51 3132.54 1039.43 3131.7 1039.43 3130.61C1039.43 3129.52 1039.51 3128.68 1039.66 3128.11C1039.84 3127.54 1040.11 3127.15 1040.44 3126.94C1040.78 3126.7 1041.26 3126.59 1041.89 3126.59H1050.33V3096.63H1043.26V3107.25C1043.26 3108.11 1042.89 3108.74 1042.16 3109.13C1041.46 3109.52 1040.37 3109.71 1038.88 3109.71C1037.45 3109.71 1036.45 3109.53 1035.87 3109.17C1035.33 3108.78 1035.05 3108.14 1035.05 3107.25V3090.77C1035.05 3089.86 1035.25 3089.2 1035.64 3088.81C1036.06 3088.42 1036.71 3088.23 1037.59 3088.23H1072.83ZM1105.37 3088.23C1111.36 3088.23 1115.89 3089.58 1118.96 3092.29C1122.06 3094.97 1123.61 3098.85 1123.61 3103.93C1123.61 3109.01 1122.06 3112.9 1118.96 3115.61C1115.89 3118.32 1111.36 3119.67 1105.37 3119.67H1099.51V3126.59H1107.98C1108.61 3126.59 1109.09 3126.7 1109.43 3126.94C1109.77 3127.15 1110.01 3127.54 1110.17 3128.11C1110.35 3128.68 1110.44 3129.52 1110.44 3130.61C1110.44 3131.7 1110.35 3132.54 1110.17 3133.11C1110.01 3133.68 1109.77 3134.07 1109.43 3134.28C1109.09 3134.49 1108.61 3134.6 1107.98 3134.6H1084C1083.37 3134.6 1082.89 3134.49 1082.55 3134.28C1082.21 3134.07 1081.95 3133.68 1081.77 3133.11C1081.62 3132.54 1081.54 3131.7 1081.54 3130.61C1081.54 3129.52 1081.62 3128.68 1081.77 3128.11C1081.95 3127.54 1082.21 3127.15 1082.55 3126.94C1082.89 3126.7 1083.37 3126.59 1084 3126.59H1089.74V3096.24H1084C1083.37 3096.24 1082.89 3096.13 1082.55 3095.92C1082.21 3095.72 1081.95 3095.32 1081.77 3094.75C1081.62 3094.18 1081.54 3093.35 1081.54 3092.25C1081.54 3091.16 1081.62 3090.32 1081.77 3089.75C1081.95 3089.18 1082.21 3088.79 1082.55 3088.58C1082.89 3088.35 1083.37 3088.23 1084 3088.23H1105.37ZM1099.51 3111.28H1104.15C1107.25 3111.28 1109.58 3110.68 1111.15 3109.48C1112.74 3108.28 1113.53 3106.43 1113.53 3103.93C1113.53 3101.43 1112.74 3099.6 1111.15 3098.42C1109.58 3097.23 1107.25 3096.63 1104.15 3096.63H1099.51V3111.28ZM1170.72 3088.23C1171.34 3088.23 1171.82 3088.35 1172.16 3088.58C1172.5 3088.79 1172.75 3089.18 1172.9 3089.75C1173.09 3090.32 1173.18 3091.16 1173.18 3092.25C1173.18 3093.35 1173.09 3094.18 1172.9 3094.75C1172.75 3095.32 1172.5 3095.72 1172.16 3095.92C1171.82 3096.13 1171.34 3096.24 1170.72 3096.24H1168.88V3118.46C1168.88 3122.06 1168.17 3125.13 1166.73 3127.68C1165.3 3130.23 1163.26 3132.17 1160.6 3133.5C1157.94 3134.8 1154.79 3135.45 1151.15 3135.45C1147.5 3135.45 1144.35 3134.8 1141.69 3133.5C1139.04 3132.17 1136.99 3130.23 1135.56 3127.68C1134.13 3125.13 1133.41 3122.06 1133.41 3118.46V3096.24H1131.58C1130.95 3096.24 1130.47 3096.13 1130.13 3095.92C1129.79 3095.72 1129.53 3095.32 1129.35 3094.75C1129.19 3094.18 1129.12 3093.35 1129.12 3092.25C1129.12 3091.16 1129.19 3090.32 1129.35 3089.75C1129.53 3089.18 1129.79 3088.79 1130.13 3088.58C1130.47 3088.35 1130.95 3088.23 1131.58 3088.23H1146.19C1146.81 3088.23 1147.29 3088.35 1147.63 3088.58C1147.97 3088.79 1148.22 3089.18 1148.37 3089.75C1148.56 3090.32 1148.65 3091.16 1148.65 3092.25C1148.65 3093.35 1148.56 3094.18 1148.37 3094.75C1148.22 3095.32 1147.97 3095.72 1147.63 3095.92C1147.29 3096.13 1146.81 3096.24 1146.19 3096.24H1143.18V3117.68C1143.18 3120.68 1143.89 3122.92 1145.33 3124.4C1146.76 3125.86 1148.7 3126.59 1151.15 3126.59C1153.59 3126.59 1155.53 3125.86 1156.97 3124.4C1158.4 3122.92 1159.12 3120.68 1159.12 3117.68V3096.24H1156.11C1155.48 3096.24 1155 3096.13 1154.66 3095.92C1154.32 3095.72 1154.06 3095.32 1153.88 3094.75C1153.73 3094.18 1153.65 3093.35 1153.65 3092.25C1153.65 3091.16 1153.73 3090.32 1153.88 3089.75C1154.06 3089.18 1154.32 3088.79 1154.66 3088.58C1155 3088.35 1155.48 3088.23 1156.11 3088.23H1170.72ZM1216.73 3088.23C1217.64 3088.23 1218.3 3088.42 1218.69 3088.81C1219.08 3089.2 1219.27 3089.86 1219.27 3090.77V3107.25C1219.27 3108.11 1218.91 3108.74 1218.18 3109.13C1217.48 3109.52 1216.38 3109.71 1214.9 3109.71C1213.46 3109.71 1212.46 3109.53 1211.89 3109.17C1211.34 3108.78 1211.07 3108.14 1211.07 3107.25V3096.63H1204V3126.59H1212.44C1213.06 3126.59 1213.54 3126.7 1213.88 3126.94C1214.22 3127.15 1214.47 3127.54 1214.62 3128.11C1214.81 3128.68 1214.9 3129.52 1214.9 3130.61C1214.9 3131.7 1214.81 3132.54 1214.62 3133.11C1214.47 3133.68 1214.22 3134.07 1213.88 3134.28C1213.54 3134.49 1213.06 3134.6 1212.44 3134.6H1185.8C1185.17 3134.6 1184.69 3134.49 1184.35 3134.28C1184.01 3134.07 1183.75 3133.68 1183.57 3133.11C1183.41 3132.54 1183.33 3131.7 1183.33 3130.61C1183.33 3129.52 1183.41 3128.68 1183.57 3128.11C1183.75 3127.54 1184.01 3127.15 1184.35 3126.94C1184.69 3126.7 1185.17 3126.59 1185.8 3126.59H1194.23V3096.63H1187.16V3107.25C1187.16 3108.11 1186.8 3108.74 1186.07 3109.13C1185.37 3109.52 1184.27 3109.71 1182.79 3109.71C1181.36 3109.71 1180.35 3109.53 1179.78 3109.17C1179.23 3108.78 1178.96 3108.14 1178.96 3107.25V3090.77C1178.96 3089.86 1179.15 3089.2 1179.55 3088.81C1179.96 3088.42 1180.61 3088.23 1181.5 3088.23H1216.73Z" fill="#BE8D6A"/>
</g>
</g>
<g id="slides">
<g id="slide2">
<g id="fade-in-out">
<rect id="Rectangle 22" x="337" y="1789" width="1478" height="609" stroke="#BE8D6A" stroke-width="14"/>
</g>
<rect id="viewport" x="886" y="1840" width="330" height="516" stroke="#EB3636" stroke-width="0"/>
</g>
<g id="slide1">
<rect id="viewport_2" x="5" y="5" width="2076" height="3222" stroke="#EB3636" stroke-width="0"/>
<g id="fade-in-out_2">
<g id="InfoRectangle_2">
<rect id="Rectangle 21_2" x="329.71" y="1781.61" width="1492.33" height="623.283" fill="#BE8D6A"/>
<path id="GENERATE PAGE SOURCES_2" d="M602.086 2050.92C614.48 2050.92 623.84 2052.65 630.166 2056.12C636.493 2059.59 639.656 2065.7 639.656 2074.45C639.656 2079.74 638.4 2084.2 635.886 2087.84C633.46 2091.48 629.95 2093.69 625.356 2094.47V2095.12C628.476 2095.73 631.293 2096.81 633.806 2098.37C636.32 2099.93 638.313 2102.18 639.786 2105.13C641.26 2108.08 641.996 2111.98 641.996 2116.83C641.996 2125.24 638.963 2131.82 632.896 2136.59C626.83 2141.36 618.51 2143.74 607.936 2143.74H573.226V2050.92H602.086ZM604.296 2087.71C610.016 2087.71 613.96 2086.8 616.126 2084.98C618.38 2083.16 619.506 2080.52 619.506 2077.05C619.506 2073.5 618.206 2070.94 615.606 2069.38C613.006 2067.82 608.89 2067.04 603.256 2067.04H592.856V2087.71H604.296ZM592.856 2103.31V2127.49H605.726C611.62 2127.49 615.736 2126.36 618.076 2124.11C620.416 2121.77 621.586 2118.69 621.586 2114.88C621.586 2111.41 620.373 2108.64 617.946 2106.56C615.606 2104.39 611.316 2103.31 605.076 2103.31H592.856ZM736.1 2110.98C736.1 2117.39 734.67 2123.2 731.81 2128.4C729.037 2133.51 724.79 2137.59 719.07 2140.62C713.437 2143.57 706.287 2145.04 697.62 2145.04C685.313 2145.04 675.953 2141.92 669.54 2135.68C663.127 2129.35 659.92 2121.03 659.92 2110.72V2050.92H679.55V2107.73C679.55 2115.36 681.11 2120.73 684.23 2123.85C687.35 2126.97 691.987 2128.53 698.14 2128.53C704.553 2128.53 709.19 2126.84 712.05 2123.46C714.997 2120.08 716.47 2114.79 716.47 2107.6V2050.92H736.1V2110.98ZM793.542 2143.74H751.292V2132.56L762.602 2127.36V2067.3L751.292 2062.1V2050.92H793.542V2062.1L782.232 2067.3V2127.36L793.542 2132.56V2143.74ZM809.359 2143.74V2050.92H828.989V2127.49H866.689V2143.74H809.359ZM959.825 2096.42C959.825 2112.11 955.362 2123.94 946.435 2131.91C937.595 2139.8 925.158 2143.74 909.125 2143.74H882.865V2050.92H911.985C921.692 2050.92 930.098 2052.65 937.205 2056.12C944.398 2059.59 949.945 2064.7 953.845 2071.46C957.832 2078.13 959.825 2086.45 959.825 2096.42ZM939.415 2096.94C939.415 2086.63 937.162 2079.09 932.655 2074.32C928.148 2069.47 921.605 2067.04 913.025 2067.04H902.495V2127.49H910.945C929.925 2127.49 939.415 2117.31 939.415 2096.94ZM1042.5 2050.92C1054.46 2050.92 1063.17 2053.52 1068.63 2058.72C1074.18 2063.83 1076.95 2070.9 1076.95 2079.91C1076.95 2085.28 1075.83 2090.35 1073.57 2095.12C1071.32 2099.8 1067.55 2103.57 1062.26 2106.43C1057.06 2109.29 1049.96 2110.72 1040.94 2110.72H1032.49V2143.74H1012.86V2050.92H1042.5ZM1041.46 2067.04H1032.49V2094.6H1038.99C1044.54 2094.6 1048.92 2093.52 1052.12 2091.35C1055.42 2089.1 1057.06 2085.5 1057.06 2080.56C1057.06 2071.55 1051.86 2067.04 1041.46 2067.04ZM1129.21 2143.74H1086.96V2132.56L1098.27 2127.36V2067.3L1086.96 2062.1V2050.92H1129.21V2062.1L1117.9 2067.3V2127.36L1129.21 2132.56V2143.74ZM1174.66 2050.92C1186.62 2050.92 1195.33 2053.52 1200.79 2058.72C1206.34 2063.83 1209.11 2070.9 1209.11 2079.91C1209.11 2085.28 1207.99 2090.35 1205.73 2095.12C1203.48 2099.8 1199.71 2103.57 1194.42 2106.43C1189.22 2109.29 1182.12 2110.72 1173.1 2110.72H1164.65V2143.74H1145.02V2050.92H1174.66ZM1173.62 2067.04H1164.65V2094.6H1171.15C1176.7 2094.6 1181.08 2093.52 1184.28 2091.35C1187.58 2089.1 1189.22 2085.5 1189.22 2080.56C1189.22 2071.55 1184.02 2067.04 1173.62 2067.04ZM1280.08 2143.74H1226.65V2050.92H1280.08V2067.04H1246.28V2087.45H1277.74V2103.57H1246.28V2127.49H1280.08V2143.74ZM1299.4 2143.74V2050.92H1319.03V2127.49H1356.73V2143.74H1299.4ZM1407.61 2143.74H1365.36V2132.56L1376.67 2127.36V2067.3L1365.36 2062.1V2050.92H1407.61V2062.1L1396.3 2067.3V2127.36L1407.61 2132.56V2143.74ZM1505.72 2143.74H1480.76L1440.33 2073.54H1439.81C1439.98 2077.96 1440.16 2082.38 1440.33 2086.8C1440.59 2091.22 1440.81 2095.64 1440.98 2100.06V2143.74H1423.43V2050.92H1448.26L1488.56 2120.47H1488.95C1488.86 2116.14 1488.73 2111.85 1488.56 2107.6C1488.39 2103.35 1488.21 2099.11 1488.04 2094.86V2050.92H1505.72V2143.74ZM1582.61 2143.74H1529.18V2050.92H1582.61V2067.04H1548.81V2087.45H1580.27V2103.57H1548.81V2127.49H1582.61V2143.74Z" fill="#F8F8F8"/>
</g>
</g>
</g>
</g>
</g>
<defs>
<clipPath id="clip0">
<rect width="11" height="11.0138" fill="white" transform="translate(1002 2017.67)"/>
</clipPath>
<clipPath id="clip1">
<rect width="86.35" height="86.3203" fill="white" transform="translate(658.35 1088.77)"/>
</clipPath>
</defs>
</svg>
