<svg width="2484" height="1335" viewBox="0 0 2484 1335" fill="none" xmlns="http://www.w3.org/2000/svg">
<g id="get-request-hydrate" clip-path="url(#clip0)">
<g id="Group 27">
<g id="InfoRectangle">
<rect id="Rectangle 21" x="1195" y="232" width="746" height="874" stroke="#BE8D6A" stroke-width="10"/>
<path id="Vector 16" d="M1277.23 948.732C1276.26 949.709 1276.26 951.291 1277.23 952.268L1293.14 968.178C1294.12 969.154 1295.7 969.154 1296.68 968.178C1297.65 967.201 1297.65 965.618 1296.68 964.642L1282.54 950.5L1296.68 936.358C1297.65 935.382 1297.65 933.799 1296.68 932.822C1295.7 931.846 1294.12 931.846 1293.14 932.822L1277.23 948.732ZM1673.5 827C1673.5 870.527 1661.55 899.493 1640.88 918.716C1620.13 938.017 1590.21 947.856 1553.51 952.268C1516.84 956.678 1473.76 955.628 1427 953.456C1380.3 951.287 1329.95 948 1279 948L1279 953C1329.8 953 1379.95 956.276 1426.77 958.45C1473.52 960.622 1516.97 961.697 1554.11 957.232C1591.23 952.769 1622.4 942.733 1644.29 922.378C1666.26 901.944 1678.5 871.473 1678.5 827L1673.5 827Z" fill="#BE8D6A"/>
<rect x="1191.5" y="228.5" width="753" height="881" stroke="#BE8D6A" stroke-width="3"/>
</g>
<path id="GET /posts/" d="M558.88 253.92H581.52V283.52C578.533 284.533 575.413 285.333 572.16 285.92C568.96 286.507 565.307 286.8 561.2 286.8C552.667 286.8 546.107 284.293 541.52 279.28C536.933 274.267 534.64 266.96 534.64 257.36C534.64 251.387 535.787 246.213 538.08 241.84C540.427 237.467 543.813 234.08 548.24 231.68C552.667 229.28 558.08 228.08 564.48 228.08C567.52 228.08 570.507 228.4 573.44 229.04C576.373 229.68 579.04 230.533 581.44 231.6L577.44 241.28C575.68 240.373 573.68 239.627 571.44 239.04C569.2 238.453 566.853 238.16 564.4 238.16C560.88 238.16 557.813 238.96 555.2 240.56C552.64 242.16 550.64 244.427 549.2 247.36C547.813 250.24 547.12 253.653 547.12 257.6C547.12 261.333 547.627 264.64 548.64 267.52C549.653 270.4 551.253 272.667 553.44 274.32C555.627 275.92 558.48 276.72 562 276.72C563.707 276.72 565.147 276.64 566.32 276.48C567.547 276.32 568.667 276.133 569.68 275.92V264H558.88V253.92ZM627.971 286H595.091V228.88H627.971V238.8H607.171V251.36H626.531V261.28H607.171V276H627.971V286ZM661.856 286H649.776V238.96H634.256V228.88H677.376V238.96H661.856V286ZM732.406 228.88L711.126 286H700.326L721.606 228.88H732.406ZM763.373 241.52C768.279 241.52 772.253 243.44 775.293 247.28C778.333 251.067 779.852 256.667 779.852 264.08C779.852 271.493 778.279 277.147 775.133 281.04C771.986 284.88 767.959 286.8 763.053 286.8C759.906 286.8 757.399 286.24 755.533 285.12C753.666 283.947 752.146 282.64 750.973 281.2H750.333C750.759 283.44 750.973 285.573 750.973 287.6V305.2H739.053V242.32H748.733L750.413 248H750.973C752.146 246.24 753.719 244.72 755.693 243.44C757.666 242.16 760.226 241.52 763.373 241.52ZM759.533 251.04C756.439 251.04 754.253 252 752.973 253.92C751.746 255.84 751.079 258.773 750.973 262.72V264C750.973 268.213 751.586 271.467 752.812 273.76C754.093 276 756.386 277.12 759.693 277.12C762.413 277.12 764.413 276 765.693 273.76C767.026 271.467 767.693 268.187 767.693 263.92C767.693 255.333 764.973 251.04 759.533 251.04ZM829.358 264.08C829.358 271.333 827.438 276.933 823.598 280.88C819.811 284.827 814.638 286.8 808.078 286.8C804.024 286.8 800.398 285.92 797.198 284.16C794.051 282.4 791.571 279.84 789.758 276.48C787.944 273.067 787.038 268.933 787.038 264.08C787.038 256.827 788.931 251.253 792.718 247.36C796.504 243.467 801.704 241.52 808.318 241.52C812.424 241.52 816.051 242.4 819.198 244.16C822.344 245.92 824.824 248.48 826.638 251.84C828.451 255.147 829.358 259.227 829.358 264.08ZM799.198 264.08C799.198 268.4 799.891 271.68 801.278 273.92C802.718 276.107 805.038 277.2 808.238 277.2C811.384 277.2 813.651 276.107 815.038 273.92C816.478 271.68 817.198 268.4 817.198 264.08C817.198 259.76 816.478 256.533 815.038 254.4C813.651 252.213 811.358 251.12 808.158 251.12C805.011 251.12 802.718 252.213 801.278 254.4C799.891 256.533 799.198 259.76 799.198 264.08ZM869.689 273.04C869.689 277.467 868.115 280.88 864.969 283.28C861.875 285.627 857.235 286.8 851.049 286.8C848.009 286.8 845.395 286.587 843.209 286.16C841.022 285.787 838.835 285.147 836.649 284.24V274.4C838.995 275.467 841.529 276.347 844.249 277.04C846.969 277.733 849.369 278.08 851.449 278.08C853.795 278.08 855.449 277.733 856.409 277.04C857.422 276.347 857.929 275.44 857.929 274.32C857.929 273.573 857.715 272.907 857.289 272.32C856.915 271.733 856.062 271.067 854.729 270.32C853.395 269.573 851.315 268.613 848.489 267.44C845.769 266.267 843.529 265.12 841.769 264C840.009 262.827 838.702 261.44 837.849 259.84C836.995 258.187 836.569 256.133 836.569 253.68C836.569 249.627 838.142 246.587 841.289 244.56C844.435 242.533 848.622 241.52 853.849 241.52C856.569 241.52 859.155 241.787 861.609 242.32C864.062 242.853 866.595 243.733 869.209 244.96L865.609 253.52C863.475 252.613 861.449 251.867 859.529 251.28C857.609 250.64 855.662 250.32 853.689 250.32C850.169 250.32 848.409 251.28 848.409 253.2C848.409 253.893 848.622 254.533 849.049 255.12C849.529 255.653 850.409 256.24 851.689 256.88C853.022 257.52 854.969 258.373 857.529 259.44C860.035 260.453 862.195 261.52 864.009 262.64C865.822 263.707 867.209 265.067 868.169 266.72C869.182 268.32 869.689 270.427 869.689 273.04ZM897.374 277.28C898.708 277.28 899.988 277.147 901.214 276.88C902.441 276.613 903.668 276.293 904.894 275.92V284.8C903.614 285.333 902.014 285.787 900.094 286.16C898.228 286.587 896.174 286.8 893.934 286.8C891.321 286.8 888.974 286.373 886.894 285.52C884.868 284.667 883.241 283.2 882.014 281.12C880.841 278.987 880.254 276.053 880.254 272.32V251.28H874.574V246.24L881.134 242.24L884.574 233.04H892.174V242.32H904.414V251.28H892.174V272.32C892.174 273.973 892.654 275.227 893.614 276.08C894.574 276.88 895.828 277.28 897.374 277.28ZM944.142 273.04C944.142 277.467 942.569 280.88 939.422 283.28C936.329 285.627 931.689 286.8 925.502 286.8C922.462 286.8 919.849 286.587 917.662 286.16C915.475 285.787 913.289 285.147 911.102 284.24V274.4C913.449 275.467 915.982 276.347 918.702 277.04C921.422 277.733 923.822 278.08 925.902 278.08C928.249 278.08 929.902 277.733 930.862 277.04C931.875 276.347 932.382 275.44 932.382 274.32C932.382 273.573 932.169 272.907 931.742 272.32C931.369 271.733 930.515 271.067 929.182 270.32C927.849 269.573 925.769 268.613 922.942 267.44C920.222 266.267 917.982 265.12 916.222 264C914.462 262.827 913.155 261.44 912.302 259.84C911.449 258.187 911.022 256.133 911.022 253.68C911.022 249.627 912.595 246.587 915.742 244.56C918.889 242.533 923.075 241.52 928.302 241.52C931.022 241.52 933.609 241.787 936.062 242.32C938.515 242.853 941.049 243.733 943.662 244.96L940.062 253.52C937.929 252.613 935.902 251.867 933.982 251.28C932.062 250.64 930.115 250.32 928.142 250.32C924.622 250.32 922.862 251.28 922.862 253.2C922.862 253.893 923.075 254.533 923.502 255.12C923.982 255.653 924.862 256.24 926.142 256.88C927.475 257.52 929.422 258.373 931.982 259.44C934.489 260.453 936.649 261.52 938.462 262.64C940.275 263.707 941.662 265.067 942.622 266.72C943.635 268.32 944.142 270.427 944.142 273.04ZM979.828 228.88L958.548 286H947.748L969.028 228.88H979.828Z" fill="#A4A4A4"/>
<path id="Arrow 3" d="M1107.95 363.95C1110.68 361.216 1110.68 356.784 1107.95 354.05L1063.4 309.503C1060.67 306.769 1056.24 306.769 1053.5 309.503C1050.77 312.236 1050.77 316.668 1053.5 319.402L1093.1 359L1053.5 398.598C1050.77 401.332 1050.77 405.764 1053.5 408.497C1056.24 411.231 1060.67 411.231 1063.4 408.497L1107.95 363.95ZM530 366H1103V352H530V366Z" fill="#BE8D6A"/>
<path id="Arrow 5" d="M544.05 946.05C541.317 948.784 541.317 953.216 544.05 955.95L588.598 1000.5C591.332 1003.23 595.764 1003.23 598.497 1000.5C601.231 997.764 601.231 993.332 598.497 990.598L558.899 951L598.497 911.402C601.231 908.668 601.231 904.236 598.497 901.503C595.764 898.769 591.332 898.769 588.598 901.503L544.05 946.05ZM1103 944L549 944L549 958L1103 958L1103 944Z" fill="#BE8D6A"/>
<path id="output/" d="M1382.53 430.51C1385.39 430.51 1387.64 429.473 1389.19 427.715C1390.81 425.869 1391.63 423.32 1391.63 420.174C1391.63 416.852 1390.72 414.338 1389.17 412.598C1387.62 410.857 1385.39 409.838 1382.51 409.838C1379.75 409.838 1377.48 410.787 1375.86 412.615C1374.25 414.443 1373.4 417.01 1373.4 420.156C1373.4 423.25 1374.23 425.887 1375.86 427.732C1377.34 429.402 1379.52 430.51 1382.53 430.51ZM1382.51 426.326C1381.28 426.326 1380.31 425.781 1379.61 424.709C1378.9 423.619 1378.55 422.107 1378.55 420.156C1378.55 418.24 1378.9 416.729 1379.61 415.639C1380.26 414.637 1381.19 414.021 1382.51 414.021C1383.7 414.021 1384.71 414.514 1385.43 415.639C1386.13 416.729 1386.48 418.24 1386.48 420.156C1386.48 422.107 1386.13 423.619 1385.43 424.709C1384.72 425.781 1383.76 426.326 1382.51 426.326ZM1401.83 430.51C1403.07 430.51 1404.15 430.211 1405.03 429.613C1405.89 429.016 1406.5 428.172 1406.87 427.082L1407.38 430H1412.02V410.312H1406.87V421.615C1406.87 423.074 1406.61 424.234 1406.1 425.061C1405.54 425.957 1404.78 426.291 1403.88 426.291C1403.02 426.291 1402.34 425.992 1401.93 425.377C1401.53 424.762 1401.33 423.76 1401.33 422.336V410.312H1396.18V423.127C1396.18 425.57 1396.66 427.398 1397.63 428.646C1398.63 429.965 1400.07 430.51 1401.83 430.51ZM1433.92 430.07V426.115H1429.97C1429.04 426.115 1428.32 425.957 1427.84 425.535C1427.4 425.148 1427.19 424.516 1427.19 423.654V414.268H1433.92V410.312H1427.19V402.648L1422.04 404.934V410.312H1417.01V414.268H1422.04V423.408C1422.04 425.957 1422.57 427.715 1423.61 428.646C1424.64 429.596 1426.63 430.07 1429.6 430.07H1433.92ZM1439.39 437.488H1444.52V427.223C1445.14 428.348 1445.97 429.191 1446.72 429.684C1447.62 430.299 1448.57 430.51 1449.67 430.51C1451.8 430.51 1453.68 429.666 1454.97 427.838C1456.16 426.15 1456.85 423.619 1456.85 420.191C1456.85 416.975 1456.25 414.355 1454.98 412.527C1453.72 410.717 1451.96 409.838 1449.76 409.838C1448.55 409.838 1447.51 410.119 1446.65 410.699C1445.77 411.279 1445.07 412.123 1444.52 413.266L1444.01 410.312H1439.39V437.488ZM1448.13 426.221C1447.02 426.221 1446.14 425.676 1445.49 424.604C1444.84 423.531 1444.52 422.055 1444.52 420.139C1444.52 418.223 1444.84 416.746 1445.49 415.674C1446.14 414.602 1447.02 414.057 1448.13 414.057C1449.23 414.057 1450.11 414.602 1450.75 415.674C1451.38 416.746 1451.7 418.24 1451.7 420.139C1451.7 422.055 1451.38 423.531 1450.75 424.604C1450.11 425.676 1449.23 426.221 1448.13 426.221ZM1466.9 430.51C1468.15 430.51 1469.22 430.211 1470.1 429.613C1470.96 429.016 1471.58 428.172 1471.95 427.082L1472.46 430H1477.1V410.312H1471.95V421.615C1471.95 423.074 1471.68 424.234 1471.17 425.061C1470.61 425.957 1469.85 426.291 1468.96 426.291C1468.1 426.291 1467.41 425.992 1467.01 425.377C1466.6 424.762 1466.41 423.76 1466.41 422.336V410.312H1461.26V423.127C1461.26 425.57 1461.73 427.398 1462.7 428.646C1463.7 429.965 1465.14 430.51 1466.9 430.51ZM1499 430.07V426.115H1495.04C1494.11 426.115 1493.39 425.957 1492.92 425.535C1492.48 425.148 1492.27 424.516 1492.27 423.654V414.268H1499V410.312H1492.27V402.648L1487.12 404.934V410.312H1482.09V414.268H1487.12V423.408C1487.12 425.957 1487.64 427.715 1488.68 428.646C1489.72 429.596 1491.7 430.07 1494.67 430.07H1499ZM1503.81 433.34H1507.7L1521.52 403.756H1517.63L1503.81 433.34Z" fill="#BE8D6A"/>
<path id="posts/" d="M1477.16 686.488H1482.3V676.223C1482.91 677.348 1483.74 678.191 1484.49 678.684C1485.39 679.299 1486.34 679.51 1487.45 679.51C1489.57 679.51 1491.45 678.666 1492.74 676.838C1493.93 675.15 1494.62 672.619 1494.62 669.191C1494.62 665.975 1494.02 663.355 1492.75 661.527C1491.49 659.717 1489.73 658.838 1487.53 658.838C1486.32 658.838 1485.28 659.119 1484.42 659.699C1483.54 660.279 1482.84 661.123 1482.3 662.266L1481.79 659.312H1477.16V686.488ZM1485.9 675.221C1484.79 675.221 1483.91 674.676 1483.26 673.604C1482.61 672.531 1482.3 671.055 1482.3 669.139C1482.3 667.223 1482.61 665.746 1483.26 664.674C1483.91 663.602 1484.79 663.057 1485.9 663.057C1487.01 663.057 1487.89 663.602 1488.52 664.674C1489.15 665.746 1489.47 667.24 1489.47 669.139C1489.47 671.055 1489.15 672.531 1488.52 673.604C1487.89 674.676 1487.01 675.221 1485.9 675.221ZM1507.06 679.51C1509.93 679.51 1512.18 678.473 1513.73 676.715C1515.34 674.869 1516.17 672.32 1516.17 669.174C1516.17 665.852 1515.25 663.338 1513.71 661.598C1512.16 659.857 1509.93 658.838 1507.05 658.838C1504.29 658.838 1502.02 659.787 1500.4 661.615C1498.78 663.443 1497.94 666.01 1497.94 669.156C1497.94 672.25 1498.77 674.887 1500.4 676.732C1501.88 678.402 1504.06 679.51 1507.06 679.51ZM1507.05 675.326C1505.81 675.326 1504.85 674.781 1504.14 673.709C1503.44 672.619 1503.09 671.107 1503.09 669.156C1503.09 667.24 1503.44 665.729 1504.14 664.639C1504.8 663.637 1505.73 663.021 1507.05 663.021C1508.24 663.021 1509.24 663.514 1509.96 664.639C1510.67 665.729 1511.02 667.24 1511.02 669.156C1511.02 671.107 1510.67 672.619 1509.96 673.709C1509.26 674.781 1508.29 675.326 1507.05 675.326ZM1528.74 679.51C1531.32 679.51 1533.34 679.018 1534.68 677.98C1536 676.979 1536.66 675.449 1536.66 673.428C1536.66 671.811 1536.26 670.404 1535.36 669.402C1534.47 668.4 1533.08 667.697 1531.23 667.258L1529.76 666.906L1529.56 666.854C1526.94 666.238 1525.8 665.535 1525.8 664.48C1525.8 663.936 1526.08 663.408 1526.7 663.074C1527.31 662.723 1528.16 662.582 1529.21 662.582C1530.35 662.582 1531.44 662.758 1532.38 663.039C1533.31 663.32 1534.36 663.812 1535.33 664.428V659.928C1534.34 659.576 1533.08 659.26 1532.11 659.102C1531.14 658.943 1529.91 658.838 1528.79 658.838C1526.29 658.838 1524.36 659.365 1522.99 660.42C1521.62 661.475 1520.93 662.969 1520.93 664.885C1520.93 666.449 1521.39 667.697 1522.29 668.664C1523.18 669.613 1524.62 670.316 1526.59 670.756L1528.02 671.072C1529.62 671.424 1530.56 671.793 1531.13 672.215C1531.69 672.637 1531.81 673.059 1531.81 673.604C1531.81 674.43 1531.5 674.887 1530.88 675.238C1530.25 675.59 1529.35 675.766 1528.19 675.766C1527 675.766 1525.92 675.59 1524.73 675.256C1523.55 674.922 1522.39 674.43 1521.25 673.779V678.279C1522.53 678.684 1523.83 679.018 1525.03 679.211C1526.22 679.404 1527.54 679.51 1528.74 679.51ZM1558.46 679.07V675.115H1554.51C1553.57 675.115 1552.85 674.957 1552.38 674.535C1551.94 674.148 1551.73 673.516 1551.73 672.654V663.268H1558.46V659.312H1551.73V651.648L1546.58 653.934V659.312H1541.55V663.268H1546.58V672.408C1546.58 674.957 1547.11 676.715 1548.14 677.646C1549.18 678.596 1551.17 679.07 1554.14 679.07H1558.46ZM1572.12 679.51C1574.7 679.51 1576.73 679.018 1578.06 677.98C1579.38 676.979 1580.05 675.449 1580.05 673.428C1580.05 671.811 1579.64 670.404 1578.75 669.402C1577.85 668.4 1576.46 667.697 1574.62 667.258L1573.14 666.906L1572.95 666.854C1570.33 666.238 1569.18 665.535 1569.18 664.48C1569.18 663.936 1569.47 663.408 1570.08 663.074C1570.7 662.723 1571.54 662.582 1572.59 662.582C1573.74 662.582 1574.83 662.758 1575.76 663.039C1576.69 663.32 1577.74 663.812 1578.71 664.428V659.928C1577.73 659.576 1576.46 659.26 1575.49 659.102C1574.53 658.943 1573.3 658.838 1572.17 658.838C1569.68 658.838 1567.74 659.365 1566.37 660.42C1565 661.475 1564.31 662.969 1564.31 664.885C1564.31 666.449 1564.77 667.697 1565.67 668.664C1566.56 669.613 1568.01 670.316 1569.98 670.756L1571.4 671.072C1573 671.424 1573.95 671.793 1574.51 672.215C1575.07 672.637 1575.2 673.059 1575.2 673.604C1575.2 674.43 1574.88 674.887 1574.26 675.238C1573.63 675.59 1572.73 675.766 1571.57 675.766C1570.38 675.766 1569.31 675.59 1568.11 675.256C1566.93 674.922 1565.77 674.43 1564.63 673.779V678.279C1565.91 678.684 1567.22 679.018 1568.41 679.211C1569.61 679.404 1570.92 679.51 1572.12 679.51ZM1584.97 682.34H1588.85L1602.67 652.756H1598.79L1584.97 682.34Z" fill="#BE8D6A"/>
<path id="hydrate.js" d="M1578.02 754H1583.14V742.732C1583.14 741.273 1583.4 740.113 1583.93 739.287C1584.46 738.461 1585.2 738.057 1586.16 738.057C1587.02 738.057 1587.71 738.355 1588.11 738.971C1588.52 739.586 1588.71 740.588 1588.71 742.012V754H1593.83V741.221C1593.83 738.777 1593.35 736.932 1592.4 735.684C1591.45 734.453 1590.05 733.838 1588.2 733.838C1586.95 733.838 1585.88 734.137 1585 734.734C1584.14 735.332 1583.51 736.176 1583.14 737.266V726.648H1578.02V754ZM1599.1 761.453H1603.35C1604.83 761.453 1605.99 760.979 1606.89 760.188C1607.78 759.396 1608.61 758.113 1609.37 756.127L1617.54 734.312H1612.12L1607.82 747.092L1603.32 734.312H1597.9L1605.39 753.455L1605.01 754.51C1604.6 755.564 1604.06 756.602 1603.51 757.006C1603.02 757.375 1602.18 757.533 1601.19 757.533H1599.1V761.453ZM1627.03 754.51C1628.24 754.51 1629.3 754.229 1630.16 753.648C1631 753.086 1631.74 752.225 1632.29 751.082L1632.8 754H1637.42V726.648H1632.29V737.107C1631.65 736.018 1630.92 735.191 1630.09 734.646C1629.19 734.066 1628.26 733.838 1627.14 733.838C1624.82 733.838 1623.06 734.822 1621.86 736.51C1620.6 738.285 1619.96 740.834 1619.96 744.156C1619.96 747.479 1620.58 750.027 1621.83 751.82C1623.09 753.631 1624.85 754.51 1627.03 754.51ZM1628.68 750.291C1627.58 750.291 1626.7 749.746 1626.06 748.674C1625.43 747.602 1625.12 746.125 1625.12 744.209C1625.12 742.311 1625.43 740.816 1626.06 739.744C1626.7 738.672 1627.58 738.127 1628.68 738.127C1629.79 738.127 1630.67 738.672 1631.32 739.744C1631.97 740.816 1632.29 742.293 1632.29 744.209C1632.29 746.125 1631.97 747.602 1631.32 748.674C1630.67 749.746 1629.79 750.291 1628.68 750.291ZM1644.31 754H1649.46V744.93C1649.46 743.541 1649.51 742.732 1649.64 742.047C1649.76 741.326 1649.99 740.781 1650.22 740.412C1650.66 739.691 1651.29 739.129 1652.12 738.76C1652.92 738.391 1653.87 738.197 1654.98 738.197C1655.88 738.197 1656.7 738.32 1657.46 738.584C1658.21 738.848 1658.87 739.234 1659.43 739.744V734.84C1658.92 734.559 1658.2 734.277 1657.51 734.084C1656.88 733.926 1656.09 733.838 1655.38 733.838C1654.07 733.838 1652.84 734.137 1651.78 734.752C1650.74 735.367 1649.97 736.229 1649.46 737.371L1648.95 734.312H1644.31V754ZM1670.45 754.51C1671.79 754.51 1672.77 754.281 1673.75 753.807C1674.77 753.332 1675.6 752.664 1676.25 751.803C1676.3 752.277 1676.41 752.752 1676.48 752.98C1676.57 753.244 1676.76 753.648 1676.97 754H1682.07C1681.88 753.736 1681.7 753.332 1681.58 752.98C1681.51 752.752 1681.4 752.277 1681.33 751.803C1681.28 751.504 1681.26 751.012 1681.21 750.537C1681.19 750.203 1681.17 749.676 1681.17 749.184C1681.17 748.322 1681.26 743.98 1681.26 742.68C1681.26 739.023 1680.56 737.072 1679.29 735.807C1678.06 734.629 1676.09 733.82 1672.8 733.82C1671.26 733.82 1669.82 733.979 1668.85 734.172C1667.67 734.383 1666.37 734.805 1665.39 735.209V739.604C1666.65 738.918 1667.88 738.408 1669.01 738.109C1670.15 737.811 1671.36 737.652 1672.49 737.652C1673.7 737.652 1674.63 737.846 1675.25 738.285C1675.81 738.689 1676.14 739.322 1676.14 740.184V741.045H1672.58C1669.46 741.045 1667.16 741.59 1665.67 742.68C1664.12 743.805 1663.44 745.527 1663.44 747.777C1663.44 749.904 1664.07 751.557 1665.32 752.734C1666.58 753.93 1668.32 754.51 1670.45 754.51ZM1671.89 750.941C1670.96 750.941 1670.24 750.678 1669.71 750.15C1669.17 749.605 1668.92 748.955 1668.92 747.988C1668.92 746.811 1669.31 745.984 1670.06 745.492C1670.82 745 1672.15 744.754 1674.09 744.754H1676.14V745.105C1676.14 746.951 1675.78 748.393 1675.02 749.395C1674.26 750.449 1673.21 750.941 1671.89 750.941ZM1702.32 754.07V750.115H1698.36C1697.43 750.115 1696.71 749.957 1696.24 749.535C1695.8 749.148 1695.59 748.516 1695.59 747.654V738.268H1702.32V734.312H1695.59V726.648L1690.44 728.934V734.312H1685.41V738.268H1690.44V747.408C1690.44 749.957 1690.96 751.715 1692 752.646C1693.04 753.596 1695.02 754.07 1697.99 754.07H1702.32ZM1716.84 754.51C1718.1 754.51 1719.42 754.404 1720.69 754.141C1721.94 753.895 1723.15 753.525 1724.34 753.033V748.305C1723.01 749.096 1721.81 749.588 1720.74 749.922C1719.58 750.256 1718.4 750.432 1717.22 750.432C1715.45 750.432 1714.1 750.045 1713.2 749.289C1712.3 748.533 1711.85 747.391 1711.83 745.826H1725.17V743.734C1725.17 740.711 1724.43 738.197 1722.76 736.422C1721.09 734.646 1718.75 733.838 1715.99 733.838C1713.06 733.838 1710.77 734.77 1709.1 736.633C1707.42 738.514 1706.59 740.975 1706.59 744.262C1706.59 747.549 1707.47 750.08 1709.21 751.855C1710.97 753.631 1713.41 754.51 1716.84 754.51ZM1711.88 741.977C1712 740.658 1712.43 739.621 1713.13 738.9C1713.83 738.18 1714.78 737.828 1715.99 737.828C1717.31 737.828 1718.31 738.215 1718.95 738.865C1719.62 739.551 1719.97 740.588 1719.98 741.959L1711.88 741.977ZM1737.6 754.738C1738.48 754.738 1739.21 754.439 1739.83 753.824C1740.43 753.227 1740.73 752.453 1740.73 751.521C1740.73 750.555 1740.43 749.764 1739.83 749.166C1739.21 748.551 1738.46 748.27 1737.62 748.27C1736.75 748.27 1736.02 748.568 1735.42 749.166C1734.8 749.781 1734.5 750.555 1734.5 751.521C1734.5 752.453 1734.8 753.209 1735.42 753.824C1736 754.404 1736.68 754.738 1737.6 754.738ZM1763.42 731.975C1763.77 731.975 1763.95 731.799 1763.95 731.447V726.49C1763.95 726.139 1763.77 725.963 1763.42 725.963H1759.32C1758.97 725.963 1758.8 726.139 1758.8 726.49V731.447C1758.8 731.799 1758.97 731.975 1759.32 731.975H1763.42ZM1751.52 761.453H1757.07C1759.59 761.453 1761.33 760.785 1762.37 759.572C1763.42 758.307 1763.95 756.197 1763.95 753.244V734.312H1753.58V738.268H1758.8V753.244C1758.8 754.773 1758.55 755.881 1758.08 756.531C1757.6 757.182 1756.79 757.498 1755.63 757.498H1751.52V761.453ZM1781.05 754.51C1783.63 754.51 1785.66 754.018 1786.99 752.98C1788.31 751.979 1788.98 750.449 1788.98 748.428C1788.98 746.811 1788.57 745.404 1787.68 744.402C1786.78 743.4 1785.39 742.697 1783.55 742.258L1782.07 741.906L1781.88 741.854C1779.26 741.238 1778.12 740.535 1778.12 739.48C1778.12 738.936 1778.4 738.408 1779.01 738.074C1779.63 737.723 1780.47 737.582 1781.53 737.582C1782.67 737.582 1783.76 737.758 1784.69 738.039C1785.62 738.32 1786.68 738.812 1787.64 739.428V734.928C1786.66 734.576 1785.39 734.26 1784.43 734.102C1783.46 733.943 1782.23 733.838 1781.1 733.838C1778.61 733.838 1776.67 734.365 1775.3 735.42C1773.93 736.475 1773.25 737.969 1773.25 739.885C1773.25 741.449 1773.7 742.697 1774.6 743.664C1775.5 744.613 1776.94 745.316 1778.91 745.756L1780.33 746.072C1781.93 746.424 1782.88 746.793 1783.44 747.215C1784 747.637 1784.13 748.059 1784.13 748.604C1784.13 749.43 1783.81 749.887 1783.2 750.238C1782.56 750.59 1781.67 750.766 1780.51 750.766C1779.31 750.766 1778.24 750.59 1777.04 750.256C1775.87 749.922 1774.71 749.43 1773.56 748.779V753.279C1774.85 753.684 1776.15 754.018 1777.34 754.211C1778.54 754.404 1779.86 754.51 1781.05 754.51Z" fill="#BE8D6A"/>
<path id="index.html" d="M1591.02 787.975C1591.38 787.975 1591.55 787.799 1591.55 787.447V782.49C1591.55 782.139 1591.38 781.963 1591.02 781.963H1586.93C1586.58 781.963 1586.4 782.139 1586.4 782.49V787.447C1586.4 787.799 1586.58 787.975 1586.93 787.975H1591.02ZM1598.83 810.211V806.256H1594.71C1593.55 806.256 1592.75 805.939 1592.27 805.289C1591.8 804.639 1591.55 803.531 1591.55 802.002V790.312H1582.23V794.268H1586.4V802.002C1586.4 804.955 1586.93 807.064 1588 808.312C1589.07 809.578 1590.83 810.211 1593.27 810.211H1598.83ZM1603.71 810H1608.83V798.732C1608.83 797.115 1609.13 796.061 1609.64 795.27C1610.18 794.443 1610.87 794.021 1611.87 794.021C1612.71 794.021 1613.4 794.32 1613.8 794.936C1614.21 795.551 1614.4 796.57 1614.4 798.012V810H1619.52V797.221C1619.52 794.777 1619.04 792.932 1618.09 791.684C1617.14 790.453 1615.74 789.838 1613.89 789.838C1612.64 789.838 1611.57 790.137 1610.69 790.734C1609.83 791.332 1609.2 792.176 1608.83 793.266L1608.32 790.312H1603.71V810ZM1631.03 810.51C1632.24 810.51 1633.3 810.229 1634.16 809.648C1635 809.086 1635.74 808.225 1636.29 807.082L1636.8 810H1641.42V782.648H1636.29V793.107C1635.65 792.018 1634.92 791.191 1634.09 790.646C1633.19 790.066 1632.26 789.838 1631.14 789.838C1628.82 789.838 1627.06 790.822 1625.86 792.51C1624.6 794.285 1623.96 796.834 1623.96 800.156C1623.96 803.479 1624.58 806.027 1625.83 807.82C1627.09 809.631 1628.85 810.51 1631.03 810.51ZM1632.68 806.291C1631.58 806.291 1630.7 805.746 1630.06 804.674C1629.43 803.602 1629.12 802.125 1629.12 800.209C1629.12 798.311 1629.43 796.816 1630.06 795.744C1630.7 794.672 1631.58 794.127 1632.68 794.127C1633.79 794.127 1634.67 794.672 1635.32 795.744C1635.97 796.816 1636.29 798.293 1636.29 800.209C1636.29 802.125 1635.97 803.602 1635.32 804.674C1634.67 805.746 1633.79 806.291 1632.68 806.291ZM1655.76 810.51C1657.03 810.51 1658.35 810.404 1659.61 810.141C1660.86 809.895 1662.07 809.525 1663.27 809.033V804.305C1661.93 805.096 1660.74 805.588 1659.67 805.922C1658.51 806.256 1657.33 806.432 1656.15 806.432C1654.38 806.432 1653.02 806.045 1652.12 805.289C1651.23 804.533 1650.77 803.391 1650.75 801.826H1664.1V799.734C1664.1 796.711 1663.36 794.197 1661.69 792.422C1660.02 790.646 1657.68 789.838 1654.92 789.838C1651.98 789.838 1649.7 790.77 1648.03 792.633C1646.34 794.514 1645.52 796.975 1645.52 800.262C1645.52 803.549 1646.39 806.08 1648.13 807.855C1649.89 809.631 1652.34 810.51 1655.76 810.51ZM1650.81 797.977C1650.93 796.658 1651.35 795.621 1652.05 794.9C1652.76 794.18 1653.71 793.828 1654.92 793.828C1656.24 793.828 1657.24 794.215 1657.87 794.865C1658.54 795.551 1658.89 796.588 1658.91 797.959L1650.81 797.977ZM1666.73 810H1672.74L1676.59 803.373L1680.46 810H1686.47L1679.27 799.734L1685.89 790.312H1679.88L1676.59 796.184L1673.32 790.312H1667.31L1674.01 799.734L1666.73 810ZM1698.21 810.738C1699.09 810.738 1699.83 810.439 1700.45 809.824C1701.04 809.227 1701.34 808.453 1701.34 807.521C1701.34 806.555 1701.04 805.764 1700.45 805.166C1699.83 804.551 1699.08 804.27 1698.23 804.27C1697.37 804.27 1696.63 804.568 1696.04 805.166C1695.42 805.781 1695.12 806.555 1695.12 807.521C1695.12 808.453 1695.42 809.209 1696.04 809.824C1696.62 810.404 1697.3 810.738 1698.21 810.738ZM1712.17 810H1717.29V798.732C1717.29 797.273 1717.55 796.113 1718.08 795.287C1718.61 794.461 1719.34 794.057 1720.31 794.057C1721.17 794.057 1721.86 794.355 1722.26 794.971C1722.67 795.586 1722.86 796.588 1722.86 798.012V810H1727.97V797.221C1727.97 794.777 1727.5 792.932 1726.55 791.684C1725.6 790.453 1724.2 789.838 1722.35 789.838C1721.1 789.838 1720.03 790.137 1719.15 790.734C1718.29 791.332 1717.66 792.176 1717.29 793.266V782.648H1712.17V810ZM1749.7 810.07V806.115H1745.75C1744.81 806.115 1744.09 805.957 1743.62 805.535C1743.18 805.148 1742.97 804.516 1742.97 803.654V794.268H1749.7V790.312H1742.97V782.648L1737.82 784.934V790.312H1732.79V794.268H1737.82V803.408C1737.82 805.957 1738.35 807.715 1739.38 808.646C1740.42 809.596 1742.41 810.07 1745.38 810.07H1749.7ZM1753.97 810H1758.19V797.361C1758.19 795.885 1758.3 794.9 1758.53 794.426C1758.75 793.934 1759.16 793.688 1759.74 793.688C1760.34 793.688 1760.74 793.934 1760.97 794.443C1761.2 794.971 1761.32 795.938 1761.32 797.361V810H1765.49V797.361C1765.49 795.885 1765.61 794.953 1765.84 794.461C1766.05 793.986 1766.38 793.688 1767.07 793.688C1767.65 793.688 1768.05 793.934 1768.28 794.443C1768.51 794.953 1768.62 795.814 1768.62 797.361V810H1772.83V798.908C1772.83 795.252 1772.55 792.844 1771.87 791.596C1771.25 790.471 1770.09 789.838 1768.39 789.838C1767.47 789.838 1766.72 790.031 1766.14 790.436C1765.54 790.84 1765.05 791.455 1764.66 792.281C1764.52 791.596 1764.12 791.016 1763.46 790.541C1762.81 790.066 1762.09 789.838 1761.3 789.838C1760.46 789.838 1759.7 790.102 1759.12 790.506C1758.49 790.945 1758.02 791.561 1757.72 792.352L1757.21 790.312H1753.97V810ZM1793.63 810.141V806.186H1789.52C1788.36 806.186 1787.55 805.869 1787.07 805.219C1786.6 804.568 1786.35 803.461 1786.35 801.932V782.648H1775.98V786.604H1781.2V801.932C1781.2 804.885 1781.73 806.994 1782.8 808.242C1783.87 809.508 1785.63 810.141 1788.07 810.141H1793.63Z" fill="#BE8D6A"/>
<g id="Group 22">
<line id="Line 5" x1="1380.5" y1="459" x2="1380.5" y2="675" stroke="#BE8D6A" stroke-width="5"/>
<line id="Line 6" x1="1455" y1="672.5" x2="1378" y2="672.5" stroke="#BE8D6A" stroke-width="5"/>
</g>
<g id="Group 24">
<line id="Line 5_2" x1="1478.5" y1="717" x2="1478.5" y2="747" stroke="#BE8D6A" stroke-width="5"/>
<line id="Line 6_2" x1="1553" y1="744.5" x2="1476" y2="744.5" stroke="#BE8D6A" stroke-width="5"/>
</g>
<g id="Group 27_2">
<line id="Line 5_3" x1="1478.5" y1="735" x2="1478.5" y2="803" stroke="#BE8D6A" stroke-width="5"/>
<line id="Line 6_3" x1="1553" y1="800.5" x2="1476" y2="800.5" stroke="#BE8D6A" stroke-width="5"/>
</g>
<path id=".../" d="M1485.98 499.738C1486.85 499.738 1487.59 499.439 1488.21 498.824C1488.81 498.227 1489.1 497.453 1489.1 496.521C1489.1 495.555 1488.81 494.764 1488.21 494.166C1487.59 493.551 1486.84 493.27 1485.99 493.27C1485.13 493.27 1484.39 493.568 1483.8 494.166C1483.18 494.781 1482.88 495.555 1482.88 496.521C1482.88 497.453 1483.18 498.209 1483.8 498.824C1484.38 499.404 1485.06 499.738 1485.98 499.738ZM1507.67 499.738C1508.55 499.738 1509.28 499.439 1509.9 498.824C1510.5 498.227 1510.8 497.453 1510.8 496.521C1510.8 495.555 1510.5 494.764 1509.9 494.166C1509.28 493.551 1508.53 493.27 1507.68 493.27C1506.82 493.27 1506.08 493.568 1505.49 494.166C1504.87 494.781 1504.57 495.555 1504.57 496.521C1504.57 497.453 1504.87 498.209 1505.49 498.824C1506.07 499.404 1506.75 499.738 1507.67 499.738ZM1529.36 499.738C1530.24 499.738 1530.98 499.439 1531.59 498.824C1532.19 498.227 1532.49 497.453 1532.49 496.521C1532.49 495.555 1532.19 494.764 1531.59 494.166C1530.98 493.551 1530.22 493.27 1529.38 493.27C1528.51 493.27 1527.78 493.568 1527.18 494.166C1526.56 494.781 1526.26 495.555 1526.26 496.521C1526.26 497.453 1526.56 498.209 1527.18 498.824C1527.76 499.404 1528.44 499.738 1529.36 499.738ZM1542.28 502.34H1546.16L1559.98 472.756H1556.09L1542.28 502.34Z" fill="#BE8D6A"/>
<path id="index.html_2" d="M1588.17 551.975C1588.52 551.975 1588.69 551.799 1588.69 551.447V546.49C1588.69 546.139 1588.52 545.963 1588.17 545.963H1584.07C1583.72 545.963 1583.54 546.139 1583.54 546.49V551.447C1583.54 551.799 1583.72 551.975 1584.07 551.975H1588.17ZM1595.97 574.211V570.256H1591.86C1590.7 570.256 1589.89 569.939 1589.41 569.289C1588.94 568.639 1588.69 567.531 1588.69 566.002V554.312H1579.38V558.268H1583.54V566.002C1583.54 568.955 1584.07 571.064 1585.14 572.312C1586.22 573.578 1587.97 574.211 1590.42 574.211H1595.97ZM1600.86 574H1605.97V562.732C1605.97 561.115 1606.27 560.061 1606.78 559.27C1607.33 558.443 1608.01 558.021 1609.01 558.021C1609.86 558.021 1610.54 558.32 1610.95 558.936C1611.35 559.551 1611.55 560.57 1611.55 562.012V574H1616.66V561.221C1616.66 558.777 1616.19 556.932 1615.24 555.684C1614.29 554.453 1612.88 553.838 1611.04 553.838C1609.79 553.838 1608.72 554.137 1607.84 554.734C1606.98 555.332 1606.34 556.176 1605.97 557.266L1605.46 554.312H1600.86V574ZM1628.17 574.51C1629.39 574.51 1630.44 574.229 1631.3 573.648C1632.15 573.086 1632.89 572.225 1633.43 571.082L1633.94 574H1638.56V546.648H1633.43V557.107C1632.8 556.018 1632.06 555.191 1631.23 554.646C1630.34 554.066 1629.4 553.838 1628.28 553.838C1625.96 553.838 1624.2 554.822 1623.01 556.51C1621.74 558.285 1621.11 560.834 1621.11 564.156C1621.11 567.479 1621.72 570.027 1622.97 571.82C1624.24 573.631 1625.99 574.51 1628.17 574.51ZM1629.83 570.291C1628.72 570.291 1627.84 569.746 1627.21 568.674C1626.57 567.602 1626.26 566.125 1626.26 564.209C1626.26 562.311 1626.57 560.816 1627.21 559.744C1627.84 558.672 1628.72 558.127 1629.83 558.127C1630.93 558.127 1631.81 558.672 1632.46 559.744C1633.11 560.816 1633.43 562.293 1633.43 564.209C1633.43 566.125 1633.11 567.602 1632.46 568.674C1631.81 569.746 1630.93 570.291 1629.83 570.291ZM1652.91 574.51C1654.17 574.51 1655.49 574.404 1656.76 574.141C1658 573.895 1659.22 573.525 1660.41 573.033V568.305C1659.08 569.096 1657.88 569.588 1656.81 569.922C1655.65 570.256 1654.47 570.432 1653.29 570.432C1651.52 570.432 1650.16 570.045 1649.27 569.289C1648.37 568.533 1647.91 567.391 1647.9 565.826H1661.24V563.734C1661.24 560.711 1660.5 558.197 1658.83 556.422C1657.16 554.646 1654.82 553.838 1652.06 553.838C1649.13 553.838 1646.84 554.77 1645.17 556.633C1643.48 558.514 1642.66 560.975 1642.66 564.262C1642.66 567.549 1643.54 570.08 1645.28 571.855C1647.04 573.631 1649.48 574.51 1652.91 574.51ZM1647.95 561.977C1648.07 560.658 1648.49 559.621 1649.2 558.9C1649.9 558.18 1650.85 557.828 1652.06 557.828C1653.38 557.828 1654.38 558.215 1655.02 558.865C1655.68 559.551 1656.04 560.588 1656.05 561.959L1647.95 561.977ZM1663.88 574H1669.89L1673.74 567.373L1677.6 574H1683.62L1676.41 563.734L1683.04 554.312H1677.02L1673.74 560.184L1670.47 554.312H1664.46L1671.15 563.734L1663.88 574ZM1695.36 574.738C1696.24 574.738 1696.98 574.439 1697.59 573.824C1698.19 573.227 1698.49 572.453 1698.49 571.521C1698.49 570.555 1698.19 569.764 1697.59 569.166C1696.98 568.551 1696.22 568.27 1695.38 568.27C1694.51 568.27 1693.78 568.568 1693.18 569.166C1692.56 569.781 1692.26 570.555 1692.26 571.521C1692.26 572.453 1692.56 573.209 1693.18 573.824C1693.76 574.404 1694.44 574.738 1695.36 574.738ZM1709.31 574H1714.43V562.732C1714.43 561.273 1714.69 560.113 1715.22 559.287C1715.75 558.461 1716.49 558.057 1717.45 558.057C1718.31 558.057 1719 558.355 1719.4 558.971C1719.81 559.586 1720 560.588 1720 562.012V574H1725.12V561.221C1725.12 558.777 1724.64 556.932 1723.69 555.684C1722.74 554.453 1721.34 553.838 1719.49 553.838C1718.24 553.838 1717.17 554.137 1716.29 554.734C1715.43 555.332 1714.8 556.176 1714.43 557.266V546.648H1709.31V574ZM1746.84 574.07V570.115H1742.89C1741.96 570.115 1741.24 569.957 1740.76 569.535C1740.32 569.148 1740.11 568.516 1740.11 567.654V558.268H1746.84V554.312H1740.11V546.648L1734.96 548.934V554.312H1729.93V558.268H1734.96V567.408C1734.96 569.957 1735.49 571.715 1736.53 572.646C1737.56 573.596 1739.55 574.07 1742.52 574.07H1746.84ZM1751.12 574H1755.33V561.361C1755.33 559.885 1755.44 558.9 1755.67 558.426C1755.9 557.934 1756.3 557.688 1756.88 557.688C1757.48 557.688 1757.88 557.934 1758.11 558.443C1758.34 558.971 1758.46 559.938 1758.46 561.361V574H1762.63V561.361C1762.63 559.885 1762.75 558.953 1762.98 558.461C1763.19 557.986 1763.53 557.688 1764.21 557.688C1764.79 557.688 1765.2 557.934 1765.42 558.443C1765.65 558.953 1765.76 559.814 1765.76 561.361V574H1769.98V562.908C1769.98 559.252 1769.7 556.844 1769.01 555.596C1768.39 554.471 1767.23 553.838 1765.53 553.838C1764.62 553.838 1763.86 554.031 1763.28 554.436C1762.68 554.84 1762.19 555.455 1761.8 556.281C1761.66 555.596 1761.26 555.016 1760.61 554.541C1759.96 554.066 1759.24 553.838 1758.45 553.838C1757.6 553.838 1756.85 554.102 1756.27 554.506C1755.63 554.945 1755.16 555.561 1754.86 556.352L1754.35 554.312H1751.12V574ZM1790.77 574.141V570.186H1786.66C1785.5 570.186 1784.69 569.869 1784.22 569.219C1783.74 568.568 1783.49 567.461 1783.49 565.932V546.648H1773.12V550.604H1778.34V565.932C1778.34 568.885 1778.87 570.994 1779.94 572.242C1781.02 573.508 1782.77 574.141 1785.22 574.141H1790.77Z" fill="#BE8D6A"/>
<g id="Group 25">
<line id="Line 6_4" x1="1455" y1="492.5" x2="1378" y2="492.5" stroke="#BE8D6A" stroke-width="5"/>
</g>
<g id="Group 26">
<line id="Line 5_4" x1="1478.5" y1="537" x2="1478.5" y2="567" stroke="#BE8D6A" stroke-width="5"/>
<line id="Line 6_5" x1="1553" y1="564.5" x2="1476" y2="564.5" stroke="#BE8D6A" stroke-width="5"/>
</g>
</g>
<path id="&#60;html&#62; &#60;h1&#62;All posts&#60;/h1&#62; &#60;script src=&#226;&#128;&#157;./hyrdate.js&#226;&#128;&#157; /&#62; &#60;/html&#62;" d="M499.127 715.084V710.707L485.152 705.732L499.127 700.723V696.328L480.547 703.641V707.789L499.127 715.084ZM503.715 717H508.83V705.732C508.83 704.273 509.094 703.113 509.621 702.287C510.148 701.461 510.887 701.057 511.854 701.057C512.715 701.057 513.4 701.355 513.805 701.971C514.209 702.586 514.402 703.588 514.402 705.012V717H519.518V704.221C519.518 701.777 519.043 699.932 518.094 698.684C517.145 697.453 515.738 696.838 513.893 696.838C512.645 696.838 511.572 697.137 510.693 697.734C509.832 698.332 509.199 699.176 508.83 700.266V689.648H503.715V717ZM541.244 717.07V713.115H537.289C536.357 713.115 535.637 712.957 535.162 712.535C534.723 712.148 534.512 711.516 534.512 710.654V701.268H541.244V697.312H534.512V689.648L529.361 691.934V697.312H524.334V701.268H529.361V710.408C529.361 712.957 529.889 714.715 530.926 715.646C531.963 716.596 533.949 717.07 536.92 717.07H541.244ZM545.516 717H549.734V704.361C549.734 702.885 549.84 701.9 550.068 701.426C550.297 700.934 550.701 700.688 551.281 700.688C551.879 700.688 552.283 700.934 552.512 701.443C552.74 701.971 552.863 702.938 552.863 704.361V717H557.029V704.361C557.029 702.885 557.152 701.953 557.381 701.461C557.592 700.986 557.926 700.688 558.611 700.688C559.191 700.688 559.596 700.934 559.824 701.443C560.053 701.953 560.158 702.814 560.158 704.361V717H564.377V705.908C564.377 702.252 564.096 699.844 563.41 698.596C562.795 697.471 561.635 696.838 559.93 696.838C559.016 696.838 558.26 697.031 557.68 697.436C557.082 697.84 556.59 698.455 556.203 699.281C556.062 698.596 555.658 698.016 555.008 697.541C554.357 697.066 553.637 696.838 552.846 696.838C552.002 696.838 551.246 697.102 550.666 697.506C550.033 697.945 549.559 698.561 549.26 699.352L548.75 697.312H545.516V717ZM585.172 717.141V713.186H581.059C579.898 713.186 579.09 712.869 578.615 712.219C578.141 711.568 577.895 710.461 577.895 708.932V689.648H567.523V693.604H572.744V708.932C572.744 711.885 573.271 713.994 574.344 715.242C575.416 716.508 577.174 717.141 579.617 717.141H585.172ZM589.004 715.084L607.584 707.789V703.641L589.004 696.328V700.723L602.979 705.732L589.004 710.707V715.084ZM520.818 764.084V759.707L506.844 754.732L520.818 749.723V745.328L502.238 752.641V756.789L520.818 764.084ZM525.406 766H530.521V754.732C530.521 753.273 530.785 752.113 531.312 751.287C531.84 750.461 532.578 750.057 533.545 750.057C534.406 750.057 535.092 750.355 535.496 750.971C535.9 751.586 536.094 752.588 536.094 754.012V766H541.209V753.221C541.209 750.777 540.734 748.932 539.785 747.684C538.836 746.453 537.43 745.838 535.584 745.838C534.336 745.838 533.264 746.137 532.385 746.734C531.523 747.332 530.891 748.176 530.521 749.266V738.648H525.406V766ZM547.379 766H564.025V761.43H558.225V739.756H553.215L547.783 741.057V745.732L553.18 744.396V761.43H547.379V766ZM567.312 764.084L585.893 756.789V752.641L567.312 745.328V749.723L581.287 754.732L567.312 759.707V764.084ZM588.037 766H593.223L594.805 759.514H601.748L603.365 766H608.551L601.467 739.756H595.121L588.037 766ZM595.842 755.242L598.285 744.502L600.746 755.242H595.842ZM628.555 766.141V762.186H624.441C623.281 762.186 622.473 761.869 621.998 761.219C621.523 760.568 621.277 759.461 621.277 757.932V738.648H610.906V742.604H616.127V757.932C616.127 760.885 616.654 762.994 617.727 764.242C618.799 765.508 620.557 766.141 623 766.141H628.555ZM650.246 766.141V762.186H646.133C644.973 762.186 644.164 761.869 643.689 761.219C643.215 760.568 642.969 759.461 642.969 757.932V738.648H632.598V742.604H637.818V757.932C637.818 760.885 638.346 762.994 639.418 764.242C640.49 765.508 642.248 766.141 644.691 766.141H650.246ZM676.859 773.488H681.992V763.223C682.607 764.348 683.434 765.191 684.189 765.684C685.086 766.299 686.035 766.51 687.143 766.51C689.27 766.51 691.15 765.666 692.434 763.838C693.629 762.15 694.314 759.619 694.314 756.191C694.314 752.975 693.717 750.355 692.451 748.527C691.186 746.717 689.428 745.838 687.23 745.838C686.018 745.838 684.98 746.119 684.119 746.699C683.24 747.279 682.537 748.123 681.992 749.266L681.482 746.312H676.859V773.488ZM685.596 762.221C684.488 762.221 683.609 761.676 682.959 760.604C682.309 759.531 681.992 758.055 681.992 756.139C681.992 754.223 682.309 752.746 682.959 751.674C683.609 750.602 684.488 750.057 685.596 750.057C686.703 750.057 687.582 750.602 688.215 751.674C688.848 752.746 689.164 754.24 689.164 756.139C689.164 758.055 688.848 759.531 688.215 760.604C687.582 761.676 686.703 762.221 685.596 762.221ZM706.76 766.51C709.625 766.51 711.875 765.473 713.422 763.715C715.039 761.869 715.865 759.32 715.865 756.174C715.865 752.852 714.951 750.338 713.404 748.598C711.857 746.857 709.625 745.838 706.742 745.838C703.982 745.838 701.715 746.787 700.098 748.615C698.48 750.443 697.637 753.01 697.637 756.156C697.637 759.25 698.463 761.887 700.098 763.732C701.574 765.402 703.754 766.51 706.76 766.51ZM706.742 762.326C705.512 762.326 704.545 761.781 703.842 760.709C703.139 759.619 702.787 758.107 702.787 756.156C702.787 754.24 703.139 752.729 703.842 751.639C704.492 750.637 705.424 750.021 706.742 750.021C707.938 750.021 708.939 750.514 709.66 751.639C710.363 752.729 710.715 754.24 710.715 756.156C710.715 758.107 710.363 759.619 709.66 760.709C708.957 761.781 707.99 762.326 706.742 762.326ZM728.434 766.51C731.018 766.51 733.039 766.018 734.375 764.98C735.693 763.979 736.361 762.449 736.361 760.428C736.361 758.811 735.957 757.404 735.061 756.402C734.164 755.4 732.775 754.697 730.93 754.258L729.453 753.906L729.26 753.854C726.641 753.238 725.498 752.535 725.498 751.48C725.498 750.936 725.779 750.408 726.395 750.074C727.01 749.723 727.854 749.582 728.908 749.582C730.051 749.582 731.141 749.758 732.072 750.039C733.004 750.32 734.059 750.812 735.025 751.428V746.928C734.041 746.576 732.775 746.26 731.809 746.102C730.842 745.943 729.611 745.838 728.486 745.838C725.99 745.838 724.057 746.365 722.686 747.42C721.314 748.475 720.629 749.969 720.629 751.885C720.629 753.449 721.086 754.697 721.982 755.664C722.879 756.613 724.32 757.316 726.289 757.756L727.713 758.072C729.312 758.424 730.262 758.793 730.824 759.215C731.387 759.637 731.51 760.059 731.51 760.604C731.51 761.43 731.193 761.887 730.578 762.238C729.945 762.59 729.049 762.766 727.889 762.766C726.693 762.766 725.621 762.59 724.426 762.256C723.248 761.922 722.088 761.43 720.945 760.779V765.279C722.229 765.684 723.529 766.018 724.725 766.211C725.92 766.404 727.238 766.51 728.434 766.51ZM758.158 766.07V762.115H754.203C753.271 762.115 752.551 761.957 752.076 761.535C751.637 761.148 751.426 760.516 751.426 759.654V750.268H758.158V746.312H751.426V738.648L746.275 740.934V746.312H741.248V750.268H746.275V759.408C746.275 761.957 746.803 763.715 747.84 764.646C748.877 765.596 750.863 766.07 753.834 766.07H758.158ZM771.816 766.51C774.4 766.51 776.422 766.018 777.758 764.98C779.076 763.979 779.744 762.449 779.744 760.428C779.744 758.811 779.34 757.404 778.443 756.402C777.547 755.4 776.158 754.697 774.312 754.258L772.836 753.906L772.643 753.854C770.023 753.238 768.881 752.535 768.881 751.48C768.881 750.936 769.162 750.408 769.777 750.074C770.393 749.723 771.236 749.582 772.291 749.582C773.434 749.582 774.523 749.758 775.455 750.039C776.387 750.32 777.441 750.812 778.408 751.428V746.928C777.424 746.576 776.158 746.26 775.191 746.102C774.225 745.943 772.994 745.838 771.869 745.838C769.373 745.838 767.439 746.365 766.068 747.42C764.697 748.475 764.012 749.969 764.012 751.885C764.012 753.449 764.469 754.697 765.365 755.664C766.262 756.613 767.703 757.316 769.672 757.756L771.096 758.072C772.695 758.424 773.645 758.793 774.207 759.215C774.77 759.637 774.893 760.059 774.893 760.604C774.893 761.43 774.576 761.887 773.961 762.238C773.328 762.59 772.432 762.766 771.271 762.766C770.076 762.766 769.004 762.59 767.809 762.256C766.631 761.922 765.471 761.43 764.328 760.779V765.279C765.611 765.684 766.912 766.018 768.107 766.211C769.303 766.404 770.621 766.51 771.816 766.51ZM802.807 764.084V759.707L788.832 754.732L802.807 749.723V745.328L784.227 752.641V756.789L802.807 764.084ZM806.357 769.34H810.242L824.059 739.756H820.174L806.357 769.34ZM829.086 766H834.201V754.732C834.201 753.273 834.465 752.113 834.992 751.287C835.52 750.461 836.258 750.057 837.225 750.057C838.086 750.057 838.771 750.355 839.176 750.971C839.58 751.586 839.773 752.588 839.773 754.012V766H844.889V753.221C844.889 750.777 844.414 748.932 843.465 747.684C842.516 746.453 841.109 745.838 839.264 745.838C838.016 745.838 836.943 746.137 836.064 746.734C835.203 747.332 834.57 748.176 834.201 749.266V738.648H829.086V766ZM851.059 766H867.705V761.43H861.904V739.756H856.895L851.463 741.057V745.732L856.859 744.396V761.43H851.059V766ZM870.992 764.084L889.572 756.789V752.641L870.992 745.328V749.723L884.967 754.732L870.992 759.707V764.084ZM520.818 813.084V808.707L506.844 803.732L520.818 798.723V794.328L502.238 801.641V805.789L520.818 813.084ZM533.211 815.51C535.795 815.51 537.816 815.018 539.152 813.98C540.471 812.979 541.139 811.449 541.139 809.428C541.139 807.811 540.734 806.404 539.838 805.402C538.941 804.4 537.553 803.697 535.707 803.258L534.23 802.906L534.037 802.854C531.418 802.238 530.275 801.535 530.275 800.48C530.275 799.936 530.557 799.408 531.172 799.074C531.787 798.723 532.631 798.582 533.686 798.582C534.828 798.582 535.918 798.758 536.85 799.039C537.781 799.32 538.836 799.812 539.803 800.428V795.928C538.818 795.576 537.553 795.26 536.586 795.102C535.619 794.943 534.389 794.838 533.264 794.838C530.768 794.838 528.834 795.365 527.463 796.42C526.092 797.475 525.406 798.969 525.406 800.885C525.406 802.449 525.863 803.697 526.76 804.664C527.656 805.613 529.098 806.316 531.066 806.756L532.49 807.072C534.09 807.424 535.039 807.793 535.602 808.215C536.164 808.637 536.287 809.059 536.287 809.604C536.287 810.43 535.971 810.887 535.355 811.238C534.723 811.59 533.826 811.766 532.666 811.766C531.471 811.766 530.398 811.59 529.203 811.256C528.025 810.922 526.865 810.43 525.723 809.779V814.279C527.006 814.684 528.307 815.018 529.502 815.211C530.697 815.404 532.016 815.51 533.211 815.51ZM556.414 815.51C557.627 815.51 558.594 815.387 559.578 815.123C560.562 814.859 561.441 814.543 562.373 813.998V809.27C561.547 810.025 560.668 810.5 559.912 810.781C559.033 811.115 558.102 811.291 557.117 811.291C555.43 811.291 554.146 810.764 553.25 809.709C552.354 808.637 551.896 807.125 551.896 805.174C551.896 803.223 552.354 801.693 553.25 800.621C554.111 799.584 555.342 799.021 557.1 799.021C558.102 799.021 559.086 799.197 559.912 799.531C560.738 799.865 561.617 800.375 562.373 801.025V796.314C561.406 795.805 560.422 795.418 559.455 795.172C558.471 794.926 557.434 794.803 556.361 794.803C553.355 794.803 550.982 795.717 549.26 797.545C547.537 799.391 546.676 801.939 546.676 805.174C546.676 808.391 547.537 810.922 549.242 812.768C550.947 814.596 553.338 815.51 556.414 815.51ZM570.002 815H575.152V805.93C575.152 804.541 575.205 803.732 575.328 803.047C575.451 802.326 575.68 801.781 575.908 801.412C576.348 800.691 576.98 800.129 577.807 799.76C578.615 799.391 579.564 799.197 580.672 799.197C581.568 799.197 582.395 799.32 583.15 799.584C583.906 799.848 584.557 800.234 585.119 800.744V795.84C584.609 795.559 583.889 795.277 583.203 795.084C582.57 794.926 581.779 794.838 581.076 794.838C579.758 794.838 578.527 795.137 577.473 795.752C576.436 796.367 575.662 797.229 575.152 798.371L574.643 795.312H570.002V815ZM599.48 792.975C599.832 792.975 600.008 792.799 600.008 792.447V787.49C600.008 787.139 599.832 786.963 599.48 786.963H595.385C595.033 786.963 594.857 787.139 594.857 787.49V792.447C594.857 792.799 595.033 792.975 595.385 792.975H599.48ZM607.285 815.211V811.256H603.172C602.012 811.256 601.203 810.939 600.729 810.289C600.254 809.639 600.008 808.531 600.008 807.002V795.312H590.691V799.268H594.857V807.002C594.857 809.955 595.385 812.064 596.457 813.312C597.529 814.578 599.287 815.211 601.73 815.211H607.285ZM611.785 822.488H616.918V812.223C617.533 813.348 618.359 814.191 619.115 814.684C620.012 815.299 620.961 815.51 622.068 815.51C624.195 815.51 626.076 814.666 627.359 812.838C628.555 811.15 629.24 808.619 629.24 805.191C629.24 801.975 628.643 799.355 627.377 797.527C626.111 795.717 624.354 794.838 622.156 794.838C620.943 794.838 619.906 795.119 619.045 795.699C618.166 796.279 617.463 797.123 616.918 798.266L616.408 795.312H611.785V822.488ZM620.521 811.221C619.414 811.221 618.535 810.676 617.885 809.604C617.234 808.531 616.918 807.055 616.918 805.139C616.918 803.223 617.234 801.746 617.885 800.674C618.535 799.602 619.414 799.057 620.521 799.057C621.629 799.057 622.508 799.602 623.141 800.674C623.773 801.746 624.09 803.24 624.09 805.139C624.09 807.055 623.773 808.531 623.141 809.604C622.508 810.676 621.629 811.221 620.521 811.221ZM649.701 815.07V811.115H645.746C644.814 811.115 644.094 810.957 643.619 810.535C643.18 810.148 642.969 809.516 642.969 808.654V799.268H649.701V795.312H642.969V787.648L637.818 789.934V795.312H632.791V799.268H637.818V808.408C637.818 810.957 638.346 812.715 639.383 813.646C640.42 814.596 642.406 815.07 645.377 815.07H649.701ZM685.051 815.51C687.635 815.51 689.656 815.018 690.992 813.98C692.311 812.979 692.979 811.449 692.979 809.428C692.979 807.811 692.574 806.404 691.678 805.402C690.781 804.4 689.393 803.697 687.547 803.258L686.07 802.906L685.877 802.854C683.258 802.238 682.115 801.535 682.115 800.48C682.115 799.936 682.396 799.408 683.012 799.074C683.627 798.723 684.471 798.582 685.525 798.582C686.668 798.582 687.758 798.758 688.689 799.039C689.621 799.32 690.676 799.812 691.643 800.428V795.928C690.658 795.576 689.393 795.26 688.426 795.102C687.459 794.943 686.229 794.838 685.104 794.838C682.607 794.838 680.674 795.365 679.303 796.42C677.932 797.475 677.246 798.969 677.246 800.885C677.246 802.449 677.703 803.697 678.6 804.664C679.496 805.613 680.938 806.316 682.906 806.756L684.33 807.072C685.93 807.424 686.879 807.793 687.441 808.215C688.004 808.637 688.127 809.059 688.127 809.604C688.127 810.43 687.811 810.887 687.195 811.238C686.562 811.59 685.666 811.766 684.506 811.766C683.311 811.766 682.238 811.59 681.043 811.256C679.865 810.922 678.705 810.43 677.562 809.779V814.279C678.846 814.684 680.146 815.018 681.342 815.211C682.537 815.404 683.855 815.51 685.051 815.51ZM700.15 815H705.301V805.93C705.301 804.541 705.354 803.732 705.477 803.047C705.6 802.326 705.828 801.781 706.057 801.412C706.496 800.691 707.129 800.129 707.955 799.76C708.764 799.391 709.713 799.197 710.82 799.197C711.717 799.197 712.543 799.32 713.299 799.584C714.055 799.848 714.705 800.234 715.268 800.744V795.84C714.758 795.559 714.037 795.277 713.352 795.084C712.719 794.926 711.928 794.838 711.225 794.838C709.906 794.838 708.676 795.137 707.621 795.752C706.584 796.367 705.811 797.229 705.301 798.371L704.791 795.312H700.15V815ZM729.945 815.51C731.158 815.51 732.125 815.387 733.109 815.123C734.094 814.859 734.973 814.543 735.904 813.998V809.27C735.078 810.025 734.199 810.5 733.443 810.781C732.564 811.115 731.633 811.291 730.648 811.291C728.961 811.291 727.678 810.764 726.781 809.709C725.885 808.637 725.428 807.125 725.428 805.174C725.428 803.223 725.885 801.693 726.781 800.621C727.643 799.584 728.873 799.021 730.631 799.021C731.633 799.021 732.617 799.197 733.443 799.531C734.27 799.865 735.148 800.375 735.904 801.025V796.314C734.938 795.805 733.953 795.418 732.986 795.172C732.002 794.926 730.965 794.803 729.893 794.803C726.887 794.803 724.514 795.717 722.791 797.545C721.068 799.391 720.207 801.939 720.207 805.174C720.207 808.391 721.068 810.922 722.773 812.768C724.479 814.596 726.869 815.51 729.945 815.51ZM740.844 801.781H759.424V797.65H740.844V801.781ZM740.844 809.814H759.424V805.648H740.844V809.814ZM763.625 799.127H767.404L770.85 792.395V787.648H765.348V792.395L763.625 799.127ZM772.766 799.127H776.545L779.99 792.395V787.648H774.488V792.395L772.766 799.127ZM793.438 815.738C794.316 815.738 795.055 815.439 795.67 814.824C796.268 814.227 796.566 813.453 796.566 812.521C796.566 811.555 796.268 810.764 795.67 810.166C795.055 809.551 794.299 809.27 793.455 809.27C792.594 809.27 791.855 809.568 791.258 810.166C790.643 810.781 790.344 811.555 790.344 812.521C790.344 813.453 790.643 814.209 791.258 814.824C791.838 815.404 792.523 815.738 793.438 815.738ZM806.357 818.34H810.242L824.059 788.756H820.174L806.357 818.34ZM829.086 815H834.201V803.732C834.201 802.273 834.465 801.113 834.992 800.287C835.52 799.461 836.258 799.057 837.225 799.057C838.086 799.057 838.771 799.355 839.176 799.971C839.58 800.586 839.773 801.588 839.773 803.012V815H844.889V802.221C844.889 799.777 844.414 797.932 843.465 796.684C842.516 795.453 841.109 794.838 839.264 794.838C838.016 794.838 836.943 795.137 836.064 795.734C835.203 796.332 834.57 797.176 834.201 798.266V787.648H829.086V815ZM850.162 822.453H854.416C855.893 822.453 857.053 821.979 857.949 821.188C858.846 820.396 859.672 819.113 860.428 817.127L868.602 795.312H863.188L858.881 808.092L854.381 795.312H848.967L856.455 814.455L856.068 815.51C855.664 816.564 855.119 817.602 854.574 818.006C854.082 818.375 853.238 818.533 852.254 818.533H850.162V822.453ZM873.682 815H878.832V805.93C878.832 804.541 878.885 803.732 879.008 803.047C879.131 802.326 879.359 801.781 879.588 801.412C880.027 800.691 880.66 800.129 881.486 799.76C882.295 799.391 883.244 799.197 884.352 799.197C885.248 799.197 886.074 799.32 886.83 799.584C887.586 799.848 888.236 800.234 888.799 800.744V795.84C888.289 795.559 887.568 795.277 886.883 795.084C886.25 794.926 885.459 794.838 884.756 794.838C883.438 794.838 882.207 795.137 881.152 795.752C880.115 796.367 879.342 797.229 878.832 798.371L878.322 795.312H873.682V815ZM899.785 815.51C900.998 815.51 902.053 815.229 902.914 814.648C903.758 814.086 904.496 813.225 905.041 812.082L905.551 815H910.174V787.648H905.041V798.107C904.408 797.018 903.67 796.191 902.844 795.646C901.947 795.066 901.016 794.838 899.891 794.838C897.57 794.838 895.812 795.822 894.617 797.51C893.352 799.285 892.719 801.834 892.719 805.156C892.719 808.479 893.334 811.027 894.582 812.82C895.848 814.631 897.605 815.51 899.785 815.51ZM901.438 811.291C900.33 811.291 899.451 810.746 898.818 809.674C898.186 808.602 897.869 807.125 897.869 805.209C897.869 803.311 898.186 801.816 898.818 800.744C899.451 799.672 900.33 799.127 901.438 799.127C902.545 799.127 903.424 799.672 904.074 800.744C904.725 801.816 905.041 803.293 905.041 805.209C905.041 807.125 904.725 808.602 904.074 809.674C903.424 810.746 902.545 811.291 901.438 811.291ZM921.512 815.51C922.848 815.51 923.832 815.281 924.816 814.807C925.836 814.332 926.662 813.664 927.312 812.803C927.365 813.277 927.471 813.752 927.541 813.98C927.629 814.244 927.822 814.648 928.033 815H933.131C932.938 814.736 932.762 814.332 932.639 813.98C932.568 813.752 932.463 813.277 932.393 812.803C932.34 812.504 932.322 812.012 932.27 811.537C932.252 811.203 932.234 810.676 932.234 810.184C932.234 809.322 932.322 804.98 932.322 803.68C932.322 800.023 931.619 798.072 930.354 796.807C929.123 795.629 927.154 794.82 923.867 794.82C922.32 794.82 920.879 794.979 919.912 795.172C918.734 795.383 917.434 795.805 916.449 796.209V800.604C917.715 799.918 918.945 799.408 920.07 799.109C921.213 798.811 922.426 798.652 923.551 798.652C924.764 798.652 925.695 798.846 926.311 799.285C926.873 799.689 927.207 800.322 927.207 801.184V802.045H923.639C920.527 802.045 918.225 802.59 916.73 803.68C915.184 804.805 914.498 806.527 914.498 808.777C914.498 810.904 915.131 812.557 916.379 813.734C917.645 814.93 919.385 815.51 921.512 815.51ZM922.953 811.941C922.021 811.941 921.301 811.678 920.773 811.15C920.229 810.605 919.982 809.955 919.982 808.988C919.982 807.811 920.369 806.984 921.125 806.492C921.881 806 923.217 805.754 925.15 805.754H927.207V806.105C927.207 807.951 926.838 809.393 926.082 810.395C925.326 811.449 924.271 811.941 922.953 811.941ZM953.381 815.07V811.115H949.426C948.494 811.115 947.773 810.957 947.299 810.535C946.859 810.148 946.648 809.516 946.648 808.654V799.268H953.381V795.312H946.648V787.648L941.498 789.934V795.312H936.471V799.268H941.498V808.408C941.498 810.957 942.025 812.715 943.062 813.646C944.1 814.596 946.086 815.07 949.057 815.07H953.381ZM967.9 815.51C969.166 815.51 970.484 815.404 971.75 815.141C972.998 814.895 974.211 814.525 975.406 814.033V809.305C974.07 810.096 972.875 810.588 971.803 810.922C970.643 811.256 969.465 811.432 968.287 811.432C966.512 811.432 965.158 811.045 964.262 810.289C963.365 809.533 962.908 808.391 962.891 806.826H976.232V804.734C976.232 801.711 975.494 799.197 973.824 797.422C972.154 795.646 969.816 794.838 967.057 794.838C964.121 794.838 961.836 795.77 960.166 797.633C958.479 799.514 957.652 801.975 957.652 805.262C957.652 808.549 958.531 811.08 960.271 812.855C962.029 814.631 964.473 815.51 967.9 815.51ZM962.943 802.977C963.066 801.658 963.488 800.621 964.191 799.9C964.895 799.18 965.844 798.828 967.057 798.828C968.375 798.828 969.377 799.215 970.01 799.865C970.678 800.551 971.029 801.588 971.047 802.959L962.943 802.977ZM988.66 815.738C989.539 815.738 990.277 815.439 990.893 814.824C991.49 814.227 991.789 813.453 991.789 812.521C991.789 811.555 991.49 810.764 990.893 810.166C990.277 809.551 989.521 809.27 988.678 809.27C987.816 809.27 987.078 809.568 986.48 810.166C985.865 810.781 985.566 811.555 985.566 812.521C985.566 813.453 985.865 814.209 986.48 814.824C987.061 815.404 987.746 815.738 988.66 815.738ZM1014.48 792.975C1014.83 792.975 1015.01 792.799 1015.01 792.447V787.49C1015.01 787.139 1014.83 786.963 1014.48 786.963H1010.39C1010.04 786.963 1009.86 787.139 1009.86 787.49V792.447C1009.86 792.799 1010.04 792.975 1010.39 792.975H1014.48ZM1002.58 822.453H1008.14C1010.65 822.453 1012.39 821.785 1013.43 820.572C1014.48 819.307 1015.01 817.197 1015.01 814.244V795.312H1004.64V799.268H1009.86V814.244C1009.86 815.773 1009.61 816.881 1009.14 817.531C1008.66 818.182 1007.86 818.498 1006.7 818.498H1002.58V822.453ZM1032.11 815.51C1034.7 815.51 1036.72 815.018 1038.05 813.98C1039.37 812.979 1040.04 811.449 1040.04 809.428C1040.04 807.811 1039.64 806.404 1038.74 805.402C1037.84 804.4 1036.46 803.697 1034.61 803.258L1033.13 802.906L1032.94 802.854C1030.32 802.238 1029.18 801.535 1029.18 800.48C1029.18 799.936 1029.46 799.408 1030.07 799.074C1030.69 798.723 1031.53 798.582 1032.59 798.582C1033.73 798.582 1034.82 798.758 1035.75 799.039C1036.68 799.32 1037.74 799.812 1038.71 800.428V795.928C1037.72 795.576 1036.46 795.26 1035.49 795.102C1034.52 794.943 1033.29 794.838 1032.17 794.838C1029.67 794.838 1027.74 795.365 1026.37 796.42C1024.99 797.475 1024.31 798.969 1024.31 800.885C1024.31 802.449 1024.77 803.697 1025.66 804.664C1026.56 805.613 1028 806.316 1029.97 806.756L1031.39 807.072C1032.99 807.424 1033.94 807.793 1034.5 808.215C1035.07 808.637 1035.19 809.059 1035.19 809.604C1035.19 810.43 1034.87 810.887 1034.26 811.238C1033.62 811.59 1032.73 811.766 1031.57 811.766C1030.37 811.766 1029.3 811.59 1028.11 811.256C1026.93 810.922 1025.77 810.43 1024.62 809.779V814.279C1025.91 814.684 1027.21 815.018 1028.4 815.211C1029.6 815.404 1030.92 815.51 1032.11 815.51ZM1045.61 799.127H1049.39L1052.84 792.395V787.648H1047.34V792.395L1045.61 799.127ZM1054.75 799.127H1058.53L1061.98 792.395V787.648H1056.48V792.395L1054.75 799.127ZM1088.35 818.34H1092.23L1106.05 788.756H1102.16L1088.35 818.34ZM1109.6 813.084L1128.18 805.789V801.641L1109.6 794.328V798.723L1123.57 803.732L1109.6 808.707V813.084ZM499.127 862.084V857.707L485.152 852.732L499.127 847.723V843.328L480.547 850.641V854.789L499.127 862.084ZM502.678 867.34H506.562L520.379 837.756H516.494L502.678 867.34ZM525.406 864H530.521V852.732C530.521 851.273 530.785 850.113 531.312 849.287C531.84 848.461 532.578 848.057 533.545 848.057C534.406 848.057 535.092 848.355 535.496 848.971C535.9 849.586 536.094 850.588 536.094 852.012V864H541.209V851.221C541.209 848.777 540.734 846.932 539.785 845.684C538.836 844.453 537.43 843.838 535.584 843.838C534.336 843.838 533.264 844.137 532.385 844.734C531.523 845.332 530.891 846.176 530.521 847.266V836.648H525.406V864ZM562.936 864.07V860.115H558.98C558.049 860.115 557.328 859.957 556.854 859.535C556.414 859.148 556.203 858.516 556.203 857.654V848.268H562.936V844.312H556.203V836.648L551.053 838.934V844.312H546.025V848.268H551.053V857.408C551.053 859.957 551.58 861.715 552.617 862.646C553.654 863.596 555.641 864.07 558.611 864.07H562.936ZM567.207 864H571.426V851.361C571.426 849.885 571.531 848.9 571.76 848.426C571.988 847.934 572.393 847.688 572.973 847.688C573.57 847.688 573.975 847.934 574.203 848.443C574.432 848.971 574.555 849.938 574.555 851.361V864H578.721V851.361C578.721 849.885 578.844 848.953 579.072 848.461C579.283 847.986 579.617 847.688 580.303 847.688C580.883 847.688 581.287 847.934 581.516 848.443C581.744 848.953 581.85 849.814 581.85 851.361V864H586.068V852.908C586.068 849.252 585.787 846.844 585.102 845.596C584.486 844.471 583.326 843.838 581.621 843.838C580.707 843.838 579.951 844.031 579.371 844.436C578.773 844.84 578.281 845.455 577.895 846.281C577.754 845.596 577.35 845.016 576.699 844.541C576.049 844.066 575.328 843.838 574.537 843.838C573.693 843.838 572.938 844.102 572.357 844.506C571.725 844.945 571.25 845.561 570.951 846.352L570.441 844.312H567.207V864ZM606.863 864.141V860.186H602.75C601.59 860.186 600.781 859.869 600.307 859.219C599.832 858.568 599.586 857.461 599.586 855.932V836.648H589.215V840.604H594.436V855.932C594.436 858.885 594.963 860.994 596.035 862.242C597.107 863.508 598.865 864.141 601.309 864.141H606.863ZM610.695 862.084L629.275 854.789V850.641L610.695 843.328V847.723L624.67 852.732L610.695 857.707V862.084Z" fill="#A4A4A4"/>
</g>
<defs>
<clipPath id="clip0">
<rect width="2484" height="1335" fill="white"/>
</clipPath>
</defs>
</svg>
