<svg width="2484" height="1335" viewBox="0 0 2484 1335" fill="none" xmlns="http://www.w3.org/2000/svg">
<g id="get-request" clip-path="url(#clip0)">
<g id="Group 27">
<g id="InfoRectangle">
<rect id="Rectangle 21" x="1191" y="228" width="746" height="874" stroke="#BE8D6A" stroke-width="10"/>
<path id="Vector 16" d="M1273.23 944.732C1272.26 945.709 1272.26 947.291 1273.23 948.268L1289.14 964.178C1290.12 965.154 1291.7 965.154 1292.68 964.178C1293.65 963.201 1293.65 961.618 1292.68 960.642L1278.54 946.5L1292.68 932.358C1293.65 931.382 1293.65 929.799 1292.68 928.822C1291.7 927.846 1290.12 927.846 1289.14 928.822L1273.23 944.732ZM1670 800C1670 843.516 1658.02 873.988 1637.22 895.398C1616.35 916.869 1586.3 929.533 1549.58 936.798C1512.86 944.06 1469.73 945.875 1422.96 945.859C1399.59 945.852 1375.34 945.387 1350.55 944.924C1325.78 944.461 1300.46 944 1275 944L1275 949C1300.41 949 1325.68 949.46 1350.46 949.923C1375.23 950.386 1399.53 950.852 1422.96 950.859C1469.8 950.875 1513.33 949.065 1550.55 941.703C1587.76 934.342 1618.93 921.381 1640.8 898.883C1662.73 876.325 1675 844.484 1675 800L1670 800Z" fill="#BE8D6A"/>
<rect x="1187.5" y="224.5" width="753" height="881" stroke="#BE8D6A" stroke-width="3"/>
</g>
<path id="GET /posts/" d="M554.88 249.92H577.52V279.52C574.533 280.533 571.413 281.333 568.16 281.92C564.96 282.507 561.307 282.8 557.2 282.8C548.667 282.8 542.107 280.293 537.52 275.28C532.933 270.267 530.64 262.96 530.64 253.36C530.64 247.387 531.787 242.213 534.08 237.84C536.427 233.467 539.813 230.08 544.24 227.68C548.667 225.28 554.08 224.08 560.48 224.08C563.52 224.08 566.507 224.4 569.44 225.04C572.373 225.68 575.04 226.533 577.44 227.6L573.44 237.28C571.68 236.373 569.68 235.627 567.44 235.04C565.2 234.453 562.853 234.16 560.4 234.16C556.88 234.16 553.813 234.96 551.2 236.56C548.64 238.16 546.64 240.427 545.2 243.36C543.813 246.24 543.12 249.653 543.12 253.6C543.12 257.333 543.627 260.64 544.64 263.52C545.653 266.4 547.253 268.667 549.44 270.32C551.627 271.92 554.48 272.72 558 272.72C559.707 272.72 561.147 272.64 562.32 272.48C563.547 272.32 564.667 272.133 565.68 271.92V260H554.88V249.92ZM623.971 282H591.091V224.88H623.971V234.8H603.171V247.36H622.531V257.28H603.171V272H623.971V282ZM657.856 282H645.776V234.96H630.256V224.88H673.376V234.96H657.856V282ZM728.406 224.88L707.126 282H696.326L717.606 224.88H728.406ZM759.373 237.52C764.279 237.52 768.253 239.44 771.293 243.28C774.333 247.067 775.852 252.667 775.852 260.08C775.852 267.493 774.279 273.147 771.133 277.04C767.986 280.88 763.959 282.8 759.053 282.8C755.906 282.8 753.399 282.24 751.533 281.12C749.666 279.947 748.146 278.64 746.973 277.2H746.333C746.759 279.44 746.973 281.573 746.973 283.6V301.2H735.053V238.32H744.733L746.413 244H746.973C748.146 242.24 749.719 240.72 751.693 239.44C753.666 238.16 756.226 237.52 759.373 237.52ZM755.533 247.04C752.439 247.04 750.253 248 748.973 249.92C747.746 251.84 747.079 254.773 746.973 258.72V260C746.973 264.213 747.586 267.467 748.812 269.76C750.093 272 752.386 273.12 755.693 273.12C758.413 273.12 760.413 272 761.693 269.76C763.026 267.467 763.693 264.187 763.693 259.92C763.693 251.333 760.973 247.04 755.533 247.04ZM825.358 260.08C825.358 267.333 823.438 272.933 819.598 276.88C815.811 280.827 810.638 282.8 804.078 282.8C800.024 282.8 796.398 281.92 793.198 280.16C790.051 278.4 787.571 275.84 785.758 272.48C783.944 269.067 783.038 264.933 783.038 260.08C783.038 252.827 784.931 247.253 788.718 243.36C792.504 239.467 797.704 237.52 804.318 237.52C808.424 237.52 812.051 238.4 815.198 240.16C818.344 241.92 820.824 244.48 822.638 247.84C824.451 251.147 825.358 255.227 825.358 260.08ZM795.198 260.08C795.198 264.4 795.891 267.68 797.278 269.92C798.718 272.107 801.038 273.2 804.238 273.2C807.384 273.2 809.651 272.107 811.038 269.92C812.478 267.68 813.198 264.4 813.198 260.08C813.198 255.76 812.478 252.533 811.038 250.4C809.651 248.213 807.358 247.12 804.158 247.12C801.011 247.12 798.718 248.213 797.278 250.4C795.891 252.533 795.198 255.76 795.198 260.08ZM865.689 269.04C865.689 273.467 864.115 276.88 860.969 279.28C857.875 281.627 853.235 282.8 847.049 282.8C844.009 282.8 841.395 282.587 839.209 282.16C837.022 281.787 834.835 281.147 832.649 280.24V270.4C834.995 271.467 837.529 272.347 840.249 273.04C842.969 273.733 845.369 274.08 847.449 274.08C849.795 274.08 851.449 273.733 852.409 273.04C853.422 272.347 853.929 271.44 853.929 270.32C853.929 269.573 853.715 268.907 853.289 268.32C852.915 267.733 852.062 267.067 850.729 266.32C849.395 265.573 847.315 264.613 844.489 263.44C841.769 262.267 839.529 261.12 837.769 260C836.009 258.827 834.702 257.44 833.849 255.84C832.995 254.187 832.569 252.133 832.569 249.68C832.569 245.627 834.142 242.587 837.289 240.56C840.435 238.533 844.622 237.52 849.849 237.52C852.569 237.52 855.155 237.787 857.609 238.32C860.062 238.853 862.595 239.733 865.209 240.96L861.609 249.52C859.475 248.613 857.449 247.867 855.529 247.28C853.609 246.64 851.662 246.32 849.689 246.32C846.169 246.32 844.409 247.28 844.409 249.2C844.409 249.893 844.622 250.533 845.049 251.12C845.529 251.653 846.409 252.24 847.689 252.88C849.022 253.52 850.969 254.373 853.529 255.44C856.035 256.453 858.195 257.52 860.009 258.64C861.822 259.707 863.209 261.067 864.169 262.72C865.182 264.32 865.689 266.427 865.689 269.04ZM893.374 273.28C894.708 273.28 895.988 273.147 897.214 272.88C898.441 272.613 899.668 272.293 900.894 271.92V280.8C899.614 281.333 898.014 281.787 896.094 282.16C894.228 282.587 892.174 282.8 889.934 282.8C887.321 282.8 884.974 282.373 882.894 281.52C880.868 280.667 879.241 279.2 878.014 277.12C876.841 274.987 876.254 272.053 876.254 268.32V247.28H870.574V242.24L877.134 238.24L880.574 229.04H888.174V238.32H900.414V247.28H888.174V268.32C888.174 269.973 888.654 271.227 889.614 272.08C890.574 272.88 891.828 273.28 893.374 273.28ZM940.142 269.04C940.142 273.467 938.569 276.88 935.422 279.28C932.329 281.627 927.689 282.8 921.502 282.8C918.462 282.8 915.849 282.587 913.662 282.16C911.475 281.787 909.289 281.147 907.102 280.24V270.4C909.449 271.467 911.982 272.347 914.702 273.04C917.422 273.733 919.822 274.08 921.902 274.08C924.249 274.08 925.902 273.733 926.862 273.04C927.875 272.347 928.382 271.44 928.382 270.32C928.382 269.573 928.169 268.907 927.742 268.32C927.369 267.733 926.515 267.067 925.182 266.32C923.849 265.573 921.769 264.613 918.942 263.44C916.222 262.267 913.982 261.12 912.222 260C910.462 258.827 909.155 257.44 908.302 255.84C907.449 254.187 907.022 252.133 907.022 249.68C907.022 245.627 908.595 242.587 911.742 240.56C914.889 238.533 919.075 237.52 924.302 237.52C927.022 237.52 929.609 237.787 932.062 238.32C934.515 238.853 937.049 239.733 939.662 240.96L936.062 249.52C933.929 248.613 931.902 247.867 929.982 247.28C928.062 246.64 926.115 246.32 924.142 246.32C920.622 246.32 918.862 247.28 918.862 249.2C918.862 249.893 919.075 250.533 919.502 251.12C919.982 251.653 920.862 252.24 922.142 252.88C923.475 253.52 925.422 254.373 927.982 255.44C930.489 256.453 932.649 257.52 934.462 258.64C936.275 259.707 937.662 261.067 938.622 262.72C939.635 264.32 940.142 266.427 940.142 269.04ZM975.828 224.88L954.548 282H943.748L965.028 224.88H975.828Z" fill="#A4A4A4"/>
<path id="Arrow 3" d="M1103.95 359.95C1106.68 357.216 1106.68 352.784 1103.95 350.05L1059.4 305.503C1056.67 302.769 1052.24 302.769 1049.5 305.503C1046.77 308.236 1046.77 312.668 1049.5 315.402L1089.1 355L1049.5 394.598C1046.77 397.332 1046.77 401.764 1049.5 404.497C1052.24 407.231 1056.67 407.231 1059.4 404.497L1103.95 359.95ZM526 362H1099V348H526V362Z" fill="#BE8D6A"/>
<path id="Arrow 5" d="M540.05 942.05C537.317 944.784 537.317 949.216 540.05 951.95L584.598 996.498C587.332 999.231 591.764 999.231 594.497 996.498C597.231 993.764 597.231 989.332 594.497 986.598L554.899 947L594.497 907.402C597.231 904.668 597.231 900.236 594.497 897.503C591.764 894.769 587.332 894.769 584.598 897.503L540.05 942.05ZM1099 940L545 940L545 954L1099 954L1099 940Z" fill="#BE8D6A"/>
<path id="output/" d="M1378.53 426.51C1381.39 426.51 1383.64 425.473 1385.19 423.715C1386.81 421.869 1387.63 419.32 1387.63 416.174C1387.63 412.852 1386.72 410.338 1385.17 408.598C1383.62 406.857 1381.39 405.838 1378.51 405.838C1375.75 405.838 1373.48 406.787 1371.86 408.615C1370.25 410.443 1369.4 413.01 1369.4 416.156C1369.4 419.25 1370.23 421.887 1371.86 423.732C1373.34 425.402 1375.52 426.51 1378.53 426.51ZM1378.51 422.326C1377.28 422.326 1376.31 421.781 1375.61 420.709C1374.9 419.619 1374.55 418.107 1374.55 416.156C1374.55 414.24 1374.9 412.729 1375.61 411.639C1376.26 410.637 1377.19 410.021 1378.51 410.021C1379.7 410.021 1380.71 410.514 1381.43 411.639C1382.13 412.729 1382.48 414.24 1382.48 416.156C1382.48 418.107 1382.13 419.619 1381.43 420.709C1380.72 421.781 1379.76 422.326 1378.51 422.326ZM1397.83 426.51C1399.07 426.51 1400.15 426.211 1401.03 425.613C1401.89 425.016 1402.5 424.172 1402.87 423.082L1403.38 426H1408.02V406.312H1402.87V417.615C1402.87 419.074 1402.61 420.234 1402.1 421.061C1401.54 421.957 1400.78 422.291 1399.88 422.291C1399.02 422.291 1398.34 421.992 1397.93 421.377C1397.53 420.762 1397.33 419.76 1397.33 418.336V406.312H1392.18V419.127C1392.18 421.57 1392.66 423.398 1393.63 424.646C1394.63 425.965 1396.07 426.51 1397.83 426.51ZM1429.92 426.07V422.115H1425.97C1425.04 422.115 1424.32 421.957 1423.84 421.535C1423.4 421.148 1423.19 420.516 1423.19 419.654V410.268H1429.92V406.312H1423.19V398.648L1418.04 400.934V406.312H1413.01V410.268H1418.04V419.408C1418.04 421.957 1418.57 423.715 1419.61 424.646C1420.64 425.596 1422.63 426.07 1425.6 426.07H1429.92ZM1435.39 433.488H1440.52V423.223C1441.14 424.348 1441.97 425.191 1442.72 425.684C1443.62 426.299 1444.57 426.51 1445.67 426.51C1447.8 426.51 1449.68 425.666 1450.97 423.838C1452.16 422.15 1452.85 419.619 1452.85 416.191C1452.85 412.975 1452.25 410.355 1450.98 408.527C1449.72 406.717 1447.96 405.838 1445.76 405.838C1444.55 405.838 1443.51 406.119 1442.65 406.699C1441.77 407.279 1441.07 408.123 1440.52 409.266L1440.01 406.312H1435.39V433.488ZM1444.13 422.221C1443.02 422.221 1442.14 421.676 1441.49 420.604C1440.84 419.531 1440.52 418.055 1440.52 416.139C1440.52 414.223 1440.84 412.746 1441.49 411.674C1442.14 410.602 1443.02 410.057 1444.13 410.057C1445.23 410.057 1446.11 410.602 1446.75 411.674C1447.38 412.746 1447.7 414.24 1447.7 416.139C1447.7 418.055 1447.38 419.531 1446.75 420.604C1446.11 421.676 1445.23 422.221 1444.13 422.221ZM1462.9 426.51C1464.15 426.51 1465.22 426.211 1466.1 425.613C1466.96 425.016 1467.58 424.172 1467.95 423.082L1468.46 426H1473.1V406.312H1467.95V417.615C1467.95 419.074 1467.68 420.234 1467.17 421.061C1466.61 421.957 1465.85 422.291 1464.96 422.291C1464.1 422.291 1463.41 421.992 1463.01 421.377C1462.6 420.762 1462.41 419.76 1462.41 418.336V406.312H1457.26V419.127C1457.26 421.57 1457.73 423.398 1458.7 424.646C1459.7 425.965 1461.14 426.51 1462.9 426.51ZM1495 426.07V422.115H1491.04C1490.11 422.115 1489.39 421.957 1488.92 421.535C1488.48 421.148 1488.27 420.516 1488.27 419.654V410.268H1495V406.312H1488.27V398.648L1483.12 400.934V406.312H1478.09V410.268H1483.12V419.408C1483.12 421.957 1483.64 423.715 1484.68 424.646C1485.72 425.596 1487.7 426.07 1490.67 426.07H1495ZM1499.81 429.34H1503.7L1517.52 399.756H1513.63L1499.81 429.34Z" fill="#BE8D6A"/>
<path id="posts/" d="M1473.16 682.488H1478.3V672.223C1478.91 673.348 1479.74 674.191 1480.49 674.684C1481.39 675.299 1482.34 675.51 1483.45 675.51C1485.57 675.51 1487.45 674.666 1488.74 672.838C1489.93 671.15 1490.62 668.619 1490.62 665.191C1490.62 661.975 1490.02 659.355 1488.75 657.527C1487.49 655.717 1485.73 654.838 1483.53 654.838C1482.32 654.838 1481.28 655.119 1480.42 655.699C1479.54 656.279 1478.84 657.123 1478.3 658.266L1477.79 655.312H1473.16V682.488ZM1481.9 671.221C1480.79 671.221 1479.91 670.676 1479.26 669.604C1478.61 668.531 1478.3 667.055 1478.3 665.139C1478.3 663.223 1478.61 661.746 1479.26 660.674C1479.91 659.602 1480.79 659.057 1481.9 659.057C1483.01 659.057 1483.89 659.602 1484.52 660.674C1485.15 661.746 1485.47 663.24 1485.47 665.139C1485.47 667.055 1485.15 668.531 1484.52 669.604C1483.89 670.676 1483.01 671.221 1481.9 671.221ZM1503.06 675.51C1505.93 675.51 1508.18 674.473 1509.73 672.715C1511.34 670.869 1512.17 668.32 1512.17 665.174C1512.17 661.852 1511.25 659.338 1509.71 657.598C1508.16 655.857 1505.93 654.838 1503.05 654.838C1500.29 654.838 1498.02 655.787 1496.4 657.615C1494.78 659.443 1493.94 662.01 1493.94 665.156C1493.94 668.25 1494.77 670.887 1496.4 672.732C1497.88 674.402 1500.06 675.51 1503.06 675.51ZM1503.05 671.326C1501.81 671.326 1500.85 670.781 1500.14 669.709C1499.44 668.619 1499.09 667.107 1499.09 665.156C1499.09 663.24 1499.44 661.729 1500.14 660.639C1500.8 659.637 1501.73 659.021 1503.05 659.021C1504.24 659.021 1505.24 659.514 1505.96 660.639C1506.67 661.729 1507.02 663.24 1507.02 665.156C1507.02 667.107 1506.67 668.619 1505.96 669.709C1505.26 670.781 1504.29 671.326 1503.05 671.326ZM1524.74 675.51C1527.32 675.51 1529.34 675.018 1530.68 673.98C1532 672.979 1532.66 671.449 1532.66 669.428C1532.66 667.811 1532.26 666.404 1531.36 665.402C1530.47 664.4 1529.08 663.697 1527.23 663.258L1525.76 662.906L1525.56 662.854C1522.94 662.238 1521.8 661.535 1521.8 660.48C1521.8 659.936 1522.08 659.408 1522.7 659.074C1523.31 658.723 1524.16 658.582 1525.21 658.582C1526.35 658.582 1527.44 658.758 1528.38 659.039C1529.31 659.32 1530.36 659.812 1531.33 660.428V655.928C1530.34 655.576 1529.08 655.26 1528.11 655.102C1527.14 654.943 1525.91 654.838 1524.79 654.838C1522.29 654.838 1520.36 655.365 1518.99 656.42C1517.62 657.475 1516.93 658.969 1516.93 660.885C1516.93 662.449 1517.39 663.697 1518.29 664.664C1519.18 665.613 1520.62 666.316 1522.59 666.756L1524.02 667.072C1525.62 667.424 1526.56 667.793 1527.13 668.215C1527.69 668.637 1527.81 669.059 1527.81 669.604C1527.81 670.43 1527.5 670.887 1526.88 671.238C1526.25 671.59 1525.35 671.766 1524.19 671.766C1523 671.766 1521.92 671.59 1520.73 671.256C1519.55 670.922 1518.39 670.43 1517.25 669.779V674.279C1518.53 674.684 1519.83 675.018 1521.03 675.211C1522.22 675.404 1523.54 675.51 1524.74 675.51ZM1554.46 675.07V671.115H1550.51C1549.57 671.115 1548.85 670.957 1548.38 670.535C1547.94 670.148 1547.73 669.516 1547.73 668.654V659.268H1554.46V655.312H1547.73V647.648L1542.58 649.934V655.312H1537.55V659.268H1542.58V668.408C1542.58 670.957 1543.11 672.715 1544.14 673.646C1545.18 674.596 1547.17 675.07 1550.14 675.07H1554.46ZM1568.12 675.51C1570.7 675.51 1572.73 675.018 1574.06 673.98C1575.38 672.979 1576.05 671.449 1576.05 669.428C1576.05 667.811 1575.64 666.404 1574.75 665.402C1573.85 664.4 1572.46 663.697 1570.62 663.258L1569.14 662.906L1568.95 662.854C1566.33 662.238 1565.18 661.535 1565.18 660.48C1565.18 659.936 1565.47 659.408 1566.08 659.074C1566.7 658.723 1567.54 658.582 1568.59 658.582C1569.74 658.582 1570.83 658.758 1571.76 659.039C1572.69 659.32 1573.74 659.812 1574.71 660.428V655.928C1573.73 655.576 1572.46 655.26 1571.49 655.102C1570.53 654.943 1569.3 654.838 1568.17 654.838C1565.68 654.838 1563.74 655.365 1562.37 656.42C1561 657.475 1560.31 658.969 1560.31 660.885C1560.31 662.449 1560.77 663.697 1561.67 664.664C1562.56 665.613 1564.01 666.316 1565.98 666.756L1567.4 667.072C1569 667.424 1569.95 667.793 1570.51 668.215C1571.07 668.637 1571.2 669.059 1571.2 669.604C1571.2 670.43 1570.88 670.887 1570.26 671.238C1569.63 671.59 1568.73 671.766 1567.57 671.766C1566.38 671.766 1565.31 671.59 1564.11 671.256C1562.93 670.922 1561.77 670.43 1560.63 669.779V674.279C1561.91 674.684 1563.22 675.018 1564.41 675.211C1565.61 675.404 1566.92 675.51 1568.12 675.51ZM1580.97 678.34H1584.85L1598.67 648.756H1594.79L1580.97 678.34Z" fill="#BE8D6A"/>
<path id="index.html" d="M1584.17 727.975C1584.52 727.975 1584.69 727.799 1584.69 727.447V722.49C1584.69 722.139 1584.52 721.963 1584.17 721.963H1580.07C1579.72 721.963 1579.54 722.139 1579.54 722.49V727.447C1579.54 727.799 1579.72 727.975 1580.07 727.975H1584.17ZM1591.97 750.211V746.256H1587.86C1586.7 746.256 1585.89 745.939 1585.41 745.289C1584.94 744.639 1584.69 743.531 1584.69 742.002V730.312H1575.38V734.268H1579.54V742.002C1579.54 744.955 1580.07 747.064 1581.14 748.312C1582.22 749.578 1583.97 750.211 1586.42 750.211H1591.97ZM1596.86 750H1601.97V738.732C1601.97 737.115 1602.27 736.061 1602.78 735.27C1603.33 734.443 1604.01 734.021 1605.01 734.021C1605.86 734.021 1606.54 734.32 1606.95 734.936C1607.35 735.551 1607.55 736.57 1607.55 738.012V750H1612.66V737.221C1612.66 734.777 1612.19 732.932 1611.24 731.684C1610.29 730.453 1608.88 729.838 1607.04 729.838C1605.79 729.838 1604.72 730.137 1603.84 730.734C1602.98 731.332 1602.34 732.176 1601.97 733.266L1601.46 730.312H1596.86V750ZM1624.17 750.51C1625.39 750.51 1626.44 750.229 1627.3 749.648C1628.15 749.086 1628.89 748.225 1629.43 747.082L1629.94 750H1634.56V722.648H1629.43V733.107C1628.8 732.018 1628.06 731.191 1627.23 730.646C1626.34 730.066 1625.4 729.838 1624.28 729.838C1621.96 729.838 1620.2 730.822 1619.01 732.51C1617.74 734.285 1617.11 736.834 1617.11 740.156C1617.11 743.479 1617.72 746.027 1618.97 747.82C1620.24 749.631 1621.99 750.51 1624.17 750.51ZM1625.83 746.291C1624.72 746.291 1623.84 745.746 1623.21 744.674C1622.57 743.602 1622.26 742.125 1622.26 740.209C1622.26 738.311 1622.57 736.816 1623.21 735.744C1623.84 734.672 1624.72 734.127 1625.83 734.127C1626.93 734.127 1627.81 734.672 1628.46 735.744C1629.11 736.816 1629.43 738.293 1629.43 740.209C1629.43 742.125 1629.11 743.602 1628.46 744.674C1627.81 745.746 1626.93 746.291 1625.83 746.291ZM1648.91 750.51C1650.17 750.51 1651.49 750.404 1652.76 750.141C1654 749.895 1655.22 749.525 1656.41 749.033V744.305C1655.08 745.096 1653.88 745.588 1652.81 745.922C1651.65 746.256 1650.47 746.432 1649.29 746.432C1647.52 746.432 1646.16 746.045 1645.27 745.289C1644.37 744.533 1643.91 743.391 1643.9 741.826H1657.24V739.734C1657.24 736.711 1656.5 734.197 1654.83 732.422C1653.16 730.646 1650.82 729.838 1648.06 729.838C1645.13 729.838 1642.84 730.77 1641.17 732.633C1639.48 734.514 1638.66 736.975 1638.66 740.262C1638.66 743.549 1639.54 746.08 1641.28 747.855C1643.04 749.631 1645.48 750.51 1648.91 750.51ZM1643.95 737.977C1644.07 736.658 1644.49 735.621 1645.2 734.9C1645.9 734.18 1646.85 733.828 1648.06 733.828C1649.38 733.828 1650.38 734.215 1651.02 734.865C1651.68 735.551 1652.04 736.588 1652.05 737.959L1643.95 737.977ZM1659.88 750H1665.89L1669.74 743.373L1673.6 750H1679.62L1672.41 739.734L1679.04 730.312H1673.02L1669.74 736.184L1666.47 730.312H1660.46L1667.15 739.734L1659.88 750ZM1691.36 750.738C1692.24 750.738 1692.98 750.439 1693.59 749.824C1694.19 749.227 1694.49 748.453 1694.49 747.521C1694.49 746.555 1694.19 745.764 1693.59 745.166C1692.98 744.551 1692.22 744.27 1691.38 744.27C1690.51 744.27 1689.78 744.568 1689.18 745.166C1688.56 745.781 1688.26 746.555 1688.26 747.521C1688.26 748.453 1688.56 749.209 1689.18 749.824C1689.76 750.404 1690.44 750.738 1691.36 750.738ZM1705.31 750H1710.43V738.732C1710.43 737.273 1710.69 736.113 1711.22 735.287C1711.75 734.461 1712.49 734.057 1713.45 734.057C1714.31 734.057 1715 734.355 1715.4 734.971C1715.81 735.586 1716 736.588 1716 738.012V750H1721.12V737.221C1721.12 734.777 1720.64 732.932 1719.69 731.684C1718.74 730.453 1717.34 729.838 1715.49 729.838C1714.24 729.838 1713.17 730.137 1712.29 730.734C1711.43 731.332 1710.8 732.176 1710.43 733.266V722.648H1705.31V750ZM1742.84 750.07V746.115H1738.89C1737.96 746.115 1737.24 745.957 1736.76 745.535C1736.32 745.148 1736.11 744.516 1736.11 743.654V734.268H1742.84V730.312H1736.11V722.648L1730.96 724.934V730.312H1725.93V734.268H1730.96V743.408C1730.96 745.957 1731.49 747.715 1732.53 748.646C1733.56 749.596 1735.55 750.07 1738.52 750.07H1742.84ZM1747.12 750H1751.33V737.361C1751.33 735.885 1751.44 734.9 1751.67 734.426C1751.9 733.934 1752.3 733.688 1752.88 733.688C1753.48 733.688 1753.88 733.934 1754.11 734.443C1754.34 734.971 1754.46 735.938 1754.46 737.361V750H1758.63V737.361C1758.63 735.885 1758.75 734.953 1758.98 734.461C1759.19 733.986 1759.53 733.688 1760.21 733.688C1760.79 733.688 1761.2 733.934 1761.42 734.443C1761.65 734.953 1761.76 735.814 1761.76 737.361V750H1765.98V738.908C1765.98 735.252 1765.7 732.844 1765.01 731.596C1764.39 730.471 1763.23 729.838 1761.53 729.838C1760.62 729.838 1759.86 730.031 1759.28 730.436C1758.68 730.84 1758.19 731.455 1757.8 732.281C1757.66 731.596 1757.26 731.016 1756.61 730.541C1755.96 730.066 1755.24 729.838 1754.45 729.838C1753.6 729.838 1752.85 730.102 1752.27 730.506C1751.63 730.945 1751.16 731.561 1750.86 732.352L1750.35 730.312H1747.12V750ZM1786.77 750.141V746.186H1782.66C1781.5 746.186 1780.69 745.869 1780.22 745.219C1779.74 744.568 1779.49 743.461 1779.49 741.932V722.648H1769.12V726.604H1774.34V741.932C1774.34 744.885 1774.87 746.994 1775.94 748.242C1777.02 749.508 1778.77 750.141 1781.22 750.141H1786.77Z" fill="#BE8D6A"/>
<g id="Group 22">
<line id="Line 5" x1="1376.5" y1="455" x2="1376.5" y2="671" stroke="#BE8D6A" stroke-width="5"/>
<line id="Line 6" x1="1451" y1="668.5" x2="1374" y2="668.5" stroke="#BE8D6A" stroke-width="5"/>
</g>
<g id="Group 24">
<line id="Line 5_2" x1="1474.5" y1="713" x2="1474.5" y2="743" stroke="#BE8D6A" stroke-width="5"/>
<line id="Line 6_2" x1="1549" y1="740.5" x2="1472" y2="740.5" stroke="#BE8D6A" stroke-width="5"/>
</g>
<path id=".../" d="M1481.98 495.738C1482.85 495.738 1483.59 495.439 1484.21 494.824C1484.81 494.227 1485.1 493.453 1485.1 492.521C1485.1 491.555 1484.81 490.764 1484.21 490.166C1483.59 489.551 1482.84 489.27 1481.99 489.27C1481.13 489.27 1480.39 489.568 1479.8 490.166C1479.18 490.781 1478.88 491.555 1478.88 492.521C1478.88 493.453 1479.18 494.209 1479.8 494.824C1480.38 495.404 1481.06 495.738 1481.98 495.738ZM1503.67 495.738C1504.55 495.738 1505.28 495.439 1505.9 494.824C1506.5 494.227 1506.8 493.453 1506.8 492.521C1506.8 491.555 1506.5 490.764 1505.9 490.166C1505.28 489.551 1504.53 489.27 1503.68 489.27C1502.82 489.27 1502.08 489.568 1501.49 490.166C1500.87 490.781 1500.57 491.555 1500.57 492.521C1500.57 493.453 1500.87 494.209 1501.49 494.824C1502.07 495.404 1502.75 495.738 1503.67 495.738ZM1525.36 495.738C1526.24 495.738 1526.98 495.439 1527.59 494.824C1528.19 494.227 1528.49 493.453 1528.49 492.521C1528.49 491.555 1528.19 490.764 1527.59 490.166C1526.98 489.551 1526.22 489.27 1525.38 489.27C1524.51 489.27 1523.78 489.568 1523.18 490.166C1522.56 490.781 1522.26 491.555 1522.26 492.521C1522.26 493.453 1522.56 494.209 1523.18 494.824C1523.76 495.404 1524.44 495.738 1525.36 495.738ZM1538.28 498.34H1542.16L1555.98 468.756H1552.09L1538.28 498.34Z" fill="#BE8D6A"/>
<path id="index.html_2" d="M1584.17 547.975C1584.52 547.975 1584.69 547.799 1584.69 547.447V542.49C1584.69 542.139 1584.52 541.963 1584.17 541.963H1580.07C1579.72 541.963 1579.54 542.139 1579.54 542.49V547.447C1579.54 547.799 1579.72 547.975 1580.07 547.975H1584.17ZM1591.97 570.211V566.256H1587.86C1586.7 566.256 1585.89 565.939 1585.41 565.289C1584.94 564.639 1584.69 563.531 1584.69 562.002V550.312H1575.38V554.268H1579.54V562.002C1579.54 564.955 1580.07 567.064 1581.14 568.312C1582.22 569.578 1583.97 570.211 1586.42 570.211H1591.97ZM1596.86 570H1601.97V558.732C1601.97 557.115 1602.27 556.061 1602.78 555.27C1603.33 554.443 1604.01 554.021 1605.01 554.021C1605.86 554.021 1606.54 554.32 1606.95 554.936C1607.35 555.551 1607.55 556.57 1607.55 558.012V570H1612.66V557.221C1612.66 554.777 1612.19 552.932 1611.24 551.684C1610.29 550.453 1608.88 549.838 1607.04 549.838C1605.79 549.838 1604.72 550.137 1603.84 550.734C1602.98 551.332 1602.34 552.176 1601.97 553.266L1601.46 550.312H1596.86V570ZM1624.17 570.51C1625.39 570.51 1626.44 570.229 1627.3 569.648C1628.15 569.086 1628.89 568.225 1629.43 567.082L1629.94 570H1634.56V542.648H1629.43V553.107C1628.8 552.018 1628.06 551.191 1627.23 550.646C1626.34 550.066 1625.4 549.838 1624.28 549.838C1621.96 549.838 1620.2 550.822 1619.01 552.51C1617.74 554.285 1617.11 556.834 1617.11 560.156C1617.11 563.479 1617.72 566.027 1618.97 567.82C1620.24 569.631 1621.99 570.51 1624.17 570.51ZM1625.83 566.291C1624.72 566.291 1623.84 565.746 1623.21 564.674C1622.57 563.602 1622.26 562.125 1622.26 560.209C1622.26 558.311 1622.57 556.816 1623.21 555.744C1623.84 554.672 1624.72 554.127 1625.83 554.127C1626.93 554.127 1627.81 554.672 1628.46 555.744C1629.11 556.816 1629.43 558.293 1629.43 560.209C1629.43 562.125 1629.11 563.602 1628.46 564.674C1627.81 565.746 1626.93 566.291 1625.83 566.291ZM1648.91 570.51C1650.17 570.51 1651.49 570.404 1652.76 570.141C1654 569.895 1655.22 569.525 1656.41 569.033V564.305C1655.08 565.096 1653.88 565.588 1652.81 565.922C1651.65 566.256 1650.47 566.432 1649.29 566.432C1647.52 566.432 1646.16 566.045 1645.27 565.289C1644.37 564.533 1643.91 563.391 1643.9 561.826H1657.24V559.734C1657.24 556.711 1656.5 554.197 1654.83 552.422C1653.16 550.646 1650.82 549.838 1648.06 549.838C1645.13 549.838 1642.84 550.77 1641.17 552.633C1639.48 554.514 1638.66 556.975 1638.66 560.262C1638.66 563.549 1639.54 566.08 1641.28 567.855C1643.04 569.631 1645.48 570.51 1648.91 570.51ZM1643.95 557.977C1644.07 556.658 1644.49 555.621 1645.2 554.9C1645.9 554.18 1646.85 553.828 1648.06 553.828C1649.38 553.828 1650.38 554.215 1651.02 554.865C1651.68 555.551 1652.04 556.588 1652.05 557.959L1643.95 557.977ZM1659.88 570H1665.89L1669.74 563.373L1673.6 570H1679.62L1672.41 559.734L1679.04 550.312H1673.02L1669.74 556.184L1666.47 550.312H1660.46L1667.15 559.734L1659.88 570ZM1691.36 570.738C1692.24 570.738 1692.98 570.439 1693.59 569.824C1694.19 569.227 1694.49 568.453 1694.49 567.521C1694.49 566.555 1694.19 565.764 1693.59 565.166C1692.98 564.551 1692.22 564.27 1691.38 564.27C1690.51 564.27 1689.78 564.568 1689.18 565.166C1688.56 565.781 1688.26 566.555 1688.26 567.521C1688.26 568.453 1688.56 569.209 1689.18 569.824C1689.76 570.404 1690.44 570.738 1691.36 570.738ZM1705.31 570H1710.43V558.732C1710.43 557.273 1710.69 556.113 1711.22 555.287C1711.75 554.461 1712.49 554.057 1713.45 554.057C1714.31 554.057 1715 554.355 1715.4 554.971C1715.81 555.586 1716 556.588 1716 558.012V570H1721.12V557.221C1721.12 554.777 1720.64 552.932 1719.69 551.684C1718.74 550.453 1717.34 549.838 1715.49 549.838C1714.24 549.838 1713.17 550.137 1712.29 550.734C1711.43 551.332 1710.8 552.176 1710.43 553.266V542.648H1705.31V570ZM1742.84 570.07V566.115H1738.89C1737.96 566.115 1737.24 565.957 1736.76 565.535C1736.32 565.148 1736.11 564.516 1736.11 563.654V554.268H1742.84V550.312H1736.11V542.648L1730.96 544.934V550.312H1725.93V554.268H1730.96V563.408C1730.96 565.957 1731.49 567.715 1732.53 568.646C1733.56 569.596 1735.55 570.07 1738.52 570.07H1742.84ZM1747.12 570H1751.33V557.361C1751.33 555.885 1751.44 554.9 1751.67 554.426C1751.9 553.934 1752.3 553.688 1752.88 553.688C1753.48 553.688 1753.88 553.934 1754.11 554.443C1754.34 554.971 1754.46 555.938 1754.46 557.361V570H1758.63V557.361C1758.63 555.885 1758.75 554.953 1758.98 554.461C1759.19 553.986 1759.53 553.688 1760.21 553.688C1760.79 553.688 1761.2 553.934 1761.42 554.443C1761.65 554.953 1761.76 555.814 1761.76 557.361V570H1765.98V558.908C1765.98 555.252 1765.7 552.844 1765.01 551.596C1764.39 550.471 1763.23 549.838 1761.53 549.838C1760.62 549.838 1759.86 550.031 1759.28 550.436C1758.68 550.84 1758.19 551.455 1757.8 552.281C1757.66 551.596 1757.26 551.016 1756.61 550.541C1755.96 550.066 1755.24 549.838 1754.45 549.838C1753.6 549.838 1752.85 550.102 1752.27 550.506C1751.63 550.945 1751.16 551.561 1750.86 552.352L1750.35 550.312H1747.12V570ZM1786.77 570.141V566.186H1782.66C1781.5 566.186 1780.69 565.869 1780.22 565.219C1779.74 564.568 1779.49 563.461 1779.49 561.932V542.648H1769.12V546.604H1774.34V561.932C1774.34 564.885 1774.87 566.994 1775.94 568.242C1777.02 569.508 1778.77 570.141 1781.22 570.141H1786.77Z" fill="#BE8D6A"/>
<g id="Group 25">
<line id="Line 6_3" x1="1451" y1="488.5" x2="1374" y2="488.5" stroke="#BE8D6A" stroke-width="5"/>
</g>
<g id="Group 26">
<line id="Line 5_3" x1="1474.5" y1="533" x2="1474.5" y2="563" stroke="#BE8D6A" stroke-width="5"/>
<line id="Line 6_4" x1="1549" y1="560.5" x2="1472" y2="560.5" stroke="#BE8D6A" stroke-width="5"/>
</g>
</g>
<path id="&#60;html&#62; &#60;h1&#62;All posts&#60;/h1&#62; &#60;/html&#62;" d="M519.836 712.445V706.609L501.203 699.977L519.836 693.297V687.438L495.062 697.188V702.719L519.836 712.445ZM525.953 715H532.773V699.977C532.773 698.031 533.125 696.484 533.828 695.383C534.531 694.281 535.516 693.742 536.805 693.742C537.953 693.742 538.867 694.141 539.406 694.961C539.945 695.781 540.203 697.117 540.203 699.016V715H547.023V697.961C547.023 694.703 546.391 692.242 545.125 690.578C543.859 688.938 541.984 688.117 539.523 688.117C537.859 688.117 536.43 688.516 535.258 689.312C534.109 690.109 533.266 691.234 532.773 692.688V678.531H525.953V715ZM575.992 715.094V709.82H570.719C569.477 709.82 568.516 709.609 567.883 709.047C567.297 708.531 567.016 707.688 567.016 706.539V694.023H575.992V688.75H567.016V678.531L560.148 681.578V688.75H553.445V694.023H560.148V706.211C560.148 709.609 560.852 711.953 562.234 713.195C563.617 714.461 566.266 715.094 570.227 715.094H575.992ZM581.688 715H587.312V698.148C587.312 696.18 587.453 694.867 587.758 694.234C588.062 693.578 588.602 693.25 589.375 693.25C590.172 693.25 590.711 693.578 591.016 694.258C591.32 694.961 591.484 696.25 591.484 698.148V715H597.039V698.148C597.039 696.18 597.203 694.938 597.508 694.281C597.789 693.648 598.234 693.25 599.148 693.25C599.922 693.25 600.461 693.578 600.766 694.258C601.07 694.938 601.211 696.086 601.211 698.148V715H606.836V700.211C606.836 695.336 606.461 692.125 605.547 690.461C604.727 688.961 603.18 688.117 600.906 688.117C599.688 688.117 598.68 688.375 597.906 688.914C597.109 689.453 596.453 690.273 595.938 691.375C595.75 690.461 595.211 689.688 594.344 689.055C593.477 688.422 592.516 688.117 591.461 688.117C590.336 688.117 589.328 688.469 588.555 689.008C587.711 689.594 587.078 690.414 586.68 691.469L586 688.75H581.688V715ZM634.562 715.188V709.914H629.078C627.531 709.914 626.453 709.492 625.82 708.625C625.188 707.758 624.859 706.281 624.859 704.242V678.531H611.031V683.805H617.992V704.242C617.992 708.18 618.695 710.992 620.125 712.656C621.555 714.344 623.898 715.188 627.156 715.188H634.562ZM639.672 712.445L664.445 702.719V697.188L639.672 687.438V693.297L658.305 699.977L639.672 706.609V712.445ZM548.758 778.445V772.609L530.125 765.977L548.758 759.297V753.438L523.984 763.188V768.719L548.758 778.445ZM554.875 781H561.695V765.977C561.695 764.031 562.047 762.484 562.75 761.383C563.453 760.281 564.438 759.742 565.727 759.742C566.875 759.742 567.789 760.141 568.328 760.961C568.867 761.781 569.125 763.117 569.125 765.016V781H575.945V763.961C575.945 760.703 575.312 758.242 574.047 756.578C572.781 754.938 570.906 754.117 568.445 754.117C566.781 754.117 565.352 754.516 564.18 755.312C563.031 756.109 562.188 757.234 561.695 758.688V744.531H554.875V781ZM584.172 781H606.367V774.906H598.633V746.008H591.953L584.711 747.742V753.977L591.906 752.195V774.906H584.172V781ZM610.75 778.445L635.523 768.719V763.188L610.75 753.438V759.297L629.383 765.977L610.75 772.609V778.445ZM638.383 781H645.297L647.406 772.352H656.664L658.82 781H665.734L656.289 746.008H647.828L638.383 781ZM648.789 766.656L652.047 752.336L655.328 766.656H648.789ZM692.406 781.188V775.914H686.922C685.375 775.914 684.297 775.492 683.664 774.625C683.031 773.758 682.703 772.281 682.703 770.242V744.531H668.875V749.805H675.836V770.242C675.836 774.18 676.539 776.992 677.969 778.656C679.398 780.344 681.742 781.188 685 781.188H692.406ZM721.328 781.188V775.914H715.844C714.297 775.914 713.219 775.492 712.586 774.625C711.953 773.758 711.625 772.281 711.625 770.242V744.531H697.797V749.805H704.758V770.242C704.758 774.18 705.461 776.992 706.891 778.656C708.32 780.344 710.664 781.188 713.922 781.188H721.328ZM756.812 790.984H763.656V777.297C764.477 778.797 765.578 779.922 766.586 780.578C767.781 781.398 769.047 781.68 770.523 781.68C773.359 781.68 775.867 780.555 777.578 778.117C779.172 775.867 780.086 772.492 780.086 767.922C780.086 763.633 779.289 760.141 777.602 757.703C775.914 755.289 773.57 754.117 770.641 754.117C769.023 754.117 767.641 754.492 766.492 755.266C765.32 756.039 764.383 757.164 763.656 758.688L762.977 754.75H756.812V790.984ZM768.461 775.961C766.984 775.961 765.812 775.234 764.945 773.805C764.078 772.375 763.656 770.406 763.656 767.852C763.656 765.297 764.078 763.328 764.945 761.898C765.812 760.469 766.984 759.742 768.461 759.742C769.938 759.742 771.109 760.469 771.953 761.898C772.797 763.328 773.219 765.32 773.219 767.852C773.219 770.406 772.797 772.375 771.953 773.805C771.109 775.234 769.938 775.961 768.461 775.961ZM796.68 781.68C800.5 781.68 803.5 780.297 805.562 777.953C807.719 775.492 808.82 772.094 808.82 767.898C808.82 763.469 807.602 760.117 805.539 757.797C803.477 755.477 800.5 754.117 796.656 754.117C792.977 754.117 789.953 755.383 787.797 757.82C785.641 760.258 784.516 763.68 784.516 767.875C784.516 772 785.617 775.516 787.797 777.977C789.766 780.203 792.672 781.68 796.68 781.68ZM796.656 776.102C795.016 776.102 793.727 775.375 792.789 773.945C791.852 772.492 791.383 770.477 791.383 767.875C791.383 765.32 791.852 763.305 792.789 761.852C793.656 760.516 794.898 759.695 796.656 759.695C798.25 759.695 799.586 760.352 800.547 761.852C801.484 763.305 801.953 765.32 801.953 767.875C801.953 770.477 801.484 772.492 800.547 773.945C799.609 775.375 798.32 776.102 796.656 776.102ZM825.578 781.68C829.023 781.68 831.719 781.023 833.5 779.641C835.258 778.305 836.148 776.266 836.148 773.57C836.148 771.414 835.609 769.539 834.414 768.203C833.219 766.867 831.367 765.93 828.906 765.344L826.938 764.875L826.68 764.805C823.188 763.984 821.664 763.047 821.664 761.641C821.664 760.914 822.039 760.211 822.859 759.766C823.68 759.297 824.805 759.109 826.211 759.109C827.734 759.109 829.188 759.344 830.43 759.719C831.672 760.094 833.078 760.75 834.367 761.57V755.57C833.055 755.102 831.367 754.68 830.078 754.469C828.789 754.258 827.148 754.117 825.648 754.117C822.32 754.117 819.742 754.82 817.914 756.227C816.086 757.633 815.172 759.625 815.172 762.18C815.172 764.266 815.781 765.93 816.977 767.219C818.172 768.484 820.094 769.422 822.719 770.008L824.617 770.43C826.75 770.898 828.016 771.391 828.766 771.953C829.516 772.516 829.68 773.078 829.68 773.805C829.68 774.906 829.258 775.516 828.438 775.984C827.594 776.453 826.398 776.688 824.852 776.688C823.258 776.688 821.828 776.453 820.234 776.008C818.664 775.562 817.117 774.906 815.594 774.039V780.039C817.305 780.578 819.039 781.023 820.633 781.281C822.227 781.539 823.984 781.68 825.578 781.68ZM865.211 781.094V775.82H859.938C858.695 775.82 857.734 775.609 857.102 775.047C856.516 774.531 856.234 773.688 856.234 772.539V760.023H865.211V754.75H856.234V744.531L849.367 747.578V754.75H842.664V760.023H849.367V772.211C849.367 775.609 850.07 777.953 851.453 779.195C852.836 780.461 855.484 781.094 859.445 781.094H865.211ZM883.422 781.68C886.867 781.68 889.562 781.023 891.344 779.641C893.102 778.305 893.992 776.266 893.992 773.57C893.992 771.414 893.453 769.539 892.258 768.203C891.062 766.867 889.211 765.93 886.75 765.344L884.781 764.875L884.523 764.805C881.031 763.984 879.508 763.047 879.508 761.641C879.508 760.914 879.883 760.211 880.703 759.766C881.523 759.297 882.648 759.109 884.055 759.109C885.578 759.109 887.031 759.344 888.273 759.719C889.516 760.094 890.922 760.75 892.211 761.57V755.57C890.898 755.102 889.211 754.68 887.922 754.469C886.633 754.258 884.992 754.117 883.492 754.117C880.164 754.117 877.586 754.82 875.758 756.227C873.93 757.633 873.016 759.625 873.016 762.18C873.016 764.266 873.625 765.93 874.82 767.219C876.016 768.484 877.938 769.422 880.562 770.008L882.461 770.43C884.594 770.898 885.859 771.391 886.609 771.953C887.359 772.516 887.523 773.078 887.523 773.805C887.523 774.906 887.102 775.516 886.281 775.984C885.438 776.453 884.242 776.688 882.695 776.688C881.102 776.688 879.672 776.453 878.078 776.008C876.508 775.562 874.961 774.906 873.438 774.039V780.039C875.148 780.578 876.883 781.023 878.477 781.281C880.07 781.539 881.828 781.68 883.422 781.68ZM924.742 778.445V772.609L906.109 765.977L924.742 759.297V753.438L899.969 763.188V768.719L924.742 778.445ZM929.477 785.453H934.656L953.078 746.008H947.898L929.477 785.453ZM959.781 781H966.602V765.977C966.602 764.031 966.953 762.484 967.656 761.383C968.359 760.281 969.344 759.742 970.633 759.742C971.781 759.742 972.695 760.141 973.234 760.961C973.773 761.781 974.031 763.117 974.031 765.016V781H980.852V763.961C980.852 760.703 980.219 758.242 978.953 756.578C977.688 754.938 975.812 754.117 973.352 754.117C971.688 754.117 970.258 754.516 969.086 755.312C967.938 756.109 967.094 757.234 966.602 758.688V744.531H959.781V781ZM989.078 781H1011.27V774.906H1003.54V746.008H996.859L989.617 747.742V753.977L996.812 752.195V774.906H989.078V781ZM1015.66 778.445L1040.43 768.719V763.188L1015.66 753.438V759.297L1034.29 765.977L1015.66 772.609V778.445ZM519.836 844.445V838.609L501.203 831.977L519.836 825.297V819.438L495.062 829.188V834.719L519.836 844.445ZM524.57 851.453H529.75L548.172 812.008H542.992L524.57 851.453ZM554.875 847H561.695V831.977C561.695 830.031 562.047 828.484 562.75 827.383C563.453 826.281 564.438 825.742 565.727 825.742C566.875 825.742 567.789 826.141 568.328 826.961C568.867 827.781 569.125 829.117 569.125 831.016V847H575.945V829.961C575.945 826.703 575.312 824.242 574.047 822.578C572.781 820.938 570.906 820.117 568.445 820.117C566.781 820.117 565.352 820.516 564.18 821.312C563.031 822.109 562.188 823.234 561.695 824.688V810.531H554.875V847ZM604.914 847.094V841.82H599.641C598.398 841.82 597.438 841.609 596.805 841.047C596.219 840.531 595.938 839.688 595.938 838.539V826.023H604.914V820.75H595.938V810.531L589.07 813.578V820.75H582.367V826.023H589.07V838.211C589.07 841.609 589.773 843.953 591.156 845.195C592.539 846.461 595.188 847.094 599.148 847.094H604.914ZM610.609 847H616.234V830.148C616.234 828.18 616.375 826.867 616.68 826.234C616.984 825.578 617.523 825.25 618.297 825.25C619.094 825.25 619.633 825.578 619.938 826.258C620.242 826.961 620.406 828.25 620.406 830.148V847H625.961V830.148C625.961 828.18 626.125 826.938 626.43 826.281C626.711 825.648 627.156 825.25 628.07 825.25C628.844 825.25 629.383 825.578 629.688 826.258C629.992 826.938 630.133 828.086 630.133 830.148V847H635.758V832.211C635.758 827.336 635.383 824.125 634.469 822.461C633.648 820.961 632.102 820.117 629.828 820.117C628.609 820.117 627.602 820.375 626.828 820.914C626.031 821.453 625.375 822.273 624.859 823.375C624.672 822.461 624.133 821.688 623.266 821.055C622.398 820.422 621.438 820.117 620.383 820.117C619.258 820.117 618.25 820.469 617.477 821.008C616.633 821.594 616 822.414 615.602 823.469L614.922 820.75H610.609V847ZM663.484 847.188V841.914H658C656.453 841.914 655.375 841.492 654.742 840.625C654.109 839.758 653.781 838.281 653.781 836.242V810.531H639.953V815.805H646.914V836.242C646.914 840.18 647.617 842.992 649.047 844.656C650.477 846.344 652.82 847.188 656.078 847.188H663.484ZM668.594 844.445L693.367 834.719V829.188L668.594 819.438V825.297L687.227 831.977L668.594 838.609V844.445Z" fill="#A4A4A4"/>
</g>
<defs>
<clipPath id="clip0">
<rect width="2484" height="1335" fill="white"/>
</clipPath>
</defs>
</svg>
