<svg width="910" height="1865" viewBox="0 0 910 1865" fill="none" xmlns="http://www.w3.org/2000/svg">
<rect x="288" y="323" width="335" height="140" fill="#BE8D6A"/>
<path d="M386.306 372.069H394.796V383.169C393.676 383.549 392.506 383.849 391.286 384.069C390.086 384.289 388.716 384.399 387.176 384.399C383.976 384.399 381.516 383.459 379.796 381.579C378.076 379.699 377.216 376.959 377.216 373.359C377.216 371.119 377.646 369.179 378.506 367.539C379.386 365.899 380.656 364.629 382.316 363.729C383.976 362.829 386.006 362.379 388.406 362.379C389.546 362.379 390.666 362.499 391.766 362.739C392.866 362.979 393.866 363.299 394.766 363.699L393.266 367.329C392.606 366.989 391.856 366.709 391.016 366.489C390.176 366.269 389.296 366.159 388.376 366.159C387.056 366.159 385.906 366.459 384.926 367.059C383.966 367.659 383.216 368.509 382.676 369.609C382.156 370.689 381.896 371.969 381.896 373.449C381.896 374.849 382.086 376.089 382.466 377.169C382.846 378.249 383.446 379.099 384.266 379.719C385.086 380.319 386.156 380.619 387.476 380.619C388.116 380.619 388.656 380.589 389.096 380.529C389.556 380.469 389.976 380.399 390.356 380.319V375.849H386.306V372.069ZM412.215 384.099H399.885V362.679H412.215V366.399H404.415V371.109H411.675V374.829H404.415V380.349H412.215V384.099ZM435.662 384.099H429.902L420.572 367.899H420.452C420.492 368.919 420.532 369.939 420.572 370.959C420.632 371.979 420.682 372.999 420.722 374.019V384.099H416.672V362.679H422.402L431.702 378.729H431.792C431.772 377.729 431.742 376.739 431.702 375.759C431.662 374.779 431.622 373.799 431.582 372.819V362.679H435.662V384.099ZM453.406 384.099H441.076V362.679H453.406V366.399H445.606V371.109H452.866V374.829H445.606V380.349H453.406V384.099ZM464.103 362.679C467.023 362.679 469.173 363.209 470.553 364.269C471.953 365.329 472.653 366.939 472.653 369.099C472.653 370.079 472.463 370.939 472.083 371.679C471.723 372.399 471.233 373.019 470.613 373.539C470.013 374.039 469.363 374.449 468.663 374.769L474.963 384.099H469.923L464.823 375.879H462.393V384.099H457.863V362.679H464.103ZM463.773 366.399H462.393V372.189H463.863C465.363 372.189 466.433 371.939 467.073 371.439C467.733 370.939 468.063 370.199 468.063 369.219C468.063 368.199 467.713 367.479 467.013 367.059C466.333 366.619 465.253 366.399 463.773 366.399ZM490.778 384.099L489.218 378.999H481.418L479.858 384.099H474.968L482.528 362.589H488.078L495.668 384.099H490.778ZM486.578 370.209C486.478 369.869 486.348 369.439 486.188 368.919C486.028 368.399 485.868 367.869 485.708 367.329C485.548 366.789 485.418 366.319 485.318 365.919C485.218 366.319 485.078 366.819 484.898 367.419C484.738 367.999 484.578 368.559 484.418 369.099C484.278 369.619 484.168 369.989 484.088 370.209L482.558 375.189H488.138L486.578 370.209ZM504.521 384.099H499.991V366.459H494.171V362.679H510.341V366.459H504.521V384.099ZM525.974 384.099H513.644V362.679H525.974V366.399H518.174V371.109H525.434V374.829H518.174V380.349H525.974V384.099ZM355.514 403.679C358.274 403.679 360.284 404.279 361.544 405.479C362.824 406.659 363.464 408.289 363.464 410.369C363.464 411.609 363.204 412.779 362.684 413.879C362.164 414.959 361.294 415.829 360.074 416.489C358.874 417.149 357.234 417.479 355.154 417.479H353.204V425.099H348.674V403.679H355.514ZM355.274 407.399H353.204V413.759H354.704C355.984 413.759 356.994 413.509 357.734 413.009C358.494 412.489 358.874 411.659 358.874 410.519C358.874 408.439 357.674 407.399 355.274 407.399ZM379.127 425.099L377.567 419.999H369.767L368.207 425.099H363.317L370.877 403.589H376.427L384.017 425.099H379.127ZM374.927 411.209C374.827 410.869 374.697 410.439 374.537 409.919C374.377 409.399 374.217 408.869 374.057 408.329C373.897 407.789 373.767 407.319 373.667 406.919C373.567 407.319 373.427 407.819 373.247 408.419C373.087 408.999 372.927 409.559 372.767 410.099C372.627 410.619 372.517 410.989 372.437 411.209L370.907 416.189H376.487L374.927 411.209ZM394.274 413.069H402.764V424.169C401.644 424.549 400.474 424.849 399.254 425.069C398.054 425.289 396.684 425.399 395.144 425.399C391.944 425.399 389.484 424.459 387.764 422.579C386.044 420.699 385.184 417.959 385.184 414.359C385.184 412.119 385.614 410.179 386.474 408.539C387.354 406.899 388.624 405.629 390.284 404.729C391.944 403.829 393.974 403.379 396.374 403.379C397.514 403.379 398.634 403.499 399.734 403.739C400.834 403.979 401.834 404.299 402.734 404.699L401.234 408.329C400.574 407.989 399.824 407.709 398.984 407.489C398.144 407.269 397.264 407.159 396.344 407.159C395.024 407.159 393.874 407.459 392.894 408.059C391.934 408.659 391.184 409.509 390.644 410.609C390.124 411.689 389.864 412.969 389.864 414.449C389.864 415.849 390.054 417.089 390.434 418.169C390.814 419.249 391.414 420.099 392.234 420.719C393.054 421.319 394.124 421.619 395.444 421.619C396.084 421.619 396.624 421.589 397.064 421.529C397.524 421.469 397.944 421.399 398.324 421.319V416.849H394.274V413.069ZM420.183 425.099H407.853V403.679H420.183V407.399H412.383V412.109H419.643V415.829H412.383V421.349H420.183V425.099ZM445.063 419.159C445.063 421.059 444.373 422.579 442.993 423.719C441.633 424.839 439.693 425.399 437.173 425.399C434.913 425.399 432.893 424.969 431.113 424.109V419.879C432.133 420.319 433.183 420.729 434.263 421.109C435.363 421.469 436.453 421.649 437.533 421.649C438.653 421.649 439.443 421.439 439.903 421.019C440.383 420.579 440.623 420.029 440.623 419.369C440.623 418.829 440.433 418.369 440.053 417.989C439.693 417.609 439.203 417.259 438.583 416.939C437.963 416.599 437.253 416.239 436.453 415.859C435.953 415.619 435.413 415.339 434.833 415.019C434.253 414.679 433.693 414.269 433.153 413.789C432.633 413.289 432.203 412.689 431.863 411.989C431.523 411.289 431.353 410.449 431.353 409.469C431.353 407.549 432.003 406.059 433.303 404.999C434.603 403.919 436.373 403.379 438.613 403.379C439.733 403.379 440.793 403.509 441.793 403.769C442.813 404.029 443.873 404.399 444.973 404.879L443.503 408.419C442.523 408.019 441.643 407.709 440.863 407.489C440.083 407.269 439.283 407.159 438.463 407.159C437.603 407.159 436.943 407.359 436.483 407.759C436.023 408.159 435.793 408.679 435.793 409.319C435.793 410.079 436.133 410.679 436.813 411.119C437.493 411.559 438.503 412.099 439.843 412.739C440.943 413.259 441.873 413.799 442.633 414.359C443.413 414.919 444.013 415.579 444.433 416.339C444.853 417.099 445.063 418.039 445.063 419.159ZM468.397 414.359C468.397 416.579 468.027 418.519 467.287 420.179C466.567 421.819 465.457 423.099 463.957 424.019C462.457 424.939 460.537 425.399 458.197 425.399C455.877 425.399 453.957 424.939 452.437 424.019C450.937 423.099 449.817 421.809 449.077 420.149C448.357 418.489 447.997 416.549 447.997 414.329C447.997 412.109 448.357 410.179 449.077 408.539C449.817 406.899 450.937 405.629 452.437 404.729C453.957 403.809 455.887 403.349 458.227 403.349C460.547 403.349 462.457 403.809 463.957 404.729C465.457 405.629 466.567 406.909 467.287 408.569C468.027 410.209 468.397 412.139 468.397 414.359ZM452.767 414.359C452.767 416.599 453.197 418.369 454.057 419.669C454.917 420.949 456.297 421.589 458.197 421.589C460.137 421.589 461.527 420.949 462.367 419.669C463.207 418.369 463.627 416.599 463.627 414.359C463.627 412.099 463.207 410.329 462.367 409.049C461.527 407.769 460.147 407.129 458.227 407.129C456.307 407.129 454.917 407.769 454.057 409.049C453.197 410.329 452.767 412.099 452.767 414.359ZM490.264 417.539C490.264 419.019 489.934 420.359 489.274 421.559C488.634 422.739 487.654 423.679 486.334 424.379C485.034 425.059 483.384 425.399 481.384 425.399C478.544 425.399 476.384 424.679 474.904 423.239C473.424 421.779 472.684 419.859 472.684 417.479V403.679H477.214V416.789C477.214 418.549 477.574 419.789 478.294 420.509C479.014 421.229 480.084 421.589 481.504 421.589C482.984 421.589 484.054 421.199 484.714 420.419C485.394 419.639 485.734 418.419 485.734 416.759V403.679H490.264V417.539ZM501.75 403.679C504.67 403.679 506.82 404.209 508.2 405.269C509.6 406.329 510.3 407.939 510.3 410.099C510.3 411.079 510.11 411.939 509.73 412.679C509.37 413.399 508.88 414.019 508.26 414.539C507.66 415.039 507.01 415.449 506.31 415.769L512.61 425.099H507.57L502.47 416.879H500.04V425.099H495.51V403.679H501.75ZM501.42 407.399H500.04V413.189H501.51C503.01 413.189 504.08 412.939 504.72 412.439C505.38 411.939 505.71 411.199 505.71 410.219C505.71 409.199 505.36 408.479 504.66 408.059C503.98 407.619 502.9 407.399 501.42 407.399ZM524.404 407.159C522.664 407.159 521.334 407.809 520.414 409.109C519.494 410.409 519.034 412.189 519.034 414.449C519.034 416.729 519.454 418.499 520.294 419.759C521.154 420.999 522.524 421.619 524.404 421.619C525.284 421.619 526.154 421.519 527.014 421.319C527.894 421.119 528.844 420.839 529.864 420.479V424.289C528.924 424.669 527.994 424.949 527.074 425.129C526.154 425.309 525.124 425.399 523.984 425.399C521.784 425.399 519.964 424.949 518.524 424.049C517.104 423.129 516.054 421.849 515.374 420.209C514.694 418.549 514.354 416.619 514.354 414.419C514.354 412.259 514.744 410.349 515.524 408.689C516.304 407.029 517.434 405.729 518.914 404.789C520.414 403.849 522.244 403.379 524.404 403.379C525.464 403.379 526.524 403.519 527.584 403.799C528.664 404.059 529.694 404.419 530.674 404.879L529.204 408.569C528.404 408.189 527.594 407.859 526.774 407.579C525.974 407.299 525.184 407.159 524.404 407.159ZM546.746 425.099H534.416V403.679H546.746V407.399H538.946V412.109H546.206V415.829H538.946V421.349H546.746V425.099ZM563.833 419.159C563.833 421.059 563.143 422.579 561.763 423.719C560.403 424.839 558.463 425.399 555.943 425.399C553.683 425.399 551.663 424.969 549.883 424.109V419.879C550.903 420.319 551.953 420.729 553.033 421.109C554.133 421.469 555.223 421.649 556.303 421.649C557.423 421.649 558.213 421.439 558.673 421.019C559.153 420.579 559.393 420.029 559.393 419.369C559.393 418.829 559.203 418.369 558.823 417.989C558.463 417.609 557.973 417.259 557.353 416.939C556.733 416.599 556.023 416.239 555.223 415.859C554.723 415.619 554.183 415.339 553.603 415.019C553.023 414.679 552.463 414.269 551.923 413.789C551.403 413.289 550.973 412.689 550.633 411.989C550.293 411.289 550.123 410.449 550.123 409.469C550.123 407.549 550.773 406.059 552.073 404.999C553.373 403.919 555.143 403.379 557.383 403.379C558.503 403.379 559.563 403.509 560.563 403.769C561.583 404.029 562.643 404.399 563.743 404.879L562.273 408.419C561.293 408.019 560.413 407.709 559.633 407.489C558.853 407.269 558.053 407.159 557.233 407.159C556.373 407.159 555.713 407.359 555.253 407.759C554.793 408.159 554.563 408.679 554.563 409.319C554.563 410.079 554.903 410.679 555.583 411.119C556.263 411.559 557.273 412.099 558.613 412.739C559.713 413.259 560.643 413.799 561.403 414.359C562.183 414.919 562.783 415.579 563.203 416.339C563.623 417.099 563.833 418.039 563.833 419.159Z" fill="#F8F8F8"/>
<rect x="158" y="67" width="260" height="140" fill="#BE8D6A"/>
<path d="M260.898 128.099L255.738 111.299H255.618C255.638 111.699 255.668 112.299 255.708 113.099C255.748 113.899 255.788 114.759 255.828 115.679C255.868 116.579 255.888 117.399 255.888 118.139V128.099H251.838V106.679H258.018L263.088 123.059H263.178L268.548 106.679H274.728V128.099H270.498V117.959C270.498 117.279 270.508 116.499 270.528 115.619C270.568 114.739 270.598 113.909 270.618 113.129C270.658 112.329 270.688 111.729 270.708 111.329H270.588L265.068 128.099H260.898ZM297.898 117.179C297.898 120.799 296.868 123.529 294.808 125.369C292.768 127.189 289.898 128.099 286.198 128.099H280.138V106.679H286.858C289.098 106.679 291.038 107.079 292.678 107.879C294.338 108.679 295.618 109.859 296.518 111.419C297.438 112.959 297.898 114.879 297.898 117.179ZM293.188 117.299C293.188 114.919 292.668 113.179 291.628 112.079C290.588 110.959 289.078 110.399 287.098 110.399H284.668V124.349H286.618C290.998 124.349 293.188 121.999 293.188 117.299ZM319.07 128.099H313.88L308.9 119.999L303.92 128.099H299.06L306.17 117.059L299.51 106.679H304.52L309.14 114.389L313.67 106.679H318.56L311.84 117.299L319.07 128.099ZM251.295 147.679C254.055 147.679 256.065 148.279 257.325 149.479C258.605 150.659 259.245 152.289 259.245 154.369C259.245 155.609 258.985 156.779 258.465 157.879C257.945 158.959 257.075 159.829 255.855 160.489C254.655 161.149 253.015 161.479 250.935 161.479H248.985V169.099H244.455V147.679H251.295ZM251.055 151.399H248.985V157.759H250.485C251.765 157.759 252.775 157.509 253.515 157.009C254.275 156.489 254.655 155.659 254.655 154.519C254.655 152.439 253.455 151.399 251.055 151.399ZM274.909 169.099L273.349 163.999H265.549L263.989 169.099H259.099L266.659 147.589H272.209L279.799 169.099H274.909ZM270.709 155.209C270.609 154.869 270.479 154.439 270.319 153.919C270.159 153.399 269.999 152.869 269.839 152.329C269.679 151.789 269.549 151.319 269.449 150.919C269.349 151.319 269.209 151.819 269.029 152.419C268.869 152.999 268.709 153.559 268.549 154.099C268.409 154.619 268.299 154.989 268.219 155.209L266.689 160.189H272.269L270.709 155.209ZM290.056 157.069H298.546V168.169C297.426 168.549 296.256 168.849 295.036 169.069C293.836 169.289 292.466 169.399 290.926 169.399C287.726 169.399 285.266 168.459 283.546 166.579C281.826 164.699 280.966 161.959 280.966 158.359C280.966 156.119 281.396 154.179 282.256 152.539C283.136 150.899 284.406 149.629 286.066 148.729C287.726 147.829 289.756 147.379 292.156 147.379C293.296 147.379 294.416 147.499 295.516 147.739C296.616 147.979 297.616 148.299 298.516 148.699L297.016 152.329C296.356 151.989 295.606 151.709 294.766 151.489C293.926 151.269 293.046 151.159 292.126 151.159C290.806 151.159 289.656 151.459 288.676 152.059C287.716 152.659 286.966 153.509 286.426 154.609C285.906 155.689 285.646 156.969 285.646 158.449C285.646 159.849 285.836 161.089 286.216 162.169C286.596 163.249 287.196 164.099 288.016 164.719C288.836 165.319 289.906 165.619 291.226 165.619C291.866 165.619 292.406 165.589 292.846 165.529C293.306 165.469 293.726 165.399 294.106 165.319V160.849H290.056V157.069ZM315.965 169.099H303.635V147.679H315.965V151.399H308.165V156.109H315.425V159.829H308.165V165.349H315.965V169.099ZM333.052 163.159C333.052 165.059 332.362 166.579 330.982 167.719C329.622 168.839 327.682 169.399 325.162 169.399C322.902 169.399 320.882 168.969 319.102 168.109V163.879C320.122 164.319 321.172 164.729 322.252 165.109C323.352 165.469 324.442 165.649 325.522 165.649C326.642 165.649 327.432 165.439 327.892 165.019C328.372 164.579 328.612 164.029 328.612 163.369C328.612 162.829 328.422 162.369 328.042 161.989C327.682 161.609 327.192 161.259 326.572 160.939C325.952 160.599 325.242 160.239 324.442 159.859C323.942 159.619 323.402 159.339 322.822 159.019C322.242 158.679 321.682 158.269 321.142 157.789C320.622 157.289 320.192 156.689 319.852 155.989C319.512 155.289 319.342 154.449 319.342 153.469C319.342 151.549 319.992 150.059 321.292 148.999C322.592 147.919 324.362 147.379 326.602 147.379C327.722 147.379 328.782 147.509 329.782 147.769C330.802 148.029 331.862 148.399 332.962 148.879L331.492 152.419C330.512 152.019 329.632 151.709 328.852 151.489C328.072 151.269 327.272 151.159 326.452 151.159C325.592 151.159 324.932 151.359 324.472 151.759C324.012 152.159 323.782 152.679 323.782 153.319C323.782 154.079 324.122 154.679 324.802 155.119C325.482 155.559 326.492 156.099 327.832 156.739C328.932 157.259 329.862 157.799 330.622 158.359C331.402 158.919 332.002 159.579 332.422 160.339C332.842 161.099 333.052 162.039 333.052 163.159Z" fill="#F8F8F8"/>
<rect x="495" y="67" width="260" height="140" fill="#BE8D6A"/>
<path d="M587.343 106.679C590.263 106.679 592.413 107.209 593.793 108.269C595.193 109.329 595.893 110.939 595.893 113.099C595.893 114.079 595.703 114.939 595.323 115.679C594.963 116.399 594.473 117.019 593.853 117.539C593.253 118.039 592.603 118.449 591.903 118.769L598.203 128.099H593.163L588.063 119.879H585.633V128.099H581.103V106.679H587.343ZM587.013 110.399H585.633V116.189H587.103C588.603 116.189 589.673 115.939 590.313 115.439C590.973 114.939 591.303 114.199 591.303 113.219C591.303 112.199 590.953 111.479 590.253 111.059C589.573 110.619 588.493 110.399 587.013 110.399ZM613.238 128.099H600.908V106.679H613.238V110.399H605.438V115.109H612.698V118.829H605.438V124.349H613.238V128.099ZM630.805 128.099L629.245 122.999H621.445L619.885 128.099H614.995L622.555 106.589H628.105L635.695 128.099H630.805ZM626.605 114.209C626.505 113.869 626.375 113.439 626.215 112.919C626.055 112.399 625.895 111.869 625.735 111.329C625.575 110.789 625.445 110.319 625.345 109.919C625.245 110.319 625.105 110.819 624.925 111.419C624.765 111.999 624.605 112.559 624.445 113.099C624.305 113.619 624.195 113.989 624.115 114.209L622.585 119.189H628.165L626.605 114.209ZM646.912 110.159C645.172 110.159 643.842 110.809 642.922 112.109C642.002 113.409 641.542 115.189 641.542 117.449C641.542 119.729 641.962 121.499 642.802 122.759C643.662 123.999 645.032 124.619 646.912 124.619C647.792 124.619 648.662 124.519 649.522 124.319C650.402 124.119 651.352 123.839 652.372 123.479V127.289C651.432 127.669 650.502 127.949 649.582 128.129C648.662 128.309 647.632 128.399 646.492 128.399C644.292 128.399 642.472 127.949 641.032 127.049C639.612 126.129 638.562 124.849 637.882 123.209C637.202 121.549 636.862 119.619 636.862 117.419C636.862 115.259 637.252 113.349 638.032 111.689C638.812 110.029 639.942 108.729 641.422 107.789C642.922 106.849 644.752 106.379 646.912 106.379C647.972 106.379 649.032 106.519 650.092 106.799C651.172 107.059 652.202 107.419 653.182 107.879L651.712 111.569C650.912 111.189 650.102 110.859 649.282 110.579C648.482 110.299 647.692 110.159 646.912 110.159ZM665.174 128.099H660.644V110.459H654.824V106.679H670.994V110.459H665.174V128.099ZM588.295 147.679C591.055 147.679 593.065 148.279 594.325 149.479C595.605 150.659 596.245 152.289 596.245 154.369C596.245 155.609 595.985 156.779 595.465 157.879C594.945 158.959 594.075 159.829 592.855 160.489C591.655 161.149 590.015 161.479 587.935 161.479H585.985V169.099H581.455V147.679H588.295ZM588.055 151.399H585.985V157.759H587.485C588.765 157.759 589.775 157.509 590.515 157.009C591.275 156.489 591.655 155.659 591.655 154.519C591.655 152.439 590.455 151.399 588.055 151.399ZM611.909 169.099L610.349 163.999H602.549L600.989 169.099H596.099L603.659 147.589H609.209L616.799 169.099H611.909ZM607.709 155.209C607.609 154.869 607.479 154.439 607.319 153.919C607.159 153.399 606.999 152.869 606.839 152.329C606.679 151.789 606.549 151.319 606.449 150.919C606.349 151.319 606.209 151.819 606.029 152.419C605.869 152.999 605.709 153.559 605.549 154.099C605.409 154.619 605.299 154.989 605.219 155.209L603.689 160.189H609.269L607.709 155.209ZM627.056 157.069H635.546V168.169C634.426 168.549 633.256 168.849 632.036 169.069C630.836 169.289 629.466 169.399 627.926 169.399C624.726 169.399 622.266 168.459 620.546 166.579C618.826 164.699 617.966 161.959 617.966 158.359C617.966 156.119 618.396 154.179 619.256 152.539C620.136 150.899 621.406 149.629 623.066 148.729C624.726 147.829 626.756 147.379 629.156 147.379C630.296 147.379 631.416 147.499 632.516 147.739C633.616 147.979 634.616 148.299 635.516 148.699L634.016 152.329C633.356 151.989 632.606 151.709 631.766 151.489C630.926 151.269 630.046 151.159 629.126 151.159C627.806 151.159 626.656 151.459 625.676 152.059C624.716 152.659 623.966 153.509 623.426 154.609C622.906 155.689 622.646 156.969 622.646 158.449C622.646 159.849 622.836 161.089 623.216 162.169C623.596 163.249 624.196 164.099 625.016 164.719C625.836 165.319 626.906 165.619 628.226 165.619C628.866 165.619 629.406 165.589 629.846 165.529C630.306 165.469 630.726 165.399 631.106 165.319V160.849H627.056V157.069ZM652.965 169.099H640.635V147.679H652.965V151.399H645.165V156.109H652.425V159.829H645.165V165.349H652.965V169.099ZM670.052 163.159C670.052 165.059 669.362 166.579 667.982 167.719C666.622 168.839 664.682 169.399 662.162 169.399C659.902 169.399 657.882 168.969 656.102 168.109V163.879C657.122 164.319 658.172 164.729 659.252 165.109C660.352 165.469 661.442 165.649 662.522 165.649C663.642 165.649 664.432 165.439 664.892 165.019C665.372 164.579 665.612 164.029 665.612 163.369C665.612 162.829 665.422 162.369 665.042 161.989C664.682 161.609 664.192 161.259 663.572 160.939C662.952 160.599 662.242 160.239 661.442 159.859C660.942 159.619 660.402 159.339 659.822 159.019C659.242 158.679 658.682 158.269 658.142 157.789C657.622 157.289 657.192 156.689 656.852 155.989C656.512 155.289 656.342 154.449 656.342 153.469C656.342 151.549 656.992 150.059 658.292 148.999C659.592 147.919 661.362 147.379 663.602 147.379C664.722 147.379 665.782 147.509 666.782 147.769C667.802 148.029 668.862 148.399 669.962 148.879L668.492 152.419C667.512 152.019 666.632 151.709 665.852 151.489C665.072 151.269 664.272 151.159 663.452 151.159C662.592 151.159 661.932 151.359 661.472 151.759C661.012 152.159 660.782 152.679 660.782 153.319C660.782 154.079 661.122 154.679 661.802 155.119C662.482 155.559 663.492 156.099 664.832 156.739C665.932 157.259 666.862 157.799 667.622 158.359C668.402 158.919 669.002 159.579 669.422 160.339C669.842 161.099 670.052 162.039 670.052 163.159Z" fill="#F8F8F8"/>
<rect x="290" y="543" width="335" height="140" fill="#BE8D6A"/>
<path d="M401.367 582.679C404.227 582.679 406.387 583.079 407.847 583.879C409.307 584.679 410.037 586.089 410.037 588.109C410.037 589.329 409.747 590.359 409.167 591.199C408.607 592.039 407.797 592.549 406.737 592.729V592.879C407.457 593.019 408.107 593.269 408.687 593.629C409.267 593.989 409.727 594.509 410.067 595.189C410.407 595.869 410.577 596.769 410.577 597.889C410.577 599.829 409.877 601.349 408.477 602.449C407.077 603.549 405.157 604.099 402.717 604.099H394.707V582.679H401.367ZM401.877 591.169C403.197 591.169 404.107 590.959 404.607 590.539C405.127 590.119 405.387 589.509 405.387 588.709C405.387 587.889 405.087 587.299 404.487 586.939C403.887 586.579 402.937 586.399 401.637 586.399H399.237V591.169H401.877ZM399.237 594.769V600.349H402.207C403.567 600.349 404.517 600.089 405.057 599.569C405.597 599.029 405.867 598.319 405.867 597.439C405.867 596.639 405.587 595.999 405.027 595.519C404.487 595.019 403.497 594.769 402.057 594.769H399.237ZM432.293 596.539C432.293 598.019 431.963 599.359 431.303 600.559C430.663 601.739 429.683 602.679 428.363 603.379C427.063 604.059 425.413 604.399 423.413 604.399C420.573 604.399 418.413 603.679 416.933 602.239C415.453 600.779 414.713 598.859 414.713 596.479V582.679H419.243V595.789C419.243 597.549 419.603 598.789 420.323 599.509C421.043 600.229 422.113 600.589 423.533 600.589C425.013 600.589 426.083 600.199 426.743 599.419C427.423 598.639 427.763 597.419 427.763 595.759V582.679H432.293V596.539ZM456.529 604.099H450.769L441.439 587.899H441.319C441.359 588.919 441.399 589.939 441.439 590.959C441.499 591.979 441.549 592.999 441.589 594.019V604.099H437.539V582.679H443.269L452.569 598.729H452.659C452.639 597.729 452.609 596.739 452.569 595.759C452.529 594.779 452.489 593.799 452.449 592.819V582.679H456.529V604.099ZM479.703 593.179C479.703 596.799 478.673 599.529 476.613 601.369C474.573 603.189 471.703 604.099 468.003 604.099H461.943V582.679H468.663C470.903 582.679 472.843 583.079 474.483 583.879C476.143 584.679 477.423 585.859 478.323 587.419C479.243 588.959 479.703 590.879 479.703 593.179ZM474.993 593.299C474.993 590.919 474.473 589.179 473.433 588.079C472.393 586.959 470.883 586.399 468.903 586.399H466.473V600.349H468.423C472.803 600.349 474.993 597.999 474.993 593.299ZM484.15 604.099V582.679H488.68V600.349H497.38V604.099H484.15ZM513.443 604.099H501.113V582.679H513.443V586.399H505.643V591.109H512.903V594.829H505.643V600.349H513.443V604.099ZM420.795 623.679C423.555 623.679 425.565 624.279 426.825 625.479C428.105 626.659 428.745 628.289 428.745 630.369C428.745 631.609 428.485 632.779 427.965 633.879C427.445 634.959 426.575 635.829 425.355 636.489C424.155 637.149 422.515 637.479 420.435 637.479H418.485V645.099H413.955V623.679H420.795ZM420.555 627.399H418.485V633.759H419.985C421.265 633.759 422.275 633.509 423.015 633.009C423.775 632.489 424.155 631.659 424.155 630.519C424.155 628.439 422.955 627.399 420.555 627.399ZM444.409 645.099L442.849 639.999H435.049L433.489 645.099H428.599L436.159 623.589H441.709L449.299 645.099H444.409ZM440.209 631.209C440.109 630.869 439.979 630.439 439.819 629.919C439.659 629.399 439.499 628.869 439.339 628.329C439.179 627.789 439.049 627.319 438.949 626.919C438.849 627.319 438.709 627.819 438.529 628.419C438.369 628.999 438.209 629.559 438.049 630.099C437.909 630.619 437.799 630.989 437.719 631.209L436.189 636.189H441.769L440.209 631.209ZM459.556 633.069H468.046V644.169C466.926 644.549 465.756 644.849 464.536 645.069C463.336 645.289 461.966 645.399 460.426 645.399C457.226 645.399 454.766 644.459 453.046 642.579C451.326 640.699 450.466 637.959 450.466 634.359C450.466 632.119 450.896 630.179 451.756 628.539C452.636 626.899 453.906 625.629 455.566 624.729C457.226 623.829 459.256 623.379 461.656 623.379C462.796 623.379 463.916 623.499 465.016 623.739C466.116 623.979 467.116 624.299 468.016 624.699L466.516 628.329C465.856 627.989 465.106 627.709 464.266 627.489C463.426 627.269 462.546 627.159 461.626 627.159C460.306 627.159 459.156 627.459 458.176 628.059C457.216 628.659 456.466 629.509 455.926 630.609C455.406 631.689 455.146 632.969 455.146 634.449C455.146 635.849 455.336 637.089 455.716 638.169C456.096 639.249 456.696 640.099 457.516 640.719C458.336 641.319 459.406 641.619 460.726 641.619C461.366 641.619 461.906 641.589 462.346 641.529C462.806 641.469 463.226 641.399 463.606 641.319V636.849H459.556V633.069ZM485.465 645.099H473.135V623.679H485.465V627.399H477.665V632.109H484.925V635.829H477.665V641.349H485.465V645.099ZM502.552 639.159C502.552 641.059 501.862 642.579 500.482 643.719C499.122 644.839 497.182 645.399 494.662 645.399C492.402 645.399 490.382 644.969 488.602 644.109V639.879C489.622 640.319 490.672 640.729 491.752 641.109C492.852 641.469 493.942 641.649 495.022 641.649C496.142 641.649 496.932 641.439 497.392 641.019C497.872 640.579 498.112 640.029 498.112 639.369C498.112 638.829 497.922 638.369 497.542 637.989C497.182 637.609 496.692 637.259 496.072 636.939C495.452 636.599 494.742 636.239 493.942 635.859C493.442 635.619 492.902 635.339 492.322 635.019C491.742 634.679 491.182 634.269 490.642 633.789C490.122 633.289 489.692 632.689 489.352 631.989C489.012 631.289 488.842 630.449 488.842 629.469C488.842 627.549 489.492 626.059 490.792 624.999C492.092 623.919 493.862 623.379 496.102 623.379C497.222 623.379 498.282 623.509 499.282 623.769C500.302 624.029 501.362 624.399 502.462 624.879L500.992 628.419C500.012 628.019 499.132 627.709 498.352 627.489C497.572 627.269 496.772 627.159 495.952 627.159C495.092 627.159 494.432 627.359 493.972 627.759C493.512 628.159 493.282 628.679 493.282 629.319C493.282 630.079 493.622 630.679 494.302 631.119C494.982 631.559 495.992 632.099 497.332 632.739C498.432 633.259 499.362 633.799 500.122 634.359C500.902 634.919 501.502 635.579 501.922 636.339C502.342 637.099 502.552 638.039 502.552 639.159Z" fill="#F8F8F8"/>
<path d="M455.586 520.414C456.367 521.195 457.633 521.195 458.414 520.414L471.142 507.686C471.923 506.905 471.923 505.639 471.142 504.858C470.361 504.077 469.095 504.077 468.314 504.858L457 516.172L445.686 504.858C444.905 504.077 443.639 504.077 442.858 504.858C442.077 505.639 442.077 506.905 442.858 507.686L455.586 520.414ZM455 483L455 519L459 519L459 483L455 483Z" fill="#BE8D6A"/>
<path d="M502.169 296.805C502.614 297.817 503.794 298.275 504.805 297.831L521.281 290.581C522.292 290.136 522.751 288.956 522.306 287.945C521.861 286.934 520.681 286.475 519.67 286.92L505.025 293.364L498.581 278.719C498.136 277.708 496.956 277.249 495.945 277.694C494.934 278.139 494.475 279.319 494.92 280.33L502.169 296.805ZM530.136 223.275L502.136 295.275L505.864 296.725L533.864 224.725L530.136 223.275Z" fill="#BE8D6A"/>
<path d="M406.83 296.806C406.385 297.817 405.205 298.276 404.194 297.831L387.718 290.581C386.707 290.137 386.248 288.956 386.693 287.945C387.138 286.934 388.318 286.475 389.329 286.92L403.974 293.364L410.418 278.719C410.863 277.708 412.043 277.249 413.054 277.694C414.065 278.139 414.524 279.319 414.079 280.33L406.83 296.806ZM378.864 223.275L406.863 295.275L403.135 296.725L375.136 224.725L378.864 223.275Z" fill="#BE8D6A"/>
<rect x="290" y="1423" width="335" height="140" fill="#BE8D6A"/>
<path d="M392.202 1472.07H400.692V1483.17C399.572 1483.55 398.402 1483.85 397.182 1484.07C395.982 1484.29 394.612 1484.4 393.072 1484.4C389.872 1484.4 387.412 1483.46 385.692 1481.58C383.972 1479.7 383.112 1476.96 383.112 1473.36C383.112 1471.12 383.542 1469.18 384.402 1467.54C385.282 1465.9 386.552 1464.63 388.212 1463.73C389.872 1462.83 391.902 1462.38 394.302 1462.38C395.442 1462.38 396.562 1462.5 397.662 1462.74C398.762 1462.98 399.762 1463.3 400.662 1463.7L399.162 1467.33C398.502 1466.99 397.752 1466.71 396.912 1466.49C396.072 1466.27 395.192 1466.16 394.272 1466.16C392.952 1466.16 391.802 1466.46 390.822 1467.06C389.862 1467.66 389.112 1468.51 388.572 1469.61C388.052 1470.69 387.792 1471.97 387.792 1473.45C387.792 1474.85 387.982 1476.09 388.362 1477.17C388.742 1478.25 389.342 1479.1 390.162 1479.72C390.982 1480.32 392.052 1480.62 393.372 1480.62C394.012 1480.62 394.552 1480.59 394.992 1480.53C395.452 1480.47 395.872 1480.4 396.252 1480.32V1475.85H392.202V1472.07ZM418.111 1484.1H405.781V1462.68H418.111V1466.4H410.311V1471.11H417.571V1474.83H410.311V1480.35H418.111V1484.1ZM441.558 1484.1H435.798L426.468 1467.9H426.348C426.388 1468.92 426.428 1469.94 426.468 1470.96C426.528 1471.98 426.578 1473 426.618 1474.02V1484.1H422.568V1462.68H428.298L437.598 1478.73H437.688C437.668 1477.73 437.638 1476.74 437.598 1475.76C437.558 1474.78 437.518 1473.8 437.478 1472.82V1462.68H441.558V1484.1ZM459.302 1484.1H446.972V1462.68H459.302V1466.4H451.502V1471.11H458.762V1474.83H451.502V1480.35H459.302V1484.1ZM470 1462.68C472.92 1462.68 475.07 1463.21 476.45 1464.27C477.85 1465.33 478.55 1466.94 478.55 1469.1C478.55 1470.08 478.36 1470.94 477.98 1471.68C477.62 1472.4 477.13 1473.02 476.51 1473.54C475.91 1474.04 475.26 1474.45 474.56 1474.77L480.86 1484.1H475.82L470.72 1475.88H468.29V1484.1H463.76V1462.68H470ZM469.67 1466.4H468.29V1472.19H469.76C471.26 1472.19 472.33 1471.94 472.97 1471.44C473.63 1470.94 473.96 1470.2 473.96 1469.22C473.96 1468.2 473.61 1467.48 472.91 1467.06C472.23 1466.62 471.15 1466.4 469.67 1466.4ZM496.674 1484.1L495.114 1479H487.314L485.754 1484.1H480.864L488.424 1462.59H493.974L501.564 1484.1H496.674ZM492.474 1470.21C492.374 1469.87 492.244 1469.44 492.084 1468.92C491.924 1468.4 491.764 1467.87 491.604 1467.33C491.444 1466.79 491.314 1466.32 491.214 1465.92C491.114 1466.32 490.974 1466.82 490.794 1467.42C490.634 1468 490.474 1468.56 490.314 1469.1C490.174 1469.62 490.064 1469.99 489.984 1470.21L488.454 1475.19H494.034L492.474 1470.21ZM510.418 1484.1H505.888V1466.46H500.068V1462.68H516.238V1466.46H510.418V1484.1ZM531.871 1484.1H519.541V1462.68H531.871V1466.4H524.071V1471.11H531.331V1474.83H524.071V1480.35H531.871V1484.1ZM440.014 1503.68C442.934 1503.68 445.084 1504.21 446.464 1505.27C447.864 1506.33 448.564 1507.94 448.564 1510.1C448.564 1511.08 448.374 1511.94 447.994 1512.68C447.634 1513.4 447.144 1514.02 446.524 1514.54C445.924 1515.04 445.274 1515.45 444.574 1515.77L450.874 1525.1H445.834L440.734 1516.88H438.304V1525.1H433.774V1503.68H440.014ZM439.684 1507.4H438.304V1513.19H439.774C441.274 1513.19 442.344 1512.94 442.984 1512.44C443.644 1511.94 443.974 1511.2 443.974 1510.22C443.974 1509.2 443.624 1508.48 442.924 1508.06C442.244 1507.62 441.164 1507.4 439.684 1507.4ZM466.209 1519.16C466.209 1521.06 465.519 1522.58 464.139 1523.72C462.779 1524.84 460.839 1525.4 458.319 1525.4C456.059 1525.4 454.039 1524.97 452.259 1524.11V1519.88C453.279 1520.32 454.329 1520.73 455.409 1521.11C456.509 1521.47 457.599 1521.65 458.679 1521.65C459.799 1521.65 460.589 1521.44 461.049 1521.02C461.529 1520.58 461.769 1520.03 461.769 1519.37C461.769 1518.83 461.579 1518.37 461.199 1517.99C460.839 1517.61 460.349 1517.26 459.729 1516.94C459.109 1516.6 458.399 1516.24 457.599 1515.86C457.099 1515.62 456.559 1515.34 455.979 1515.02C455.399 1514.68 454.839 1514.27 454.299 1513.79C453.779 1513.29 453.349 1512.69 453.009 1511.99C452.669 1511.29 452.499 1510.45 452.499 1509.47C452.499 1507.55 453.149 1506.06 454.449 1505C455.749 1503.92 457.519 1503.38 459.759 1503.38C460.879 1503.38 461.939 1503.51 462.939 1503.77C463.959 1504.03 465.019 1504.4 466.119 1504.88L464.649 1508.42C463.669 1508.02 462.789 1507.71 462.009 1507.49C461.229 1507.27 460.429 1507.16 459.609 1507.16C458.749 1507.16 458.089 1507.36 457.629 1507.76C457.169 1508.16 456.939 1508.68 456.939 1509.32C456.939 1510.08 457.279 1510.68 457.959 1511.12C458.639 1511.56 459.649 1512.1 460.989 1512.74C462.089 1513.26 463.019 1513.8 463.779 1514.36C464.559 1514.92 465.159 1515.58 465.579 1516.34C465.999 1517.1 466.209 1518.04 466.209 1519.16ZM482.732 1519.16C482.732 1521.06 482.042 1522.58 480.662 1523.72C479.302 1524.84 477.362 1525.4 474.842 1525.4C472.582 1525.4 470.562 1524.97 468.782 1524.11V1519.88C469.802 1520.32 470.852 1520.73 471.932 1521.11C473.032 1521.47 474.122 1521.65 475.202 1521.65C476.322 1521.65 477.112 1521.44 477.572 1521.02C478.052 1520.58 478.292 1520.03 478.292 1519.37C478.292 1518.83 478.102 1518.37 477.722 1517.99C477.362 1517.61 476.872 1517.26 476.252 1516.94C475.632 1516.6 474.922 1516.24 474.122 1515.86C473.622 1515.62 473.082 1515.34 472.502 1515.02C471.922 1514.68 471.362 1514.27 470.822 1513.79C470.302 1513.29 469.872 1512.69 469.532 1511.99C469.192 1511.29 469.022 1510.45 469.022 1509.47C469.022 1507.55 469.672 1506.06 470.972 1505C472.272 1503.92 474.042 1503.38 476.282 1503.38C477.402 1503.38 478.462 1503.51 479.462 1503.77C480.482 1504.03 481.542 1504.4 482.642 1504.88L481.172 1508.42C480.192 1508.02 479.312 1507.71 478.532 1507.49C477.752 1507.27 476.952 1507.16 476.132 1507.16C475.272 1507.16 474.612 1507.36 474.152 1507.76C473.692 1508.16 473.462 1508.68 473.462 1509.32C473.462 1510.08 473.802 1510.68 474.482 1511.12C475.162 1511.56 476.172 1512.1 477.512 1512.74C478.612 1513.26 479.542 1513.8 480.302 1514.36C481.082 1514.92 481.682 1515.58 482.102 1516.34C482.522 1517.1 482.732 1518.04 482.732 1519.16Z" fill="#F8F8F8"/>
<path d="M455.586 1400.41C456.367 1401.2 457.633 1401.2 458.414 1400.41L471.142 1387.69C471.923 1386.91 471.923 1385.64 471.142 1384.86C470.361 1384.08 469.095 1384.08 468.314 1384.86L457 1396.17L445.686 1384.86C444.905 1384.08 443.639 1384.08 442.858 1384.86C442.077 1385.64 442.077 1386.91 442.858 1387.69L455.586 1400.41ZM455 1363L455 1399L459 1399L459 1363L455 1363Z" fill="#BE8D6A"/>
<rect x="290" y="1643" width="335" height="140" fill="#BE8D6A"/>
<path d="M363.476 1725.1V1703.68H368.006V1721.35H376.706V1725.1H363.476ZM388.449 1725.1H378.699V1722.52L381.309 1721.32V1707.46L378.699 1706.26V1703.68H388.449V1706.26L385.839 1707.46V1721.32L388.449 1722.52V1725.1ZM400.229 1713.07H408.719V1724.17C407.599 1724.55 406.429 1724.85 405.209 1725.07C404.009 1725.29 402.639 1725.4 401.099 1725.4C397.899 1725.4 395.439 1724.46 393.719 1722.58C391.999 1720.7 391.139 1717.96 391.139 1714.36C391.139 1712.12 391.569 1710.18 392.429 1708.54C393.309 1706.9 394.579 1705.63 396.239 1704.73C397.899 1703.83 399.929 1703.38 402.329 1703.38C403.469 1703.38 404.589 1703.5 405.689 1703.74C406.789 1703.98 407.789 1704.3 408.689 1704.7L407.189 1708.33C406.529 1707.99 405.779 1707.71 404.939 1707.49C404.099 1707.27 403.219 1707.16 402.299 1707.16C400.979 1707.16 399.829 1707.46 398.849 1708.06C397.889 1708.66 397.139 1709.51 396.599 1710.61C396.079 1711.69 395.819 1712.97 395.819 1714.45C395.819 1715.85 396.009 1717.09 396.389 1718.17C396.769 1719.25 397.369 1720.1 398.189 1720.72C399.009 1721.32 400.079 1721.62 401.399 1721.62C402.039 1721.62 402.579 1721.59 403.019 1721.53C403.479 1721.47 403.899 1721.4 404.279 1721.32V1716.85H400.229V1713.07ZM431.358 1725.1H426.828V1715.86H418.338V1725.1H413.808V1703.68H418.338V1712.08H426.828V1703.68H431.358V1725.1ZM444.998 1725.1H440.468V1707.46H434.648V1703.68H450.818V1707.46H444.998V1725.1ZM471.671 1725.1H467.141V1715.86H458.651V1725.1H454.121V1703.68H458.651V1712.08H467.141V1703.68H471.671V1725.1ZM496.5 1714.36C496.5 1716.58 496.13 1718.52 495.39 1720.18C494.67 1721.82 493.56 1723.1 492.06 1724.02C490.56 1724.94 488.64 1725.4 486.3 1725.4C483.98 1725.4 482.06 1724.94 480.54 1724.02C479.04 1723.1 477.92 1721.81 477.18 1720.15C476.46 1718.49 476.1 1716.55 476.1 1714.33C476.1 1712.11 476.46 1710.18 477.18 1708.54C477.92 1706.9 479.04 1705.63 480.54 1704.73C482.06 1703.81 483.99 1703.35 486.33 1703.35C488.65 1703.35 490.56 1703.81 492.06 1704.73C493.56 1705.63 494.67 1706.91 495.39 1708.57C496.13 1710.21 496.5 1712.14 496.5 1714.36ZM480.87 1714.36C480.87 1716.6 481.3 1718.37 482.16 1719.67C483.02 1720.95 484.4 1721.59 486.3 1721.59C488.24 1721.59 489.63 1720.95 490.47 1719.67C491.31 1718.37 491.73 1716.6 491.73 1714.36C491.73 1712.1 491.31 1710.33 490.47 1709.05C489.63 1707.77 488.25 1707.13 486.33 1707.13C484.41 1707.13 483.02 1707.77 482.16 1709.05C481.3 1710.33 480.87 1712.1 480.87 1714.36ZM518.367 1717.54C518.367 1719.02 518.037 1720.36 517.377 1721.56C516.737 1722.74 515.757 1723.68 514.437 1724.38C513.137 1725.06 511.487 1725.4 509.487 1725.4C506.647 1725.4 504.487 1724.68 503.007 1723.24C501.527 1721.78 500.787 1719.86 500.787 1717.48V1703.68H505.317V1716.79C505.317 1718.55 505.677 1719.79 506.397 1720.51C507.117 1721.23 508.187 1721.59 509.607 1721.59C511.087 1721.59 512.157 1721.2 512.817 1720.42C513.497 1719.64 513.837 1718.42 513.837 1716.76V1703.68H518.367V1717.54ZM536.243 1719.16C536.243 1721.06 535.553 1722.58 534.173 1723.72C532.813 1724.84 530.873 1725.4 528.353 1725.4C526.093 1725.4 524.073 1724.97 522.293 1724.11V1719.88C523.313 1720.32 524.363 1720.73 525.443 1721.11C526.543 1721.47 527.633 1721.65 528.713 1721.65C529.833 1721.65 530.623 1721.44 531.083 1721.02C531.563 1720.58 531.803 1720.03 531.803 1719.37C531.803 1718.83 531.613 1718.37 531.233 1717.99C530.873 1717.61 530.383 1717.26 529.763 1716.94C529.143 1716.6 528.433 1716.24 527.633 1715.86C527.133 1715.62 526.593 1715.34 526.013 1715.02C525.433 1714.68 524.873 1714.27 524.333 1713.79C523.813 1713.29 523.383 1712.69 523.043 1711.99C522.703 1711.29 522.533 1710.45 522.533 1709.47C522.533 1707.55 523.183 1706.06 524.483 1705C525.783 1703.92 527.553 1703.38 529.793 1703.38C530.913 1703.38 531.973 1703.51 532.973 1703.77C533.993 1704.03 535.053 1704.4 536.153 1704.88L534.683 1708.42C533.703 1708.02 532.823 1707.71 532.043 1707.49C531.263 1707.27 530.463 1707.16 529.643 1707.16C528.783 1707.16 528.123 1707.36 527.663 1707.76C527.203 1708.16 526.973 1708.68 526.973 1709.32C526.973 1710.08 527.313 1710.68 527.993 1711.12C528.673 1711.56 529.683 1712.1 531.023 1712.74C532.123 1713.26 533.053 1713.8 533.813 1714.36C534.593 1714.92 535.193 1715.58 535.613 1716.34C536.033 1717.1 536.243 1718.04 536.243 1719.16ZM552.467 1725.1H540.137V1703.68H552.467V1707.4H544.667V1712.11H551.927V1715.83H544.667V1721.35H552.467V1725.1Z" fill="#F8F8F8"/>
<path d="M455.586 1620.41C456.367 1621.2 457.633 1621.2 458.414 1620.41L471.142 1607.69C471.923 1606.91 471.923 1605.64 471.142 1604.86C470.361 1604.08 469.095 1604.08 468.314 1604.86L457 1616.17L445.686 1604.86C444.905 1604.08 443.639 1604.08 442.858 1604.86C442.077 1605.64 442.077 1606.91 442.858 1607.69L455.586 1620.41ZM455 1583L455 1619L459 1619L459 1583L455 1583Z" fill="#BE8D6A"/>
<rect x="290" y="763" width="335" height="140" fill="#BE8D6A"/>
<path d="M402.953 823.679C405.713 823.679 407.723 824.279 408.983 825.479C410.263 826.659 410.903 828.289 410.903 830.369C410.903 831.609 410.643 832.779 410.123 833.879C409.603 834.959 408.733 835.829 407.513 836.489C406.313 837.149 404.673 837.479 402.593 837.479H400.643V845.099H396.113V823.679H402.953ZM402.713 827.399H400.643V833.759H402.143C403.423 833.759 404.433 833.509 405.173 833.009C405.933 832.489 406.313 831.659 406.313 830.519C406.313 828.439 405.113 827.399 402.713 827.399ZM434.391 834.359C434.391 836.579 434.021 838.519 433.281 840.179C432.561 841.819 431.451 843.099 429.951 844.019C428.451 844.939 426.531 845.399 424.191 845.399C421.871 845.399 419.951 844.939 418.431 844.019C416.931 843.099 415.811 841.809 415.071 840.149C414.351 838.489 413.991 836.549 413.991 834.329C413.991 832.109 414.351 830.179 415.071 828.539C415.811 826.899 416.931 825.629 418.431 824.729C419.951 823.809 421.881 823.349 424.221 823.349C426.541 823.349 428.451 823.809 429.951 824.729C431.451 825.629 432.561 826.909 433.281 828.569C434.021 830.209 434.391 832.139 434.391 834.359ZM418.761 834.359C418.761 836.599 419.191 838.369 420.051 839.669C420.911 840.949 422.291 841.589 424.191 841.589C426.131 841.589 427.521 840.949 428.361 839.669C429.201 838.369 429.621 836.599 429.621 834.359C429.621 832.099 429.201 830.329 428.361 829.049C427.521 827.769 426.141 827.129 424.221 827.129C422.301 827.129 420.911 827.769 420.051 829.049C419.191 830.329 418.761 832.099 418.761 834.359ZM451.458 839.159C451.458 841.059 450.768 842.579 449.388 843.719C448.028 844.839 446.088 845.399 443.568 845.399C441.308 845.399 439.288 844.969 437.508 844.109V839.879C438.528 840.319 439.578 840.729 440.658 841.109C441.758 841.469 442.848 841.649 443.928 841.649C445.048 841.649 445.838 841.439 446.298 841.019C446.778 840.579 447.018 840.029 447.018 839.369C447.018 838.829 446.828 838.369 446.448 837.989C446.088 837.609 445.598 837.259 444.978 836.939C444.358 836.599 443.648 836.239 442.848 835.859C442.348 835.619 441.808 835.339 441.228 835.019C440.648 834.679 440.088 834.269 439.548 833.789C439.028 833.289 438.598 832.689 438.258 831.989C437.918 831.289 437.748 830.449 437.748 829.469C437.748 827.549 438.398 826.059 439.698 824.999C440.998 823.919 442.768 823.379 445.008 823.379C446.128 823.379 447.188 823.509 448.188 823.769C449.208 824.029 450.268 824.399 451.368 824.879L449.898 828.419C448.918 828.019 448.038 827.709 447.258 827.489C446.478 827.269 445.678 827.159 444.858 827.159C443.998 827.159 443.338 827.359 442.878 827.759C442.418 828.159 442.188 828.679 442.188 829.319C442.188 830.079 442.528 830.679 443.208 831.119C443.888 831.559 444.898 832.099 446.238 832.739C447.338 833.259 448.268 833.799 449.028 834.359C449.808 834.919 450.408 835.579 450.828 836.339C451.248 837.099 451.458 838.039 451.458 839.159ZM463.601 845.099H459.071V827.459H453.251V823.679H469.421V827.459H463.601V845.099ZM481.228 827.159C479.488 827.159 478.158 827.809 477.238 829.109C476.318 830.409 475.858 832.189 475.858 834.449C475.858 836.729 476.278 838.499 477.118 839.759C477.978 840.999 479.348 841.619 481.228 841.619C482.108 841.619 482.978 841.519 483.838 841.319C484.718 841.119 485.668 840.839 486.688 840.479V844.289C485.748 844.669 484.818 844.949 483.898 845.129C482.978 845.309 481.948 845.399 480.808 845.399C478.608 845.399 476.788 844.949 475.348 844.049C473.928 843.129 472.878 841.849 472.198 840.209C471.518 838.549 471.178 836.619 471.178 834.419C471.178 832.259 471.568 830.349 472.348 828.689C473.128 827.029 474.258 825.729 475.738 824.789C477.238 823.849 479.068 823.379 481.228 823.379C482.288 823.379 483.348 823.519 484.408 823.799C485.488 824.059 486.518 824.419 487.498 824.879L486.028 828.569C485.228 828.189 484.418 827.859 483.598 827.579C482.798 827.299 482.008 827.159 481.228 827.159ZM503.87 839.159C503.87 841.059 503.18 842.579 501.8 843.719C500.44 844.839 498.5 845.399 495.98 845.399C493.72 845.399 491.7 844.969 489.92 844.109V839.879C490.94 840.319 491.99 840.729 493.07 841.109C494.17 841.469 495.26 841.649 496.34 841.649C497.46 841.649 498.25 841.439 498.71 841.019C499.19 840.579 499.43 840.029 499.43 839.369C499.43 838.829 499.24 838.369 498.86 837.989C498.5 837.609 498.01 837.259 497.39 836.939C496.77 836.599 496.06 836.239 495.26 835.859C494.76 835.619 494.22 835.339 493.64 835.019C493.06 834.679 492.5 834.269 491.96 833.789C491.44 833.289 491.01 832.689 490.67 831.989C490.33 831.289 490.16 830.449 490.16 829.469C490.16 827.549 490.81 826.059 492.11 824.999C493.41 823.919 495.18 823.379 497.42 823.379C498.54 823.379 499.6 823.509 500.6 823.769C501.62 824.029 502.68 824.399 503.78 824.879L502.31 828.419C501.33 828.019 500.45 827.709 499.67 827.489C498.89 827.269 498.09 827.159 497.27 827.159C496.41 827.159 495.75 827.359 495.29 827.759C494.83 828.159 494.6 828.679 494.6 829.319C494.6 830.079 494.94 830.679 495.62 831.119C496.3 831.559 497.31 832.099 498.65 832.739C499.75 833.259 500.68 833.799 501.44 834.359C502.22 834.919 502.82 835.579 503.24 836.339C503.66 837.099 503.87 838.039 503.87 839.159ZM520.393 839.159C520.393 841.059 519.703 842.579 518.323 843.719C516.963 844.839 515.023 845.399 512.503 845.399C510.243 845.399 508.223 844.969 506.443 844.109V839.879C507.463 840.319 508.513 840.729 509.593 841.109C510.693 841.469 511.783 841.649 512.863 841.649C513.983 841.649 514.773 841.439 515.233 841.019C515.713 840.579 515.953 840.029 515.953 839.369C515.953 838.829 515.763 838.369 515.383 837.989C515.023 837.609 514.533 837.259 513.913 836.939C513.293 836.599 512.583 836.239 511.783 835.859C511.283 835.619 510.743 835.339 510.163 835.019C509.583 834.679 509.023 834.269 508.483 833.789C507.963 833.289 507.533 832.689 507.193 831.989C506.853 831.289 506.683 830.449 506.683 829.469C506.683 827.549 507.333 826.059 508.633 824.999C509.933 823.919 511.703 823.379 513.943 823.379C515.063 823.379 516.123 823.509 517.123 823.769C518.143 824.029 519.203 824.399 520.303 824.879L518.833 828.419C517.853 828.019 516.973 827.709 516.193 827.489C515.413 827.269 514.613 827.159 513.793 827.159C512.933 827.159 512.273 827.359 511.813 827.759C511.353 828.159 511.123 828.679 511.123 829.319C511.123 830.079 511.463 830.679 512.143 831.119C512.823 831.559 513.833 832.099 515.173 832.739C516.273 833.259 517.203 833.799 517.963 834.359C518.743 834.919 519.343 835.579 519.763 836.339C520.183 837.099 520.393 838.039 520.393 839.159Z" fill="#F8F8F8"/>
<rect x="290" y="983" width="335" height="140" fill="#BE8D6A"/>
<path d="M376.155 1026.16C374.415 1026.16 373.085 1026.81 372.165 1028.11C371.245 1029.41 370.785 1031.19 370.785 1033.45C370.785 1035.73 371.205 1037.5 372.045 1038.76C372.905 1040 374.275 1040.62 376.155 1040.62C377.035 1040.62 377.905 1040.52 378.765 1040.32C379.645 1040.12 380.595 1039.84 381.615 1039.48V1043.29C380.675 1043.67 379.745 1043.95 378.825 1044.13C377.905 1044.31 376.875 1044.4 375.735 1044.4C373.535 1044.4 371.715 1043.95 370.275 1043.05C368.855 1042.13 367.805 1040.85 367.125 1039.21C366.445 1037.55 366.105 1035.62 366.105 1033.42C366.105 1031.26 366.495 1029.35 367.275 1027.69C368.055 1026.03 369.185 1024.73 370.665 1023.79C372.165 1022.85 373.995 1022.38 376.155 1022.38C377.215 1022.38 378.275 1022.52 379.335 1022.8C380.415 1023.06 381.445 1023.42 382.425 1023.88L380.955 1027.57C380.155 1027.19 379.345 1026.86 378.525 1026.58C377.725 1026.3 376.935 1026.16 376.155 1026.16ZM405.021 1033.36C405.021 1035.58 404.651 1037.52 403.911 1039.18C403.191 1040.82 402.081 1042.1 400.581 1043.02C399.081 1043.94 397.161 1044.4 394.821 1044.4C392.501 1044.4 390.581 1043.94 389.061 1043.02C387.561 1042.1 386.441 1040.81 385.701 1039.15C384.981 1037.49 384.621 1035.55 384.621 1033.33C384.621 1031.11 384.981 1029.18 385.701 1027.54C386.441 1025.9 387.561 1024.63 389.061 1023.73C390.581 1022.81 392.511 1022.35 394.851 1022.35C397.171 1022.35 399.081 1022.81 400.581 1023.73C402.081 1024.63 403.191 1025.91 403.911 1027.57C404.651 1029.21 405.021 1031.14 405.021 1033.36ZM389.391 1033.36C389.391 1035.6 389.821 1037.37 390.681 1038.67C391.541 1039.95 392.921 1040.59 394.821 1040.59C396.761 1040.59 398.151 1039.95 398.991 1038.67C399.831 1037.37 400.251 1035.6 400.251 1033.36C400.251 1031.1 399.831 1029.33 398.991 1028.05C398.151 1026.77 396.771 1026.13 394.851 1026.13C392.931 1026.13 391.541 1026.77 390.681 1028.05C389.821 1029.33 389.391 1031.1 389.391 1033.36ZM416.298 1022.68C419.058 1022.68 421.068 1023.28 422.328 1024.48C423.608 1025.66 424.248 1027.29 424.248 1029.37C424.248 1030.61 423.988 1031.78 423.468 1032.88C422.948 1033.96 422.078 1034.83 420.858 1035.49C419.658 1036.15 418.018 1036.48 415.938 1036.48H413.988V1044.1H409.458V1022.68H416.298ZM416.058 1026.4H413.988V1032.76H415.488C416.768 1032.76 417.778 1032.51 418.518 1032.01C419.278 1031.49 419.658 1030.66 419.658 1029.52C419.658 1027.44 418.458 1026.4 416.058 1026.4ZM434.956 1031.5L439.426 1022.68H444.316L437.206 1035.76V1044.1H432.706V1035.91L425.596 1022.68H430.516L434.956 1031.5ZM467.439 1038.16C467.439 1040.06 466.749 1041.58 465.369 1042.72C464.009 1043.84 462.069 1044.4 459.549 1044.4C457.289 1044.4 455.269 1043.97 453.489 1043.11V1038.88C454.509 1039.32 455.559 1039.73 456.639 1040.11C457.739 1040.47 458.829 1040.65 459.909 1040.65C461.029 1040.65 461.819 1040.44 462.279 1040.02C462.759 1039.58 462.999 1039.03 462.999 1038.37C462.999 1037.83 462.809 1037.37 462.429 1036.99C462.069 1036.61 461.579 1036.26 460.959 1035.94C460.339 1035.6 459.629 1035.24 458.829 1034.86C458.329 1034.62 457.789 1034.34 457.209 1034.02C456.629 1033.68 456.069 1033.27 455.529 1032.79C455.009 1032.29 454.579 1031.69 454.239 1030.99C453.899 1030.29 453.729 1029.45 453.729 1028.47C453.729 1026.55 454.379 1025.06 455.679 1024C456.979 1022.92 458.749 1022.38 460.989 1022.38C462.109 1022.38 463.169 1022.51 464.169 1022.77C465.189 1023.03 466.249 1023.4 467.349 1023.88L465.879 1027.42C464.899 1027.02 464.019 1026.71 463.239 1026.49C462.459 1026.27 461.659 1026.16 460.839 1026.16C459.979 1026.16 459.319 1026.36 458.859 1026.76C458.399 1027.16 458.169 1027.68 458.169 1028.32C458.169 1029.08 458.509 1029.68 459.189 1030.12C459.869 1030.56 460.879 1031.1 462.219 1031.74C463.319 1032.26 464.249 1032.8 465.009 1033.36C465.789 1033.92 466.389 1034.58 466.809 1035.34C467.229 1036.1 467.439 1037.04 467.439 1038.16ZM479.583 1044.1H475.053V1026.46H469.233V1022.68H485.403V1026.46H479.583V1044.1ZM499.706 1044.1L498.146 1039H490.346L488.786 1044.1H483.896L491.456 1022.59H497.006L504.596 1044.1H499.706ZM495.506 1030.21C495.406 1029.87 495.276 1029.44 495.116 1028.92C494.956 1028.4 494.796 1027.87 494.636 1027.33C494.476 1026.79 494.346 1026.32 494.246 1025.92C494.146 1026.32 494.006 1026.82 493.826 1027.42C493.666 1028 493.506 1028.56 493.346 1029.1C493.206 1029.62 493.096 1029.99 493.016 1030.21L491.486 1035.19H497.066L495.506 1030.21ZM513.45 1044.1H508.92V1026.46H503.1V1022.68H519.27V1026.46H513.45V1044.1ZM530.583 1044.1H520.833V1041.52L523.443 1040.32V1026.46L520.833 1025.26V1022.68H530.583V1025.26L527.973 1026.46V1040.32L530.583 1041.52V1044.1ZM543.323 1026.16C541.583 1026.16 540.253 1026.81 539.333 1028.11C538.413 1029.41 537.953 1031.19 537.953 1033.45C537.953 1035.73 538.373 1037.5 539.213 1038.76C540.073 1040 541.443 1040.62 543.323 1040.62C544.203 1040.62 545.073 1040.52 545.933 1040.32C546.813 1040.12 547.763 1039.84 548.783 1039.48V1043.29C547.843 1043.67 546.913 1043.95 545.993 1044.13C545.073 1044.31 544.043 1044.4 542.903 1044.4C540.703 1044.4 538.883 1043.95 537.443 1043.05C536.023 1042.13 534.973 1040.85 534.293 1039.21C533.613 1037.55 533.273 1035.62 533.273 1033.42C533.273 1031.26 533.663 1029.35 534.443 1027.69C535.223 1026.03 536.353 1024.73 537.833 1023.79C539.333 1022.85 541.163 1022.38 543.323 1022.38C544.383 1022.38 545.443 1022.52 546.503 1022.8C547.583 1023.06 548.613 1023.42 549.593 1023.88L548.123 1027.57C547.323 1027.19 546.513 1026.86 545.693 1026.58C544.893 1026.3 544.103 1026.16 543.323 1026.16ZM425.471 1085.1H421.001V1063.68H433.271V1067.4H425.471V1072.92H432.731V1076.64H425.471V1085.1ZM445.476 1085.1H435.726V1082.52L438.336 1081.32V1067.46L435.726 1066.26V1063.68H445.476V1066.26L442.866 1067.46V1081.32L445.476 1082.52V1085.1ZM449.126 1085.1V1063.68H453.656V1081.35H462.356V1085.1H449.126ZM478.419 1085.1H466.089V1063.68H478.419V1067.4H470.619V1072.11H477.879V1075.83H470.619V1081.35H478.419V1085.1ZM495.506 1079.16C495.506 1081.06 494.816 1082.58 493.436 1083.72C492.076 1084.84 490.136 1085.4 487.616 1085.4C485.356 1085.4 483.336 1084.97 481.556 1084.11V1079.88C482.576 1080.32 483.626 1080.73 484.706 1081.11C485.806 1081.47 486.896 1081.65 487.976 1081.65C489.096 1081.65 489.886 1081.44 490.346 1081.02C490.826 1080.58 491.066 1080.03 491.066 1079.37C491.066 1078.83 490.876 1078.37 490.496 1077.99C490.136 1077.61 489.646 1077.26 489.026 1076.94C488.406 1076.6 487.696 1076.24 486.896 1075.86C486.396 1075.62 485.856 1075.34 485.276 1075.02C484.696 1074.68 484.136 1074.27 483.596 1073.79C483.076 1073.29 482.646 1072.69 482.306 1071.99C481.966 1071.29 481.796 1070.45 481.796 1069.47C481.796 1067.55 482.446 1066.06 483.746 1065C485.046 1063.92 486.816 1063.38 489.056 1063.38C490.176 1063.38 491.236 1063.51 492.236 1063.77C493.256 1064.03 494.316 1064.4 495.416 1064.88L493.946 1068.42C492.966 1068.02 492.086 1067.71 491.306 1067.49C490.526 1067.27 489.726 1067.16 488.906 1067.16C488.046 1067.16 487.386 1067.36 486.926 1067.76C486.466 1068.16 486.236 1068.68 486.236 1069.32C486.236 1070.08 486.576 1070.68 487.256 1071.12C487.936 1071.56 488.946 1072.1 490.286 1072.74C491.386 1073.26 492.316 1073.8 493.076 1074.36C493.856 1074.92 494.456 1075.58 494.876 1076.34C495.296 1077.1 495.506 1078.04 495.506 1079.16Z" fill="#F8F8F8"/>
<rect x="290" y="1203" width="335" height="140" fill="#BE8D6A"/>
<path d="M413.655 1285.1L408.495 1268.3H408.375C408.395 1268.7 408.425 1269.3 408.465 1270.1C408.505 1270.9 408.545 1271.76 408.585 1272.68C408.625 1273.58 408.645 1274.4 408.645 1275.14V1285.1H404.595V1263.68H410.775L415.845 1280.06H415.935L421.305 1263.68H427.485V1285.1H423.255V1274.96C423.255 1274.28 423.265 1273.5 423.285 1272.62C423.325 1271.74 423.355 1270.91 423.375 1270.13C423.415 1269.33 423.445 1268.73 423.465 1268.33H423.345L417.825 1285.1H413.655ZM440.905 1285.1H431.155V1282.52L433.765 1281.32V1267.46L431.155 1266.26V1263.68H440.905V1266.26L438.295 1267.46V1281.32L440.905 1282.52V1285.1ZM463.545 1285.1H457.785L448.455 1268.9H448.335C448.375 1269.92 448.415 1270.94 448.455 1271.96C448.515 1272.98 448.565 1274 448.605 1275.02V1285.1H444.555V1263.68H450.285L459.585 1279.73H459.675C459.655 1278.73 459.625 1277.74 459.585 1276.76C459.545 1275.78 459.505 1274.8 459.465 1273.82V1263.68H463.545V1285.1ZM476.97 1285.1H467.22V1282.52L469.83 1281.32V1267.46L467.22 1266.26V1263.68H476.97V1266.26L474.36 1267.46V1281.32L476.97 1282.52V1285.1ZM485.09 1285.1H480.62V1263.68H492.89V1267.4H485.09V1272.92H492.35V1276.64H485.09V1285.1ZM503.745 1272.5L508.215 1263.68H513.105L505.995 1276.76V1285.1H501.495V1276.91L494.385 1263.68H499.305L503.745 1272.5Z" fill="#F8F8F8"/>
<path d="M455.586 1180.41C456.367 1181.2 457.633 1181.2 458.414 1180.41L471.142 1167.69C471.923 1166.91 471.923 1165.64 471.142 1164.86C470.361 1164.08 469.095 1164.08 468.314 1164.86L457 1176.17L445.686 1164.86C444.905 1164.08 443.639 1164.08 442.858 1164.86C442.077 1165.64 442.077 1166.91 442.858 1167.69L455.586 1180.41ZM455 1143L455 1179L459 1179L459 1143L455 1143Z" fill="#BE8D6A"/>
<path d="M455.586 960.414C456.367 961.195 457.633 961.195 458.414 960.414L471.142 947.686C471.923 946.905 471.923 945.639 471.142 944.858C470.361 944.077 469.095 944.077 468.314 944.858L457 956.172L445.686 944.858C444.905 944.077 443.639 944.077 442.858 944.858C442.077 945.639 442.077 946.905 442.858 947.686L455.586 960.414ZM455 923L455 959L459 959L459 923L455 923Z" fill="#BE8D6A"/>
<path d="M455.586 740.414C456.367 741.195 457.633 741.195 458.414 740.414L471.142 727.686C471.923 726.905 471.923 725.639 471.142 724.858C470.361 724.077 469.095 724.077 468.314 724.858L457 736.172L445.686 724.858C444.905 724.077 443.639 724.077 442.858 724.858C442.077 725.639 442.077 726.905 442.858 727.686L455.586 740.414ZM455 703L455 739L459 739L459 703L455 703Z" fill="#BE8D6A"/>
</svg>
